<?xml version="1.0" encoding="utf-8"?>
<!-- Generator: Adobe Illustrator 27.0.1, SVG Export Plug-In . SVG Version: 6.00 Build 0)  -->
<svg version="1.1" xmlns="http://www.w3.org/2000/svg" xmlns:xlink="http://www.w3.org/1999/xlink" x="0px" y="0px"
	 viewBox="0 0 333.36 530.29" style="enable-background:new 0 0 333.36 530.29;" xml:space="preserve">
<style type="text/css">
	.st0{fill:#F39BBB;}
	.st1{fill:#2C0815;}
	.st2{fill:#FFFBEF;}
	.st3{fill:#B1D7C1;}
	.st4{fill:#B6B6B6;}
	.st5{fill:#714829;}
</style>
<g id="Background_xA0_Image_00000093142374343206490840000011220288934283012282_">
</g>
<g id="Vector_layer_00000078020126364498874910000017909428618519951509_">
</g>
<g id="Vector_layer_00000107587599144294055350000008431148094600919457_">
	<path class="st1" d="M1980.56-370.71c2.91-39.36-24.34-55.44-60.56-61.54v293.53H0v-261.65c-7,1.49-13.64,3.86-19.53,7.77
		c0.09,0.36,0.21,0.71,0.36,1.05c0,0.02,0,0.05,0,0.07c-5.2,2.33-9.18,5.78-11.06,10.97c-1.75,5.43-3.32,10.89-4.76,16.39
		c-0.38-2.02-0.76-4.04-1.15-6.05c-1.69,5.91-2.42,12.2-3.34,18.16c-0.11,0.39-0.21,0.83-0.3,1.33c0.23,1.35,0.45,2.69,0.68,4.04
		c-3.48,16.43-6.04,33.06-8.52,49.67c-9.55,45.82-8.95,93.2-0.13,139.07c5.86,42.96,29.06,61.69,64.78,81.96
		C77.82-35.27,154.21-28.3,225.5-30.43c85.46-2.3,170.86-10.31,256.39-6.5c108.46,4.05,216.63,13.91,325.15,16.66
		c205.39,2.97,410.85,4.9,615.95,17.31c109.06,2.92,218.66,6.13,327.46-3.53c25.2-2.51,50.35-5.48,75.49-8.47
		c27.74-3.05,56.44-8.02,80.2-23.34c56.77-39.99,67.2-118.12,70.99-182.64c-0.61-31.62-8.51-62.82-6.65-94.6
		C1970.7-334.44,1977.5-352.27,1980.56-370.71z M1920-441.24c37.6,5.89,70.13,22.25,69.84,66.38c-1.14,18.96-9.35,36.8-10.19,55.88
		c-2.04,30.14,4.24,59.82,6.34,89.73c-0.3,55.43-10.08,113.34-38.69,161.52c-25.09,41.15-72.64,57.98-118.64,61.52
		C1751.45,4.42,1673.7,8.87,1595.81,8.87c-8.21,0-16.43-0.05-24.64-0.15C1374.53,7.87,1178.28-9.02,981.58-8.86
		c-184.2,2.65-367.61-15.46-551.55-20.11c-37.96-0.56-76.04,1.67-114.12,3.9c-67.27,3.94-134.54,7.89-201.12-3.57
		C76.29-35.11,39.3-49.48,7.05-71.55c-17.93-10.82-36.41-22.46-48.15-40.28C-55.3-134.99-58-163.05-61.48-189.46
		c-6.04-48.71,1.64-97.48,11.07-145.37c-1.59-3.07,0.75-8.4,1.07-11.79c0.75-4.5,1.23-9.04,1.98-13.55
		c0.91-11.39,5.07-21.41,11.57-29.45c1.01-1.66,2.18-3.24,3.52-4.71c0.83-0.57,1.68-1.11,2.53-1.62
		c8.03-7.13,18.29-11.95,29.75-13.77c0.39-0.06,0.77-0.12,1.16-0.18c50.96-4.21,101.84-6.87,152.95-6.85
		c22.05,0.39,44.11,0.68,66.15,0.15c7.6-1.11,15.48-1.84,23.09-1.2c1.17,0.16,2.57,0.09,4,0.02c2.3-0.11,4.69-0.21,6.4,0.61h0
		c14.69-1.28,29.4-2.14,44.15-2.27c14.62-1.54,29.29-2.36,43.99-2.53c55.83-2.29,111.62-5.41,167.5-6.35
		c66.16-0.34,132.26,3.35,198.37,5.13c53.96,0.39,107.88-3.38,161.82-3.76c128.16-6.86,256.19-4.78,384.45-6.95
		c51.96-0.97,103.52-8.6,155.46-10.38c104.16-5.79,208.39-6.02,312.59-1.17c40.98,0.98,81.94,3.66,122.93,1.29
		C1866.53-444.4,1894.43-445.24,1920-441.24z"/>
</g>
<g id="Vector_layer_00000018203011348087635800000010066915742034441391_">
	<path d="M-12.23,468.37c-2.44-0.25-4.17-2.7-3.85-5.07c1.1-6.56,12.21-2.78,17.07-4.03c17.44-0.43,34.87-0.27,52.31-0.71
		c17.1-0.68,34.08-1.55,51.18-1.73c17.84-0.82,34.76-2.85,52.52-2.1c14.12,0.66,28.22,2.22,42.37,2.25
		c13.23,0.23,26.21-3.14,39.47-2.35c-1.55-12.76-0.22-25.68-1.28-38.49c-0.7-9.25-1.39-18.49-1.58-27.76
		c-0.15-47.28-1.65-94.58,0.75-141.82c2.25-31.52,6.37-63.01,6.09-94.63c-0.14-25.1-4.68-50.02-3.93-75.12
		c-34.4,1.12-68.91-0.44-103.34-0.88c-19.96-0.25-39.68-4.06-59.63-3.76c-21.16,0.56-42.3,2.08-63.46,2.1
		c-5.78-0.17-11.57-0.44-17.31-1.18c-2.27,0.94-4.89-0.17-5.86-2.41c-2.07-4.48,2.71-8.14,7-6.49c7.3,0.91,14.68,1.07,22.03,1.14
		c23.24-0.43,46.48-2.54,69.73-2.07c36.88,4.31,74.02,4.17,111.09,4.82c12.62,0.01,25.26,0.32,37.88-0.1
		c3.86-1.92,9.69-2.36,10.71,3.03c-0.48,29.34,4.2,58.51,4.23,87.89c-0.67,39.48-7.25,78.65-7.16,118.17
		c-1.08,35.11,0.2,70.19,0.06,105.31c0.02,14.73,1.72,29.38,2.15,44.09c0.37,9.6-0.59,19.31,1.07,28.81
		c2.47,4.69,0.51,10.66-6.09,8.39c-4.96-0.09-9.92-0.09-14.88,0.08c-21.6,3.41-43.39,2.08-65.08,0.23
		c-20.76-1.45-41.15,1.43-61.7,1.94C62.84,467.05,25.3,468.42-12.23,468.37z"/>
	<path class="st2" d="M242.83,151.91c0.28,31.62-3.84,63.11-6.09,94.63c-2.4,47.24-0.9,94.55-0.75,141.82
		c0.19,9.27,0.88,18.52,1.58,27.76c1.06,12.81-0.27,25.73,1.28,38.49c-13.26-0.79-26.24,2.59-39.47,2.35
		c-14.15-0.02-28.25-1.59-42.37-2.25c-17.75-0.75-34.68,1.28-52.52,2.1c-17.1,0.18-34.08,1.04-51.18,1.73
		C35.88,459,18.44,458.84,1,459.26c-0.31,0.08-0.64,0.14-1,0.18V73.59c4.14,0.36,8.31,0.54,12.46,0.66
		c21.17-0.02,42.31-1.53,63.46-2.1c19.95-0.3,39.67,3.51,59.63,3.76c34.43,0.45,68.94,2,103.34,0.88
		C238.15,101.89,242.69,126.82,242.83,151.91z"/>
	<path d="M196.96,283.09c-8.84-3.31-14.5-10.22-8.03-19.04c3.41-5.22,9.81-4.83,15.25-4.3
		C219.57,265.51,213.92,288.16,196.96,283.09z"/>
</g>
<g id="Layer_group_00000105405939261849433520000006700320796252514996_">
	<g id="Vector_layer_00000099644780497704622750000008749998325542471600_">
	</g>
	<g id="Vector_layer_00000178903065613532771060000000751791719891830439_">
	</g>
</g>
<g id="Layer_group_00000002374216144986428850000002899251176500677796_">
	<g id="Vector_layer_00000127750967482769236690000007383033945762235541_">
	</g>
	<g id="Vector_layer_00000052825681190008569390000009708068855695810966_">
	</g>
</g>
<g id="Layer_group_00000167377542817365220160000016848006347953459841_">
	<g id="Vector_layer_00000152253862718858369030000003853431580184741821_">
	</g>
	<g id="Vector_layer_00000181779148217544436380000006463481097416314754_">
	</g>
	<g id="Vector_layer_00000141439298873696992770000017746013324091193759_">
	</g>
</g>
<g id="Layer_group_00000083802991444759172490000000640934946093555853_">
	<g id="Vector_layer_00000167383079102820005540000002405226734901792657_">
	</g>
	<g id="Vector_layer_00000096048910955486982240000007180041727820279463_">
	</g>
</g>
</svg>
