<?xml version="1.0" encoding="utf-8"?>
<!-- Generator: Adobe Illustrator 27.0.1, SVG Export Plug-In . SVG Version: 6.00 Build 0)  -->
<svg version="1.1" xmlns="http://www.w3.org/2000/svg" xmlns:xlink="http://www.w3.org/1999/xlink" x="0px" y="0px"
	 viewBox="0 0 720.35 286.7" style="enable-background:new 0 0 720.35 286.7;" xml:space="preserve">
<style type="text/css">
	.st0{fill:#F39BBB;}
	.st1{fill:#2C0815;}
	.st2{fill:#FFFBEF;}
	.st3{fill:#B1D7C1;}
	.st4{fill:#B6B6B6;}
	.st5{fill:#714829;}
</style>
<g id="Background_xA0_Image_00000093142374343206490840000011220288934283012282_">
</g>
<g id="Vector_layer_00000078020126364498874910000017909428618519951509_">
</g>
<g id="Vector_layer_00000107587599144294055350000008431148094600919457_">
</g>
<g id="Vector_layer_00000018203011348087635800000010066915742034441391_">
</g>
<g id="Layer_group_00000105405939261849433520000006700320796252514996_">
	<g id="Vector_layer_00000099644780497704622750000008749998325542471600_">
	</g>
	<g id="Vector_layer_00000178903065613532771060000000751791719891830439_">
	</g>
</g>
<g id="Layer_group_00000002374216144986428850000002899251176500677796_">
	<g id="Vector_layer_00000127750967482769236690000007383033945762235541_">
	</g>
	<g id="Vector_layer_00000052825681190008569390000009708068855695810966_">
	</g>
</g>
<g id="Layer_group_00000167377542817365220160000016848006347953459841_">
	<g id="Vector_layer_00000152253862718858369030000003853431580184741821_">
	</g>
	<g id="Vector_layer_00000181779148217544436380000006463481097416314754_">
	</g>
	<g id="Vector_layer_00000141439298873696992770000017746013324091193759_">
	</g>
</g>
<g id="Layer_group_00000083802991444759172490000000640934946093555853_">
	<g id="Vector_layer_00000167383079102820005540000002405226734901792657_">
		<path class="st2" d="M542.37,180.43c-0.09,3.9,2.09,8.38-0.06,11.92c0.43,9.85-0.02,19.67-1.13,29.46
			c-0.07,0.95-0.5,1.79-1.14,2.44c-0.18,1-0.34,1.86-0.43,2.54c-1.75,6.2-9.8,5.21-14.63,7.6c-11.17,5.36-23.45,2.42-35.32,2.89
			c-5.98,3.97-14.3,2.88-21.2,2.72c-0.23-0.02-0.46-0.04-0.68-0.06c-0.47,0.06-0.98,0.05-1.54-0.04
			c-21.32-0.84-42.59-2.52-63.89-3.59c-14.41,0.02-28.93-0.36-43.27-1.67c-6.81-0.07-13.39-0.92-20.15-2
			c-2.23-0.36-4.91,0.1-6.59-1.72c-19.17-0.25-38.23-2.17-57.34-3.57c-4.27,2.25-9.79,0.27-14.5,0.7
			c-14.39-0.15-28.61-2.4-42.92-3.67c-9.28,0.21-18.57-0.17-27.86-0.4c-9.91,0.37-19.9,1.48-29.77,0.02
			c-1.27-0.2-2.21-0.77-2.83-1.55c-0.8-0.24-1.6-0.5-2.38-0.8c-4.73,2.65-9.61-2.85-12.91-5.77c-2.3-1.71-2.34-4.87-2.83-7.43
			c-4.39-6.73-3.23-15.99-3.55-23.76c-0.18-9.43-1.1-18.75-2.02-28.16c-0.02-11.89-3.48-23.3-3.88-35.14
			c0.23-7.77-0.7-16.39,2.23-23.66c-2.5-2.61-1.62-6.81-2.08-10.13c-1.18-8.1-3.2-16.17-2.06-24.4c-2.61-3.61,1.05-7.91,5.11-7.27
			c4.02-2.18,11.45-2.61,15.73-1.08c7.38-1.46,14.95-0.82,22.39-1.85c4.25-0.04,11.16-1.96,14.83,0.72
			c8.35-0.59,16.8-0.45,25.16-0.3c10.18,0.12,20.26,1.84,30.39,0.27c21.89-1.36,44.54-3.67,66.15,0.76
			c16.46-0.55,32.97-0.5,49.38,0.93c18.15,0.37,36.24-1.5,54.39-0.93c5.26,0.78,15.19-1.41,18.32,3.25
			c3.7-3.62,12.27-0.9,17.27-1.41c15.89,0,31.8,2.61,47.5,3.04c2.95-4.08,36.06-0.26,40.79,2.17c1.23,0.93,1.89,2.18,2.1,3.48
			c0.39,0.32,0.73,0.71,1,1.19c2,7.5,2.66,15.51,3.47,23.27c2.05,18.43,0.63,36.91-1.26,55.29
			C539.85,156.62,541.62,168.55,542.37,180.43z"/>
	</g>
	<g id="Vector_layer_00000096048910955486982240000007180041727820279463_">
		<path d="M164.26,135.81c-34.84-1.91-15.11-47.87,2.44-42.37c2.93,1.01,5.18,3.75,5.17,6.92c0.22,4.82-7.14,6.19-8.68,1.63
			c-6.84,3.41-10.68,13.67-8.41,20.82c5.5,5.34,14.57,4.48,21.62,3.58c5.85-2.13,8.95,6.74,2.95,8.54c-3.3,0.77-6.7,1.11-10.09,1.11
			C167.58,136.04,165.91,135.95,164.26,135.81z"/>
		<path d="M190.74,139.61c-2.66-1.03-3.36-4-3.6-6.55c-1.29-9.96-2.19-19.96-3.86-29.87c-3.07-5.93,6-10.64,8.34-3.95
			c2.16,10.39,2.93,21.07,4.29,31.61c7.12-1.3,14.31-2.2,21.55-2.56c2.75-0.61,5.95,0.68,6.3,3.75c0.32,2.34-1.4,4.86-3.85,5.07
			c-6.25,0.42-11.7,0.8-17.77,1.81c-2.7,0.27-5.5,1.21-8.23,1.21C192.84,140.12,191.78,139.98,190.74,139.61z"/>
		<path d="M231.11,136.81c-2.58-3.75-1.11-8.93-1.82-13.25c-0.48-8.12-1.36-16.25-2.65-24.22c-0.05-4.45,6.2-6.2,8.38-2.27
			c1.26,2.56,1.16,5.59,1.65,8.36c1.04,8.82,1.7,17.7,2.02,26.57c1.77,3.34-1.19,6.55-4.22,6.55
			C233.26,138.54,232.04,138.03,231.11,136.81z"/>
		<path d="M256.41,137.21c-27.12-5.02-3.68-53.09,7.83-38.38c2.39,4.26-1.08,11.1-6.3,8.18c-6.49,9.62-9.68,23.63,6.94,21.77
			c1.74,0.17,3.89-0.41,6.07-0.98c4.26-1.12,8.65-2.25,10.36,2.21c0.64,2.3-0.76,4.96-3.14,5.54c-5.04,1.13-10.27,2.31-15.48,2.31
			C260.58,137.86,258.49,137.67,256.41,137.21z"/>
		<path d="M281.74,137.33c-0.09-9.66,1.33-19.5-0.32-29.21c-0.38-3.34-1.07-6.64-1.75-9.94c-0.63-3.57,3.67-6.43,6.73-4.5
			c3.45,2.61,2.8,7.96,3.78,11.82c0.61,5.24,3.46,34.58-2.91,34.96c-0.37,0.1-0.75,0.14-1.13,0.14
			C284.17,140.62,282.16,139.33,281.74,137.33z"/>
		<path d="M282.74,124.32c-0.27-10.11,12.09-21.13,18.07-28.8c1.58-1.87,4.3-2.37,6.31-0.81c5.42,5.14-3.55,10.16-6.13,14.37
			c-3.51,4.43-7.21,8.88-9.44,14.12c0.07,2.78-2.28,4.34-4.59,4.34C285.11,127.54,283.27,126.53,282.74,124.32z"/>
		<path d="M306.7,138.73c-3.64-8.07-11.32-13.55-16.51-20.64c-1.52-0.93-3.24-1.93-3.42-4c-0.34-2.45,1.42-4.71,3.85-5.07
			c3.46-0.52,5.93,2.59,7.91,4.96c5.34,7.18,13.15,12.72,16.46,21.24c1.49,3.46-1.51,6.18-4.41,6.18
			C309.02,141.41,307.49,140.63,306.7,138.73z"/>
		<path d="M361.72,134.66c-0.58-10.4-0.95-20.82-2.75-31.11c-0.25-2.39-1.89-4.56-1.27-7.01c0.95-3.77,6.31-4.43,8.22-1.07
			c4.15,11.65,3.82,24.56,4.64,36.81c2.27,4.08-0.96,6.88-4.14,6.88C364.22,139.15,362.05,137.82,361.72,134.66z"/>
		<path d="M380.13,131.01c-1.71-5.75-6.19-34.99-2.8-38.75c4.48-5.41,11.29,2.79,7.69,7.43c0.87,9.27,1.48,18.71,3.41,27.82
			c1.51,3.45-1.48,6.18-4.39,6.18C382.47,133.68,380.93,132.89,380.13,131.01z"/>
		<path d="M362.34,121.8c-7.67-10.58,12.85-10.15,18.89-10.56c3.9-0.22,10.2-2.34,11.14,3.22c0.4,7.85-12.26,5.01-17.36,6.13
			c-2.33,0.23-4.7,0.36-6.94,1.05c-0.8,0.72-1.87,1.08-2.94,1.08C364.14,122.71,363.14,122.4,362.34,121.8z"/>
		<path d="M398.24,135.87c-3.88-3.8-1.59-13.11-2.6-18.43c-0.4-5.35-0.89-10.7-2-15.96c-1.14-1.22-1.22-3.06-1.02-4.67
			c0.45-3.35,4.53-5.05,7.21-2.95c1.93,1.51,2.28,4.11,2.73,6.37c2.02,9.73,2.23,19.69,2.59,29.59c1.86,3.18-1.11,7.02-4.3,7.02
			C399.96,136.85,399.06,136.55,398.24,135.87z"/>
		<path d="M397.64,105.93c-9.82-7.51,8.94-14.42,15.29-13.07c9.21,1.24,6.32,13.89-1.73,8.87c-2.78,0.09-5.58,1.01-7.98,2.41
			c-0.89,1.33-2.36,2.15-3.89,2.15C398.77,106.29,398.2,106.18,397.64,105.93z"/>
		<path d="M401.26,122.2c-8.04-1.27-3.33-13.81,3.38-8.99c12.07-2.46,16.23,0.73,16.41,3.91c0.18,3.01-3.19,6.03-6.75,4.27
			c-3.7,0.02-7.37,0.9-11.05,0.9C402.59,122.29,401.93,122.26,401.26,122.2z"/>
		<path d="M400.13,138.9c-2.15-1.18-2.83-4.09-1.61-6.16c1.11-1.93,3.27-2.5,5.27-2.04c2.85,0.05,6.35-0.77,8.68-1.2
			c5.13-0.29,16.08-6.21,17.76,1.36c0.54,5.9-6.7,5.26-10.64,6.3c-4.65,0.71-9.64,2.55-14.45,2.55
			C403.43,139.71,401.76,139.48,400.13,138.9z"/>
		<path d="M433.92,135.25c-0.44-10.96-0.88-21.55-3.74-32.12c-4.75-4.73,3.04-12.74,7.16-6.53c3.8,9.24,4.44,19.58,5.21,29.46
			c-0.16,4.32,2.42,11.84-3.56,13.03c-0.19,0.02-0.38,0.04-0.56,0.04C436.26,139.13,434.08,137.5,433.92,135.25z"/>
		<path d="M465.98,139.04c-9.87-4.73-34.06-4.12-25.61-21.15c2.55-5.81,6.66-11.26,7.21-17.74c-14.08,2.34-9.55,12.55-17.51,10.38
			c-4.89-2.24-1.95-7.78,0.37-10.91c5.34-6.39,22.16-14.21,25.76-2.56c2.01,9.78-5.35,18.13-8.51,26.82
			c6.88,3.23,14.89,3.55,21.8,6.86c4.75,2.09,2.61,8.68-1.67,8.68C467.24,139.43,466.62,139.31,465.98,139.04z"/>
		<path d="M469.66,137.16c-2.14-11.32-0.5-23.2-2.46-34.62c-6.26-6.5,4.04-15.36,7.85-6.01c2.75,10.6,2.08,21.77,2.67,32.62
			c5.79,3.2,0.65,10.99-4.01,10.99C472.18,140.14,470.69,139.3,469.66,137.16z"/>
		<path d="M469.29,106.17c-5.32-2.55-1.87-9.3,2.8-10.24c5.77-1.22,12.75-3.58,18.29-0.76c5.16,2.93,0.27,10.96-4.68,7.68
			c-3.65,0.32-7.4,0.57-10.9,1.68c-0.82,1.26-2.32,1.98-3.81,1.98C470.41,106.51,469.83,106.4,469.29,106.17z"/>
		<path d="M487.08,125.55c-1.91-0.81-2.89-2.74-2.69-4.68c-3.41,0.46-6.8,1.36-10.25,1.43c-5.87-0.07-5.88-8.94,0-9
			c5.62-0.14,11.41-2.97,16.95-1.33c5.76,2.17,3.46,13.91-2.29,13.91C488.26,125.89,487.68,125.78,487.08,125.55z"/>
		<path d="M472.44,139.42c-1.32-6.6,7.2-6.08,11.5-7.08c8.21-1.3,16.45-2.53,24.74-3.16c1.23-0.09,2.37,0.13,3.36,0.9
			c3.11,2.19,1.72,7.71-2.14,8.02c-5.3,0.38-10.56,1.08-15.82,1.82c-5.38,0.76-10.77,1.55-15.51,2.52
			c-0.53,0.18-1.09,0.26-1.64,0.26C474.94,142.69,473.01,141.55,472.44,139.42z"/>
		<path d="M224.47,162.36c1.39-1.03,3.2-1.18,4.69-0.48c10.62-0.79,21.32-3.23,31.96-1.43c5.8,0.87,4.62,9.65-1.22,8.92
			c-3.46-0.59-6.95-0.71-10.45-0.48c-7.47,0.46-14.89,1.81-22.37,2.04c-0.08,0-0.17,0.01-0.25,0.01
			C222.4,170.95,220.45,164.63,224.47,162.36z"/>
		<path d="M240.05,201.91c-1.37-4.29-0.61-8.96-0.86-13.41c0-7.3-0.57-14.59-1.13-21.86c0.14-6.15,9.4-5.71,9.02,0.44
			c0.95,11.55,1.39,23.39,1.27,34.84c-0.67,1.79-2.43,2.7-4.18,2.7C242.42,204.61,240.69,203.72,240.05,201.91z"/>
		<path d="M271.78,206.88c-18.38-3.55-5.13-50.99,10.3-42.88c2.69,0.05,4.23,2.81,6.46,4.01c3.07,2.03,6.28,4.08,8.27,7.27
			c4.25,7.27,3,17.07-1.16,24.12c-3.45,5.93-9.9,8.67-16.45,8.67C276.69,208.07,274.16,207.67,271.78,206.88z M271.88,191.04
			c-1.06,7,2.61,8.22,8.8,7.96c8.39-0.34,10.98-10.93,9.12-17.73c-1.38-3.34-5.12-4.74-7.79-6.88c-1.51,0.27-3.14-0.22-4.17-1.37
			C273.76,178.06,272.39,184.72,271.88,191.04z"/>
		<path d="M322.08,211.17c-1.3-1.91-0.77-4.36-0.96-6.53c-0.16-5.42-0.46-10.84-0.73-16.25c-0.27-5.4-0.53-10.8-0.78-16.21
			c-0.11-2.71-0.55-6.24,2.34-7.74c4.12-2.43,8.74,2.91,6.61,6.82c0.53,12.02,1.28,24.03,1.63,36.06c1.3,3.32-1.59,6.04-4.45,6.04
			C324.35,213.35,322.97,212.7,322.08,211.17z"/>
		<path d="M341.53,174.61c-1.64-0.22-2.95-1.33-3.54-2.77c-3.3,0.26-6.61,0.63-9.86,1.21c-8.18,4.55-11.36-8.67-0.66-9.03
			c5.29-0.41,11.16-2.46,16.24-0.34c4.52,2.3,3.95,10.98-1.54,10.98C341.96,174.65,341.75,174.63,341.53,174.61z"/>
		<path d="M324.4,211.98c-4.32-1.58-3.54-8.36,1.05-8.81c7.42,0.43,14.66-1.79,22.05-2.07c5.86,0.05,5.88,8.92,0,9
			c-3.43,0.17-6.82,0.83-10.23,1.29c-3.04,0.35-6.16,0.91-9.24,0.91C326.81,212.29,325.6,212.2,324.4,211.98z"/>
		<path d="M323.23,191.57c0-2.16,1.59-4,3.64-4.41c4.83-1.27,9.68-2.51,14.68-2.77c3.88-0.2,6,5.08,3.18,7.68
			c-2.42,2.11-6.05,1.2-8.96,2.16c-2.36,0.44-5.54,1.7-8.11,1.7C325.38,195.93,323.58,194.95,323.23,191.57z"/>
		<path d="M351.73,208.33c-0.49-9.75,3.12-19.22,5.47-28.57c1.81-5.89,3.68-13.26,9.64-16.22c14.54-5.13,16.36,15.04,19.46,24.56
			c1.01,3.86,1.64,7.8,2.39,11.72c0.85,3.54,3.69,8.51-0.98,10.57c-7.75,2.38-7.66-10.05-8.97-14.93c-0.65-3.09-1.43-6.14-2.3-9.18
			c-1.61-4.72-2.03-10.12-4.94-14.27c-0.15-0.12-0.3-0.24-0.45-0.35c0,0-0.01,0-0.02,0v0.01c-0.59-0.11-1.01,0.48-1.35,0.89
			c0.07-0.08,0.14-0.16,0.22-0.25c0.02-0.02,0.03-0.04,0.16-0.18c-3.32,4.8-4.22,10.73-5.9,16.21c-1.48,6.15-3.6,12.41-3.52,18.77
			c0.4,3.21-2.1,5.03-4.56,5.03C354.09,212.14,352.12,210.94,351.73,208.33z"/>
		<path d="M352.46,194.18c-0.91-7.49,13.27-5.52,18.17-6.68c4.61-0.43,9.2-0.96,13.77-1.69c2.42-0.39,4.75,1.46,5.07,3.85
			c0.34,2.47-1.43,4.68-3.85,5.07c-4.57,0.73-9.16,1.26-13.77,1.69c-4.78,0.49-9.59,0.73-14.32,1.61c-0.24,0.05-0.48,0.07-0.72,0.07
			C354.69,198.1,352.73,196.27,352.46,194.18z"/>
		<path d="M420.38,173.95c-6.71-2.47-13.68-2.14-20.65-1.8c-3.78,0.18-7.56,0.36-11.3,0.1c-5.34-0.31-6.51-7.73-1.23-9.21
			c1.12-0.36,2.31-0.18,3.3,0.37c2.83,0.02,5.68-0.11,8.54-0.23c8.01-0.35,16.03-0.7,23.74,2.1c5.18,1.52,3.6,8.86-1.08,8.86
			C421.28,174.13,420.84,174.07,420.38,173.95z"/>
		<path d="M397.54,206.74c0.17-8.55,0.81-17.11,0-25.66c-0.07-3.44-1.08-6.8-1.15-10.19c0.82-5.33,8.45-4.98,9.03,0.34
			c2.03,11.74,1.48,23.68,1.12,35.52c-0.02,2.45-2.03,4.5-4.5,4.5C399.6,211.24,397.52,209.19,397.54,206.74z"/>
		<path d="M435.16,194.43c-0.12-9.98,0.32-21.05-0.02-30.75c-0.95-3.54,0.43-8.05,4.84-7.54c4.04,0.53,4.16,5.05,4.18,8.26
			c0.3,10-0.12,20.02,0,30.03c-0.03,2.93-2.27,4.4-4.51,4.4C437.43,198.84,435.2,197.37,435.16,194.43z"/>
		<path d="M433.99,220.97c-5.45-4.18-1.25-14.82,5.77-10.64c6.44,2.73,2.7,11.67-2.66,11.67C436.11,222,435.05,221.69,433.99,220.97
			z"/>
		<path d="M461.81,244.89c-16.97-0.65-33.88-2.09-50.88-2.04c-12.48-0.43-24.79-2.82-37.24-3.63c-17.57-0.62-35.1-2.66-52.58-4.23
			c-24.07-0.33-48.09-2.19-72.16-2.14c-14.58,0.16-29.13-0.49-43.7-0.89c-23.56-0.9-50.35,1.93-70.87-11.65
			c-5.3-5.41-4.55-13.72-5.58-20.7c-2.54-18.76-4.25-37.5-4.05-56.45c-0.46-25.72-3.66-51.26-3.82-76.99
			c-4.11-2.04-2.66-7.75-2.06-11.4c0.95-4.66,4.79-7.45,9.52-6.75c32.9-4.63,66.24-0.59,99.41-0.86
			c38.63-0.81,77.24,0.86,115.86-0.06c42.73,1.81,85.38,4.73,128.19,3.86c17.06-0.39,34.05,1.47,51.1,1
			c8.93-0.47,22.41,0.25,22.46,12.03c1.37,11.27,1.41,22.64,1.99,33.96c1,30.26-2.11,60.48,0.57,90.72
			c-0.96,14.91,7.14,37.66-6.76,47.51C516.4,246.54,488.2,244.12,461.81,244.89z M472.46,235.81c21.3-0.42,43.67,0.3,63.88-7.2
			c7.69-6.39,2.02-26.66,2.75-35.99c-2.68-31.76,0.17-62.95-0.7-94.66c-0.59-11.63-0.58-23.34-2.19-34.89
			c-5.18-4.08-14.06-1.35-20.49-2.04c-37.06-1.9-74.6-0.1-111.59-2.02c-48.38-3.68-96.82-2.31-145.27-3.19
			c-29.42,0.84-58.8-0.15-88.2-0.96c-8.46-0.01-16.94-0.22-25.4,0.04c-5.87,1.02-11.64,2.43-17.66,2.12
			c-0.05,0.19-0.11,0.39-0.15,0.59c0,0.01,0,0.02,0,0.02c4,2.47,1.92,7.89,2.6,11.78c0.18,8.52,0.32,17.03,0.91,25.54
			c3.94,39.08,1.43,78.67,8.73,117.41c14.88,12.67,46.53,9.65,65.52,10.59c19.33,0.72,38.65,0.99,58,0.95
			c19.27,0.92,38.55,1.61,57.84,2.08c19.86,1.97,39.73,3.53,59.66,4.8c16.37,2.09,32.77,3.68,49.3,3.44
			C444.19,234.58,458.25,236.49,472.46,235.81z"/>
		<path d="M120.72,63.75c0.45-4.3-0.06-11.93,5.37-13.02c2.73-0.45,5.4,1.65,5.38,4.46c0.06,1.23-0.59,2.2-1.18,3.13
			c-0.14,1.82-0.53,3.63-0.56,5.43C129.59,69.65,120.87,69.66,120.72,63.75z"/>
	</g>
</g>
</svg>
