<?xml version="1.0" encoding="utf-8"?>
<!-- Generator: Adobe Illustrator 27.0.1, SVG Export Plug-In . SVG Version: 6.00 Build 0)  -->
<svg version="1.1" xmlns="http://www.w3.org/2000/svg" xmlns:xlink="http://www.w3.org/1999/xlink" x="0px" y="0px"
	 viewBox="0 0 495.48 461.59" style="enable-background:new 0 0 495.48 461.59;" xml:space="preserve">
<style type="text/css">
	.st0{fill:#FFFFFF;}
	.st1{display:none;}
	.st2{display:inline;}
	.st3{fill:#C3340F;}
	.st4{fill:#F1DA48;}
	.st5{fill:#BFBFBF;}
	.st6{fill:#A93C13;}
	.st7{fill:#49AB80;}
	.st8{fill:#FFF5D3;}
	.st9{fill:#FFF6D3;}
</style>
<g id="Vector_layer_00000055693094104202961020000012611521480546505380_">
</g>
<g id="Vector_layer_00000083056692401482731750000002143268079692121760_" class="st1">
</g>
<g id="Layer_group_00000135655894010939323910000007968388131483226006_">
	<g id="Vector_layer_00000060727446154750124540000003288795569096013724_">
	</g>
	<g id="Vector_layer_00000054256212561802303770000002573030991383270322_">
	</g>
</g>
<g id="Layer_group_00000005956713645723523280000017174557720518139319_">
	<g id="Vector_layer_00000118373964828183826810000003105501113294047875_">
	</g>
	<g id="Vector_layer_00000114792692480223708070000006081800964882002587_">
	</g>
</g>
<g id="Layer_group_00000096753676060204885020000003690522438842904248_">
	<g id="Vector_layer_00000021805737131568542680000011445392356473190274_">
		<path class="st6" d="M281.1,311.09c-26.36-1.26-51.7-1.17-77.9-2.71c-8.91-0.71-20.57,2.44-26.5-6.15
			c-15.78-2.86-31.96-3.25-47.59-6.89c-11.85-3.31-23.05-8.6-35.05-11.53c-12.17-5.53-38.25-12.01-39-27.65
			c-1.24-2-3.2-2.94-5.12-4.2c-9.23-5.78-11.96-19.91-3.92-27.76c-2.13-7.27,0.2-15.52,5.13-21.13c-4.6-11.93,2.55-23.67,12.61-30
			c12-8.11,26.11-15.85,41.07-14.4c27.62-6.7,56.17-8.83,84.67-6.65c11.44,0.97,23.4,1.61,34.22,5.58c14.17-2.88,29-0.73,43.42-0.28
			c27.94,3.03,55.68,7.78,83.87,8.93c12.01-5.59,25.59,2.13,38.2,1.8c10.04-0.63,18.48,4.71,27.87,7.22
			c10.48,2.49,16.61,10.99,21.91,19.58c4.27,7.49,3.92,16.28,3.82,24.61c2.68,7.17,2.15,14.66,4.78,21.83
			c2.27,7.97-2.05,15.15-3.86,22.65c0.91,9.56-6.93,19-16.96,17.43c-7.95,4.38-17.22,6.4-24.41,11.99
			c-12.39,5.36-26.43,5.94-39.69,7.79c-12.38,1.24-24.23,3.69-35.86,7.52c-9.89,1.68-19.97,0.95-29.89,0.34
			C292.4,312.35,286.38,311.41,281.1,311.09z"/>
	</g>
	<g id="Vector_layer_00000082341159556701053130000003376809865345571507_">
		<path d="M104.39,299.05c-39.11-10.22-75.29-39.94-63.62-84.14c0.84-5.36-2.46-12.94,2.77-16.57
			c4.85-39.56,51.51-49.89,84.97-50.76c36.57-2.36,73.34-0.31,109.93,0.95c31.96,0.38,63.64,3.91,95.46,6.36
			c33.99,1.94,72.37-3.67,101.02,18.75c23.18,17.34,20.75,49.99,20.9,76c-7.78,72.39-153.3,68.58-208.55,70.23
			C199.06,318.26,150.88,312.06,104.39,299.05z M63.76,181.4c-11.42,11.38-5.47,20.18-11.21,24.87c1.18,9.71-1.96,19.08-2.16,28.68
			c3.86,35.93,42.47,49.84,73,56.94c44.97,10.12,90.98,16.42,137.15,16.11c47.59-2.31,139.08-1.35,172.73-36.88
			c16.69-17.14,10.44-42.89,8.14-64.24c-3.71-29.66-39.43-38.46-64.5-39.02c-30.34-0.53-60.63-1.48-90.78-5.3
			c-36.26-2.13-72.57-3.18-108.88-4.05c-7.35,0.33-15.18,0.29-23.23,0.26c-2.41-0.01-4.85-0.02-7.3-0.02
			C116.52,158.75,84.42,160.23,63.76,181.4z"/>
		<path d="M471.22,246.22c-5.49-7.66-24.16-12.64-23.14-21.94c-0.41-0.82-0.65-1.71-0.65-2.69c0-0.39,0.04-0.78,0.1-1.17
			c-3.41-10.22,18.69-19.04,26.36-21.93c6.23-1.99,11.03,5.87,6.27,10.43c-3.98,3.87-8.85,6.71-13.43,9.8
			c5.01,1.31,11.6-0.63,15.45,3.42c4.49,6.64-3.49,11.03-9.49,9.65c12.56,7.81,9.08,16.06,3.15,16.06
			C474.39,247.85,472.78,247.35,471.22,246.22z"/>
		<path d="M20.94,244.99c-2.6-2.01-3-5.73-1.07-8.34c2.85-3.85,5.97-7.46,9.15-11.02c-6.29,0.93-16.73-2.46-11.7-10.36
			c3.7-3.8,9.73-3.93,14.59-5.34c-1.98-1.48-4.14-2.73-6-4.34c-4.36-3.98,0.16-11.76,5.78-9.93c6.64,4.02,13.51,8.11,19.31,13.34
			c-0.07-0.06-0.14-0.12-0.21-0.18c-0.07-0.05-0.15-0.1-0.22-0.15c2.49,1.79,3.41,5.16,1.81,7.91c-0.84,1.43-2.27,2.41-3.84,2.79
			c-1.94,6.37-8.13,10.6-12.13,15.74c-3.62,3.27-6.82,11.12-11.88,11.12C23.43,246.24,22.24,245.87,20.94,244.99z"/>
		<path d="M164.67,252.92c-0.07-9.3,0.42-18.61,0.2-27.91c0.59-4.55-1.87-10.16,1.46-13.91c16-9.5,9.07,24.21,10.34,32.05
			c-0.06,3.25-0.24,6.52-0.11,9.76c0.06,3.84-2.93,5.77-5.92,5.77C167.65,258.69,164.66,256.77,164.67,252.92z"/>
		<path d="M201,255.85c-3.31-9.54-3.98-19.92-8.22-29.18c-2.67,6.04-11.68,10.91-16.76,4.99c-3.48-5.33-12.43-10.09-10.52-17.17
			c5.46-9.41,12.9,1.59,16.85,6.49c3.02-10.59,10.87-16.07,18.15-5c6.89,10.57,7.98,23.42,11.45,35.24
			c1.96,4.58-2.01,8.18-5.84,8.18C204.05,259.4,202.03,258.35,201,255.85z"/>
		<path d="M218.78,250.26c-1.47-7.99-0.97-16.41-4.03-24.08c-7.51-3.37-3.14-17.24,5.19-12.8c6.91,2.29,15.59,40.13,6.16,41.04
			c-0.49,0.14-1,0.2-1.51,0.2C221.99,254.61,219.41,252.9,218.78,250.26z"/>
		<path d="M212.65,222.25c-0.21-1.57,0.22-3.19,1.18-4.44c0.78-1,1.78-1.62,2.92-2c0.18-0.05,0.35-0.1,0.53-0.15
			c0.12-0.03,0.25-0.06,0.37-0.09c-0.08,0.02-0.16,0.03-0.24,0.05c6.45-1.85,13.31-3.19,20.01-2.74c8.53,1.47,5.17,14.02-3,11.68
			c-2.32-0.25-5.21,0.53-8.13,1.31c-2.55,0.68-5.12,1.36-7.36,1.36C216,227.23,213.65,226.07,212.65,222.25z"/>
		<path d="M216.99,215.71c0.14-0.03,0.29-0.06,0.43-0.09c-0.04,0.01-0.09,0.03-0.13,0.04c-0.18,0.05-0.35,0.1-0.53,0.15
			c-0.15,0.04-0.31,0.09-0.46,0.14C216.52,215.87,216.75,215.79,216.99,215.71z"/>
		<path d="M220.21,235.05c0-3.24,2.7-5.94,5.94-5.94c1.17,0.07,2.55,0.02,3.99-0.04c5.34-0.2,11.56-0.41,11.91,6.01
			c0,3.17-2.71,6.05-5.94,5.94c-1.29-0.13-2.81-0.07-4.4-0.01c-0.89,0.03-1.81,0.07-2.71,0.07
			C224.61,241.07,220.49,240.31,220.21,235.05z"/>
		<path d="M231.32,261.79c-8.91,0.67-12.85-2.99-13.42-6.65c-0.69-4.44,3.54-8.87,9.84-5.6c3.32,0.81,6.84,0.61,10.34,0.42
			c4.23-0.23,8.44-0.46,12.19,1.09c7.16,9.39-2.87,11.11-11.47,11.11C235.91,262.15,233.17,261.95,231.32,261.79z"/>
		<path d="M248.2,253.41c1.76-12.35,9.79-22.96,13.49-34.79c5.91-20.98,17.95,0.82,21.79,10.4c2.47,8.31,13.42,14.45,12.69,22.97
			c-7.94,15.84-22.11-16.28-25.85-22.78c-3.25,8.12-7.71,15.83-10.22,24.2c0.03,3.85-2.96,5.77-5.95,5.77
			C251.16,259.18,248.17,257.26,248.2,253.41z"/>
		<path d="M256.31,245.41c-6.5-15.05,20.78-10.17,28.95-12.62c7.61-1.07,9.26,10.83,1.61,11.78c-7.45,0.89-14.97,1.12-22.4,2.21
			c-0.96,0.7-2.11,1.03-3.27,1.03C259.33,247.8,257.44,246.95,256.31,245.41z"/>
		<path d="M285.01,222.89c0.14-3.38,3.07-6.77,8.65-6.58c7.13-0.75,14.27-1.48,21.36-2.56c5.37-0.57,14.45-3.99,15.89,3.79
			c0.42,3.11-1.86,6.38-5.08,6.7c-9.4,1.24-18.76,2.8-28.22,3.58c-1.07,1.07-2.54,1.74-4.08,1.63c-0.3,0.02-0.59,0.03-0.87,0.03
			C287.38,229.48,284.87,226.18,285.01,222.89z"/>
		<path d="M307.8,257.27c-2.6-11.72-1.9-24.11-6.09-35.42c0-3.24,2.71-5.94,5.94-5.95c8.62,0.99,7.68,12.98,9.27,19.45
			c0.91,6.23,0.91,12.61,2.34,18.76c1.26,4.45-2.44,7.39-6.02,7.39C310.9,261.51,308.6,260.24,307.8,257.27z"/>
	</g>
</g>
<g id="Layer_group_00000000196813977188246800000001010744972638326171_">
	<g id="Vector_layer_00000159443569616288308350000001272240939845332411_">
	</g>
	<g id="Vector_layer_00000010310034796367468450000008345494598285716128_">
	</g>
	<g id="Vector_layer_00000022532893442924655960000004476625282564101004_">
	</g>
	<g id="Vector_layer_00000116938941117521812450000007244229505113456513_">
	</g>
	<g id="Vector_layer_00000142881445914887737530000018275663708537143743_">
	</g>
</g>
<g id="Layer_group_00000086664090508187033660000015622036831865322421_">
	<g id="Vector_layer_00000133507980477791719550000014485879647521063059_">
	</g>
	<g id="Vector_layer_00000092425111748449878830000004048094310013317519_">
	</g>
</g>
</svg>
