<?xml version="1.0" encoding="utf-8"?>
<!-- Generator: Adobe Illustrator 27.0.1, SVG Export Plug-In . SVG Version: 6.00 Build 0)  -->
<svg version="1.1" xmlns="http://www.w3.org/2000/svg" xmlns:xlink="http://www.w3.org/1999/xlink" x="0px" y="0px"
	 viewBox="0 0 382.76 461.59" style="enable-background:new 0 0 382.76 461.59;" xml:space="preserve">
<style type="text/css">
	.st0{fill:#FFFFFF;}
	.st1{display:none;}
	.st2{display:inline;}
	.st3{fill:#C3340F;}
	.st4{fill:#F1DA48;}
	.st5{fill:#BFBFBF;}
	.st6{fill:#A93C13;}
	.st7{fill:#49AB80;}
	.st8{fill:#FFF5D3;}
	.st9{fill:#FFF6D3;}
</style>
<g id="Vector_layer_00000055693094104202961020000012611521480546505380_">
</g>
<g id="Vector_layer_00000083056692401482731750000002143268079692121760_" class="st1">
</g>
<g id="Layer_group_00000135655894010939323910000007968388131483226006_">
	<g id="Vector_layer_00000060727446154750124540000003288795569096013724_">
	</g>
	<g id="Vector_layer_00000054256212561802303770000002573030991383270322_">
	</g>
</g>
<g id="Layer_group_00000005956713645723523280000017174557720518139319_">
	<g id="Vector_layer_00000118373964828183826810000003105501113294047875_">
		<path class="st4" d="M191.61,379.87c-28.91-2.75-59.33,0.24-86.2-12.9c-8.29-3.74-18.66-5.15-23.08-14.07
			c-3.87-7.48-2.38-17.1-2.49-25.29c1.38-8.38-0.7-16.87,0.89-25.28c-3.21-15.3-4.38-30.92-5.66-46.47
			c-2.39-4.29-2.39-9.46-2.95-14.23c-2.5-20.91-4.96-41.84-7.27-62.76c-1.38-10.71-7.14-22.57,1.22-31.86
			c4.8-5.8,13.2-7.84,20.24-5.47c5.15,2,7.92,3.93,12.55,5.43c10.44,0.56,20.62,3.13,31.05,3.97c18.27,5.51,36.62,3.51,55.04,1.87
			c22.2-1.4,39.49-3.2,60.64-1.93c11.86,1.15,23.82,2.6,35.74,1.61c13.61-13.44,37.4,1.76,30.72,19.74
			c-1.55,4.54-4.97,7.62-7.94,11.2c-0.29,9.64-0.38,19.4,0.51,29.02c5.57,29.87,7.52,60.18,6.19,90.49
			c0.48,13.6,3.81,27.03,3.85,40.61c-0.14,10.15-7.06,15.32-14.67,20.58c-7.65,6.02-19.27,7.23-27.77,9.02
			c-13.02,4.12-26.84,4.52-40.21,7.05C218.57,380.64,204.97,381.43,191.61,379.87z"/>
		<path class="st5" d="M131.72,148.71c-19.18-7.08-15.43-34.29,4.08-37.74c21.12-2.56,43.99-4.84,65.38-6.24
			c34.97,1.3,26.79,50.65-4.51,38.54c-9.43,7.41-22.35,3.04-33.37,3.45c-5.42,1.28-11.04,0.84-16.55,0.98
			C141.98,149.48,136.72,150.7,131.72,148.71z"/>
		<path class="st5" d="M195.53,150.2c-6.23-0.01-12.46-0.09-18.69-0.08c-3.12,0.45-6.72-0.43-6.01-4.33
			c-10.27-0.63-20.54-1.24-30.82-1.78c-1.57,3.28-5.71,2.05-8.57,1.73c-3.89-0.55-7.74-1.27-11.58-2.07
			c-4.93-1.17-10.06-1.34-15.06-2.33c-1.92-0.49-4.28-0.23-5.82-1.62c-4.96-0.31-9.92-0.59-14.87-1.1
			c-3.45-0.59-9.38-0.22-10.25-4.55c-1.42-0.06-2.85-0.15-4.25-0.35c-2.37-0.39-4.08-3.11-2.92-5.33c0.49-1,1.37-1.6,2.42-1.89
			c2.77-0.66,5.63-0.96,8.43-1.47c0.45-1.95,2.45-2.72,4.22-3.08c2.81-0.69,5.63-1.33,8.46-1.96c5.87-1.49,35.51-5.84,38.61-1.03
			c1.22,0.06,2.44,0.21,3.61,0.57c2.91,0.89,3.21,5.24,0.43,6.49c1.37,0.39,2.64,1.21,3.24,2.54c3.68,0.84,5.62,6.08,1.5,7.74
			c-1.46,0.52-2.95,0.01-3.87-1.09c-4.9-0.93-9.95-0.48-14.9-0.2c3.68,1.08,7.55,1.26,11.36,1.42c9.62,0.46,19.25,1.01,28.87,1.57
			c1.16-0.99,2.75-1.07,4.21-1.17c2.97-0.18,5.93-0.31,8.9-0.41c11.8-0.47,23.55,0.7,35.3,1.58c-0.99-4.81,4.88-4.69,8.11-4.9
			c-1.79-1.59-1.19-4.63,0.72-5.94c1.26-0.86,2.77-1.2,4.22-1.61c-0.08-0.01-0.16-0.02-0.24-0.03c-0.85-0.12-1.57-0.61-2.08-1.27
			c-3.18-0.72-8.54-2.87-6.47-7c-1.46-2.01-0.39-5.12,2.11-5.62c4.83-0.7,9.75,1.03,14.53,1.67c9.24,0.69,18.32,2.83,27.38,4.68
			c8.94,1.82,17.95,3.29,26.86,5.23c3.92,1.38,15.24,1.54,13.47,7.66c1.99,1.45,3.37,3.44,5.53,4.62c1.43,1.25,1.91,3.41,0.83,5.04
			c-1.65,2.38-4.96,2.15-7.5,1.89c-0.58,0.55-1.33,0.87-2.12,1.09c0.15,3.83-3.99,4.15-6.88,4.08c-6.39,0.18-12.79,0.42-19.18,0.54
			c-2.75,1.37-6.22,0.39-9.19,0.7c-14.29,0.55-28.56,0.78-42.86,0.41C208.4,150.37,201.94,150.16,195.53,150.2z"/>
	</g>
	<g id="Vector_layer_00000114792692480223708070000006081800964882002587_">
		<path d="M68.58,351.13c-3.25-47.81-7.82-95.6-9.42-143.57c-2.06-18.49-3.55-37-3.53-55.61c0.35-6.85-1.89-14.36,0.92-20.81
			c4.72-8.3,17.77-1.66,14.35,7.08c-0.11,27.63,2.92,55,4.6,82.53c1.19,21.25,1.5,42.55,3.75,63.72
			c2.16,21.48,3.39,43.03,4.87,64.53C85.62,358.94,70,361.28,68.58,351.13z"/>
		<path d="M307.53,349.89c-0.5-71.6-4.39-143.21-7.24-214.7c1.4-11.37,18.64-7.96,15.63,3.12c3.47,45.55,2.25,91.34,6.1,136.87
			c1.16,24.24,0.54,48.59,1.06,72.85C324.31,357.88,308.61,359.84,307.53,349.89z"/>
		<path d="M191.79,391.73c-23.2-0.9-46.48-3.67-69.37-7.39c-14.44-4.41-31.01-4.84-41.8-16.73c-6.75-5.37-21.57-17.22-7.61-23.4
			c11.52-2.17,15.03,19.6,42.02,21.97c34.67,8.44,71.01,10.77,106.66,9.82c26.69-3.49,52.75-10.44,78.53-17.99
			c5.76-2.09,11.2-4.88,16.64-7.68c9.33-3.94,15.53,10.3,6.08,14.44c-22.88,12.25-49,16.63-74.08,22.36
			C230.18,392,210.98,392.55,191.79,391.73z"/>
		<path d="M193.72,163.81c-41.37-1.33-83.55-3.42-122.68-17.3c-26.98-11.88-15.18-33.74,9.52-36.9
			c58.83-9.75,120.47-15.39,178.96-0.98c16.84,4.81,44.33,1.68,51.61,21.11c11.69,9.5-7.19,19.29-14.65,23.88
			C264.74,168.28,227.76,163.49,193.72,163.81z M190.13,148.07c31.35-0.61,81,6.15,106.61-13.27c-8.78-8.31-22.88-6.51-33.88-9.61
			c-25.54-5.91-51.36-10.23-77.59-9.36c-22.19-0.28-44.28,1.62-66.33,3.92c-15.63,2.25-32.42,2.57-46.92,9.2
			c11.11,7.53,25.08,9.38,38.08,11.34C136.5,145.3,163.52,147.76,190.13,148.07z"/>
		<path d="M110.14,284.64c-10.58-1.33-23.6-7.99-24.34-19.88c-0.42-10.23,0.89-21.6,8.2-29.37c15.32-16.34,29.96,12.31,10.15,12.39
			c-4.31,10.03-5.54,20.21,8.12,21.33C122.4,270.55,120.27,285.88,110.14,284.64z"/>
		<path d="M150.68,281.92c-38.76,0.08-17.22-63.17,1.99-42.18c7.15-2.95,14.16,4.37,19.04,8.88
			C188.34,266.34,170.87,283.52,150.68,281.92z M153.85,266.24c3.05-0.37,6.48-0.71,8.76-2.99c-1.74-4.92-6.56-7.68-10.9-10.06
			c-1.03,0.79-2.27,1.34-3.65,1.53c-0.75,0.1-1.5,0.09-2.22-0.03C142.56,262.32,145.09,267.39,153.85,266.24z"/>
		<path d="M201.46,278.56c-8.17-6.05-13.13-18.21-11.82-28.27c-6.23-6.04-0.38-17.35,8.17-13.9c15.91-15.98,40.17-1.38,23.75,18.22
			c5.44,0.99,10.92,1.88,16.08,3.97c9.38,3.84,3.23,18.44-6.1,14.44c-5.8-2.29-12.16-2.47-18.1-4.29
			C215.3,275.58,207.84,282.31,201.46,278.56z"/>
		<path d="M246.55,272.92c-3.57-7.87-4.03-16.86-8.07-24.6c-9.39-5.75,0.79-19.74,9.32-13.06c7.05,6,12.59,26.65,13.06,35.79
			C259.37,277.51,249.62,278.89,246.55,272.92z"/>
		<path d="M267.92,269.85c-6.88-4.2-12.69-9.93-18.65-15.31c-4.5-4.07-10.89-9.28-6.16-15.57c9.2-10.91,21.82,11.69,30.68,15.95
			c0.07-7.02-4.5-18.5,5.62-20.3c8.59-1.02,9.46,8.44,9.72,14.79C291.94,264.01,284.27,281.27,267.92,269.85z"/>
		<path d="M216.78,147.52c-10.73-1.57-23.1-1.72-32.05-8.43c-7.07-8.12,1.69-15.36,10.26-15.23c14.5-1.13,30.45-1.67,44.6-0.36
			c7.24,1.79,18.29-3.09,22.37,5.02c7.53-1.98,13.25,7.82,7.6,13.24c-1.56,1.56-3.53,2.19-5.66,2.3c-7.68,0.55-15.35,1.4-22.98,2.44
			C232.94,147.66,224.84,148.23,216.78,147.52z"/>
	</g>
</g>
<g id="Layer_group_00000096753676060204885020000003690522438842904248_">
	<g id="Vector_layer_00000021805737131568542680000011445392356473190274_">
	</g>
	<g id="Vector_layer_00000082341159556701053130000003376809865345571507_">
	</g>
</g>
<g id="Layer_group_00000000196813977188246800000001010744972638326171_">
	<g id="Vector_layer_00000159443569616288308350000001272240939845332411_">
	</g>
	<g id="Vector_layer_00000010310034796367468450000008345494598285716128_">
	</g>
	<g id="Vector_layer_00000022532893442924655960000004476625282564101004_">
	</g>
	<g id="Vector_layer_00000116938941117521812450000007244229505113456513_">
	</g>
	<g id="Vector_layer_00000142881445914887737530000018275663708537143743_">
	</g>
</g>
<g id="Layer_group_00000086664090508187033660000015622036831865322421_">
	<g id="Vector_layer_00000133507980477791719550000014485879647521063059_">
	</g>
	<g id="Vector_layer_00000092425111748449878830000004048094310013317519_">
	</g>
</g>
</svg>
