<?xml version="1.0" encoding="utf-8"?>
<!-- Generator: Adobe Illustrator 27.0.1, SVG Export Plug-In . SVG Version: 6.00 Build 0)  -->
<svg version="1.1" xmlns="http://www.w3.org/2000/svg" xmlns:xlink="http://www.w3.org/1999/xlink" x="0px" y="0px"
	 viewBox="0 0 382.76 461.59" style="enable-background:new 0 0 382.76 461.59;" xml:space="preserve">
<style type="text/css">
	.st0{fill:#FFFFFF;}
	.st1{display:none;}
	.st2{display:inline;}
	.st3{fill:#C3340F;}
	.st4{fill:#F1DA48;}
	.st5{fill:#BFBFBF;}
	.st6{fill:#A93C13;}
	.st7{fill:#49AB80;}
	.st8{fill:#FFF5D3;}
	.st9{fill:#FFF6D3;}
</style>
<g id="Vector_layer_00000055693094104202961020000012611521480546505380_">
</g>
<g id="Vector_layer_00000083056692401482731750000002143268079692121760_" class="st1">
</g>
<g id="Layer_group_00000135655894010939323910000007968388131483226006_">
	<g id="Vector_layer_00000060727446154750124540000003288795569096013724_">
		<path class="st3" d="M159.66,167.61c-3.43-2.05-2.47-6.14,1.04-7.44c-0.03-0.07-0.06-0.14-0.08-0.21
			c-0.33-0.93-0.22-1.94,0.21-2.78c-1.6-1.72-0.79-4.86,1.47-5.6c3.68-1.21,7.52-1.98,11.29-2.84c6.17-1.26,37.76-8.18,39.28-0.37
			c2.58,0.26,5.28,0.17,7.71,1.11c2.92,1.36,2.4,6.13-0.81,6.68c-0.87,0.14-1.75,0.24-2.62,0.32c2.56,0.62,5.27,1.8,5.02,4.76
			c-0.12,1.45-0.99,2.53-2.31,3.08c-7.67,1.4-15.6,0.73-23.37,1.28c-7.43,0.31-14.85,1-22.26,1.65
			C169.43,167.38,164.33,169.02,159.66,167.61z"/>
		<path class="st3" d="M255.64,399.9c-0.34-0.23-0.67-0.48-0.98-0.74c-10.29,1.81-20.94,0.31-31.49,1.08
			c-8.47,0.67-16.94,1.83-25.53,0.64c-10.92-1.35-23.68-0.96-32.4-8.61c-10.78-3.52-23.61-5.65-31.32-14.75
			c-6.97-9.4-15.14-31.19-5.78-40.83c-0.48-4.99-1.7-9.92-1.69-14.95c0.7-9.19,12.62-10.65,16.65-2.85
			c3.48-0.44,6.79,1.34,10.19,1.82c6.13,0.2,12.24,0.33,18.29,1.51c11.59,0.92,22.87,4.16,34.59,3.64
			c14.06-2.33,28.09-0.37,42.19-0.99c6.64-1.35,13.7-3.77,18.19-9.11c1.25-1.87,2.19-3.46,4.26-4.49
			c7.23-3.72,14.28,3.91,12.26,11.12c-1.96,7.16-3.72,14.17-2.94,21.71c5.82,4.49,2.74,13.01,1.92,19.15
			c-1.48,4.42-0.92,9.45-2.89,13.63c-0.49,7.07,0.37,15.42-5.59,20.52C268.86,401.56,261.2,403.45,255.64,399.9z"/>
		<path class="st3" d="M183.91,202.39c-11.74-0.21-23.27-2.69-35.02-2.67c-10.81-0.39-25.02,4.03-33.53-4.39
			c-2.16-2.76-1.82-8.4-1.84-11.08c-0.18-6.44,0.33-13.39-0.58-19.7c-1.56-9.46-1.53-19.06-2.8-28.55
			c-0.8-5.44-3.63-11.65,0.55-16.4c3.37-3.93,9.04-3.82,13.13-1.1c7.13-1.43,14.33,0.3,21.42-0.35c10.75-0.84,25.93-5.88,34.87,1.82
			c9.42-0.75,18.8-1.81,28.25-2.06c1.31-4.9,6.51-6.5,11.05-7c7.52-1.37,15.23-2.23,22.86-2.25c7.76-1.17,17.65-4.31,19.24,6.67
			c0.66,11.4,5.32,22.14,5.55,33.63c1.67,9.38,8.41,32.15-5.4,34.43c-2.92,3.54-7.91,2.87-11.76,4.6
			c-8.21,4.21-16.6,8.09-25.91,8.98C210.71,199.51,197.62,204.42,183.91,202.39z M183.77,160.27c0.23,0.06,0.46,0.12,0.69,0.19
			c1.18-1.45,2.66-2.72,4-3.97c0.54-0.5,1.07-1,1.61-1.5c-7.49,0.46-14.97,1.34-22.47,1.34c-0.17,0.21-0.36,0.42-0.55,0.62
			c-0.81,0.84-1.71,1.57-2.65,2.26c4.71-1.94,11.03-3.47,14.69,1.15C180.64,160.01,182.22,159.88,183.77,160.27z"/>
		<path class="st4" d="M172.87,286.07c-2.08-1.39-3.16-3.42-3.82-5.76c-1.02-3.62,0.88-7.37,3.07-10.15
			c-7.8-14.34,13.4-33.92,27.51-26.84c10.04-0.98,30.22-8.12,37.8-0.59c4.65,5.14,1.43,12.99-4.58,15.31
			c-5.53,2.65-11.23,4.97-16.98,7.09c-7.67,7.55-17.14,15.2-28.29,15.98C184.87,286.48,178.24,289.72,172.87,286.07z"/>
		<path d="M100.21,112.49c-8.14-0.8-10.31-12.57-2.9-16.15c3.64-1.64,7.76-2.05,11.6-3.13c2.58-6.05,9.54-4.95,14.91-5.22
			c2.8-2.49,6.72-2.25,10.22-2.57c11.67-1.11,23.36-1.83,35.04-2.73c17.37-1.23,34.99-3.27,52.19-1.16
			c14.28,0.15,29.19-0.58,43.03,3.24c4.89,2.02,7.14,8.39,4.02,12.82c-7.11,9.05-32.27,4.02-43.96,6.68
			c-9.55,3.34-20.24,2.76-30.23,4.2c-8.16-0.12-26.38,5-31.93-0.91c-17.54,0.7-35.4,5.78-52.86,3.06
			C106.22,111.15,103.49,113.22,100.21,112.49z"/>
	</g>
	<g id="Vector_layer_00000054256212561802303770000002573030991383270322_">
		<path d="M232.71,415.09c-28.43-1.01-58.13-0.2-84.05-13.63c-10.68-6.1-23.1-11.83-28.33-23.72c-12.54-26.56-5.14-56.32-7.43-84.49
			c-0.91-19.52-4.24-38.63-7.11-57.89c-0.84-18.77-2.6-37.46-3.78-56.21c-1.69-21.59-5.37-43.04-4.73-64.77
			c0-3.91,3.02-7.22,6.81-7.7c2.55-2.83,6.44-2.86,9.74-1.54c9.69,2.09,19.63,0.68,29.44,0.73c23.95,0.03,47.98-0.95,71.83-3.03
			c15.11-2.79,31.27-2.73,45.1-9.89c13.69-2.14,11.68,16.02,13.26,24.86c2.71,10.97,2.61,22.19,4.01,33.33
			c2.59,25.39,9.18,50.15,10.35,75.72c4.42,41.3,7.92,82.72,5.54,124.26C290.76,405.06,290.33,414.53,232.71,415.09z M229.83,399.56
			c8.9-0.18,37.94,0.2,42.71-7.06c6.32-19.94,4.78-41.31,5.93-61.96c0.78-46.44-4.33-91.99-10.2-137.83
			c-6.12-26.82-6.8-54.44-11.09-81.54c-24.97,6.26-50.81,8.72-76.51,9.11c-22.44,1.1-45.49,2.53-67.86,0.42
			c1.33,36.56,7.04,72.88,8.12,109.49c2.61,21.58,6.84,42.9,7.58,64.73c2.21,25.53-5.03,52.51,6.05,76.68
			c6.35,10.06,18.92,14.93,29.46,19.57C184.88,399.61,207.77,398.33,229.83,399.56z"/>
		<path d="M99.72,118.34c-9.81-0.25-15.96-11.98-12.6-20.71c2.51-7.2,9.75-11.25,16.09-14.6c12.75-6.51,27.51-6.57,41.5-6.7
			c25.27-3.57,50.94-2.86,76.41-3.21c15.91,1.42,34.59-2.68,49.04,4.89c12.86,7.42,12.97,21.96-1.7,27.29
			c-13.93,8.21-22.57-10.58-6.46-14.1c-8.32-3.7-18.12-1.32-27-2.37c-22.4-0.86-44.76,0.61-67.16,0.71
			c-8.59-0.1-16.94,2.23-25.52,2.37c-13.89,0.01-30.37,0.34-40.61,10.98C111.81,104.29,109.87,119.37,99.72,118.34z"/>
		<path d="M166.4,214.52c-17.42-0.65-35.78-2.01-50.98-11.3c-6.95-3.44-4.24-14.79,3.65-14.58c7.56,1.8,14.19,7.14,22.22,8.05
			c21.33,3.32,43.16,3.58,64.49,0.16c15.1-1.92,29.98-5.29,44.39-10.2c3.28-1.19,6.71-2.22,9.81-3.84c3.09-3.1,8.26-3.59,11.41-0.33
			C291.08,205.25,179.04,217.54,166.4,214.52z"/>
		<path d="M224.55,330.25c-32.63-1.26-67.16,0.38-97.29-14.11c-6.23-3.74-15.37-4.25-12.04-14.23c6.83-12.04,19.21,2.75,28.23,4.29
			c23.86,7.75,48.89,7.55,73.66,8.38c19.15,1.57,38.59-5.06,54.22-15.96c4.26-4.52,5.46-12.81,13.8-9.68
			c7.53,3.33,4.33,12.13,0.33,17.08C271.05,321.39,245.32,329.74,224.55,330.25z"/>
		<path d="M161.04,304.3c-1.55-2.66-1.3-6.12,0.45-8.55c-3.83-16.35-3.88-35.35,7.54-48.71c8.21-15.53,24.36-20.45,40.97-18.9
			c13.01,0.61,29.73-1.28,38.86,9.88c4,5.5,4.57,13.62-0.43,18.72c-9.72,6.93-19.19,14.42-29.42,20.65
			c-12.55,8.08-24.93,16.45-37.88,23.9C175.15,304.7,166.51,312.75,161.04,304.3z M175.43,286.67c20.88-12.25,40.82-26,60.61-39.86
			c-13.21-4.57-28.7-3.87-42.42-2.06c-6.98,2.06-10.28,9.12-14.23,14.62C173.43,267.01,174.53,277.57,175.43,286.67z"/>
		<path d="M148.24,281.54c0-4.23,3.53-7.76,7.76-7.76s7.76,3.53,7.76,7.76s-3.53,7.76-7.76,7.76S148.24,285.77,148.24,281.54z"/>
		<path d="M153.13,259.35c0-4.23,3.53-7.76,7.76-7.76s7.76,3.53,7.76,7.76s-3.53,7.76-7.76,7.76S153.13,263.58,153.13,259.35z"/>
		<path d="M165.62,238.79c0-4.23,3.53-7.76,7.76-7.76c4.23,0,7.76,3.53,7.76,7.76c0,4.23-3.53,7.76-7.76,7.76
			C169.15,246.55,165.62,243.02,165.62,238.79z"/>
		<path d="M188.59,229.39c0-4.23,3.53-7.76,7.76-7.76s7.76,3.53,7.76,7.76s-3.53,7.76-7.76,7.76S188.59,233.62,188.59,229.39z"/>
		<path d="M215.04,229.85c0-4.23,3.53-7.76,7.76-7.76s7.76,3.53,7.76,7.76s-3.53,7.76-7.76,7.76S215.04,234.08,215.04,229.85z"/>
		<path d="M230.34,235.43c0-4.23,3.53-7.76,7.76-7.76s7.76,3.53,7.76,7.76c0,4.23-3.53,7.76-7.76,7.76S230.34,239.66,230.34,235.43z
			"/>
		<path d="M217.68,240.65c-16.09,2.19-17.28-16.71-1.41-15.82c23.12-4.86,21.29,19.37,6.63,15.21
			C221.24,240.68,219.47,240.96,217.68,240.65z"/>
		<path d="M179.92,244.38c-5.13-3.95-3.16-11.52,2.44-13.96c0,0,0.01-0.04,0.01-0.04c11.2-11.43,25.57,6.84,9.76,11.99
			C188.83,245.38,183.87,247.62,179.92,244.38z"/>
		<path d="M167.04,262.31c-7.47-4.78-2.09-11.02,0.12-16.79c-0.09-7.38,9.44-11.17,14.07-5.18
			C186.31,247.71,177.57,268.25,167.04,262.31z"/>
		<path d="M161.31,298.95c-7.83-3.37-5.3-12.99-5.53-19.75c1.09-5.06-0.2-11.45,3.41-15.52c5.5-9.16,19.25-0.05,12.92,8.53
			c-0.42,5.95-1.38,11.75,0.05,17.69C173.32,295.96,167.14,301.5,161.31,298.95z"/>
	</g>
</g>
<g id="Layer_group_00000005956713645723523280000017174557720518139319_">
	<g id="Vector_layer_00000118373964828183826810000003105501113294047875_">
	</g>
	<g id="Vector_layer_00000114792692480223708070000006081800964882002587_">
	</g>
</g>
<g id="Layer_group_00000096753676060204885020000003690522438842904248_">
	<g id="Vector_layer_00000021805737131568542680000011445392356473190274_">
	</g>
	<g id="Vector_layer_00000082341159556701053130000003376809865345571507_">
	</g>
</g>
<g id="Layer_group_00000000196813977188246800000001010744972638326171_">
	<g id="Vector_layer_00000159443569616288308350000001272240939845332411_">
	</g>
	<g id="Vector_layer_00000010310034796367468450000008345494598285716128_">
	</g>
	<g id="Vector_layer_00000022532893442924655960000004476625282564101004_">
	</g>
	<g id="Vector_layer_00000116938941117521812450000007244229505113456513_">
	</g>
	<g id="Vector_layer_00000142881445914887737530000018275663708537143743_">
	</g>
</g>
<g id="Layer_group_00000086664090508187033660000015622036831865322421_">
	<g id="Vector_layer_00000133507980477791719550000014485879647521063059_">
	</g>
	<g id="Vector_layer_00000092425111748449878830000004048094310013317519_">
	</g>
</g>
</svg>
