<?xml version="1.0" encoding="utf-8"?>
<!-- Generator: Adobe Illustrator 27.0.1, SVG Export Plug-In . SVG Version: 6.00 Build 0)  -->
<svg version="1.1" xmlns="http://www.w3.org/2000/svg" xmlns:xlink="http://www.w3.org/1999/xlink" x="0px" y="0px"
	 viewBox="0 0 382.76 550.67" style="enable-background:new 0 0 382.76 550.67;" xml:space="preserve">
<style type="text/css">
	.st0{fill:#FFFFFF;}
	.st1{display:none;}
	.st2{display:inline;}
	.st3{fill:#C3340F;}
	.st4{fill:#F1DA48;}
	.st5{fill:#BFBFBF;}
	.st6{fill:#A93C13;}
	.st7{fill:#49AB80;}
	.st8{fill:#FFF5D3;}
	.st9{fill:#FFF6D3;}
</style>
<g id="Vector_layer_00000055693094104202961020000012611521480546505380_">
</g>
<g id="Vector_layer_00000083056692401482731750000002143268079692121760_" class="st1">
</g>
<g id="Layer_group_00000135655894010939323910000007968388131483226006_">
	<g id="Vector_layer_00000060727446154750124540000003288795569096013724_">
	</g>
	<g id="Vector_layer_00000054256212561802303770000002573030991383270322_">
	</g>
</g>
<g id="Layer_group_00000005956713645723523280000017174557720518139319_">
	<g id="Vector_layer_00000118373964828183826810000003105501113294047875_">
	</g>
	<g id="Vector_layer_00000114792692480223708070000006081800964882002587_">
	</g>
</g>
<g id="Layer_group_00000096753676060204885020000003690522438842904248_">
	<g id="Vector_layer_00000021805737131568542680000011445392356473190274_">
	</g>
	<g id="Vector_layer_00000082341159556701053130000003376809865345571507_">
	</g>
</g>
<g id="Layer_group_00000000196813977188246800000001010744972638326171_">
	<g id="Vector_layer_00000159443569616288308350000001272240939845332411_">
	</g>
	<g id="Vector_layer_00000010310034796367468450000008345494598285716128_">
	</g>
	<g id="Vector_layer_00000022532893442924655960000004476625282564101004_">
	</g>
	<g id="Vector_layer_00000116938941117521812450000007244229505113456513_">
	</g>
	<g id="Vector_layer_00000142881445914887737530000018275663708537143743_">
	</g>
</g>
<g id="Layer_group_00000086664090508187033660000015622036831865322421_">
	<g id="Vector_layer_00000133507980477791719550000014485879647521063059_">
		<path class="st8" d="M38.18,157.8c-3.7-2.25-3.55-7.22-3.44-11.03c-7.22,1.78-7.11-7.17-6.5-11.97c0.4-4.38,0.23-8.78,0.77-13.14
			c0.97-10.07,2.56-20.05,3.87-30.07c0.19-1.38,0.95-2.56,2-3.33c1.8-5.53,0.69-15.92,8.25-16.77c3.55-9.59,9.74-19.27,18.73-24.49
			c7.98-3.71,13.91,5.27,13.28,12.51c0.24,0.33,0.44,0.68,0.61,1.04c0.1,0.21,0.18,0.41,0.25,0.62c1.74,1.01,2.94,3.04,2.92,5.08
			c5-0.57,10.31,4,8.84,9.32c2.42-0.56,5.19-0.53,7.05,1.32c0.84,0.84,1.33,1.82,1.67,2.94c3.42-0.69,7.41,1.28,8.01,4.91
			c7.01,0.76,5.29,11.26-1.62,9.89c-6.92,11.15-15.51,21.73-25.82,29.88c-3.81,2.4-8.82-1.76-7.51-5.96
			c-0.03-0.02-0.06-0.04-0.09-0.06c-0.45-0.29-0.86-0.64-1.22-1.04c-3.14,3.18-8.96,0.8-8.69-3.73c-0.81,0.77-1.67,1.48-2.62,2.05
			c-0.54,0.33-1.14,0.53-1.76,0.62c-3.1,10.32,2,23.64-5.86,32.22C48.39,153.82,44.37,161.02,38.18,157.8z M70.55,83.37
			c-1.4,2.2-2.81,4.39-4.24,6.57c3.9-3.61,6.77-8.26,9.67-12.69C73.19,78.33,72.08,81.03,70.55,83.37z"/>
		<path class="st8" d="M49.08,380.29L49.08,380.29c-0.51-10.18-4.04-20.11-5.47-30.25c-5.24-4.98-5.96-26.18-7-34.02
			c-0.71-19.73-1.31-39.5-0.2-59.23c-5.22-35.21-6.78-70.99-4.27-106.5c0.1-6.42,0.15-12.85,0.69-19.25
			c0.42-3.87,5.5-5.74,8.32-3.02c0.9-1.35,2.32-2.25,4-2.3c1.08-8.06,1.87-16.2,3.29-24.2c1.07-4.47,7.79-4.89,9.41-0.63
			c3.1-2.92,8.42-0.54,8.38,3.69c0.06,4.11-0.86,8.2-1.3,12.29c2.04-0.07,4.02,1.14,4.81,3.05c0.16,0.4,0.29,0.78,0.39,1.17
			c0.57-0.05,1.16,0,1.73,0.16c0.22,0.06,0.44,0.14,0.64,0.23c1.08-4.48,0.7-12.76,7.27-12.17c-0.1-9.12,10.38-10.15,10.49-1.78
			c-4.12,25.54-7.75,51.26-8.62,77.14c3.16-0.66,6.45,2.34,5.84,5.59c-1.32,7.2-2.64,14.39-3.78,21.62
			c-1.03,6.91-2.04,13.84-2.71,20.79c-0.08,1.01-0.54,1.92-1.21,2.64c-0.7,4.7,1.13,10.6-1.81,14.58c0.52,9.79,1.4,19.56,2.33,29.32
			c0.38,4.45,2.18,11.65-3.95,12.75c0.55,8.21,1.45,16.39,2.35,24.58c1.16,10.08,2.76,20.1,4.2,30.14c0.44,2.95-2.03,5.75-5.01,5.68
			c1.4,12.23,3.09,24.42,4.93,36.59c0.57,3.97,1.33,7.93,1.72,11.92c0.66,4.63-5.23,7.56-8.54,4.22c0.99,10.49,2.7,20.91,3.78,31.38
			c-2.64,0.27-5.28,0.55-7.92,0.85c-1.15,0.13-2.31,0.26-3.46,0.39c-0.05-0.15-0.1-0.29-0.15-0.43c0,0.14,0,0.29,0,0.45
			c-6.61,0.75-13.22,1.51-19.81,2.41C46.62,428.02,35.97,379.55,49.08,380.29z"/>
		<path class="st8" d="M122.43,266.39c-5.82-0.63-10.54-5.54-11.32-11.3c-0.45-3.31,0.42-6.42,1.77-9.36
			c-7.72-0.53-13.23-8.75-11.75-16.03c-14.91,12.36-31.99-0.64-23.34-18.11c-15.66-9.16-0.84-26.52,7.68-35.27
			c-17.98,2.19-20.43-17.83-9.79-28.48c-5.85-6.55-2.27-16.09,5.03-19.77c-9.47-1.91-12.77-14.79-5.37-20.99
			c-11.2-2.61-12.02-19.21-1.21-23.01c-3.31-2.12-5.53-5.77-5.53-10.02c0-0.07,0-0.15,0-0.23c-11.58-2.17-14.05-19.3-2.61-23.6
			c4.59-3.87,10.69-3.47,16.58-3.08c2.22,0.15,4.41,0.3,6.48,0.22c17.77,1.59,35.53,2.19,53.39,1.8
			c16.95,0.02,33.65-0.23,50.36-3.14c19.3-2.12,38.74-2.3,58.11-3.46c12.89-3.5,26.19-5.89,39.55-6.29c4.04-0.24,8.03,0.09,12,0.43
			c6.02,0.5,12,1.01,18.04-0.47c6.74-3.68,14.41-6.46,22.35-5.12c13.56,1.97,20.43,8.48,17.91,22.79
			c-0.29,5.61,1.82,11.18,0.53,16.78c-0.48,13.06-21.77,36.37-33.65,21.93c-0.86,0.38-1.73,0.74-2.61,1.09
			c-8.27,3.3-16.57,6.53-24.98,9.46c1.57,14.43-17.68,20.18-23.32,6.6c-2.54,0.39-4.98-0.26-7.33-1.16
			c-0.81,1.17-1.6,2.36-2.37,3.55c0.08-0.81,0.14-1.62,0.17-2.44c0.03-0.76,0.1-1.54-0.14-2.27c-0.24-0.7-0.64-1.36-1.26-1.79
			c-0.29-0.2-0.63-0.38-0.96-0.5c-0.48-0.17-0.93-0.17-1.43-0.18c-1-0.02-2.05,0.34-2.8,1.04c-0.84,0.77-1.65,1.59-2.32,2.51
			c-0.72,0.98-1.38,2-1.99,3.05c0-0.16,0-0.33,0-0.49c-0.01-0.76-0.18-1.53-0.54-2.19c-0.3-0.55-0.79-0.95-1.32-1.27
			c-1.07-0.64-2.46-0.49-3.36,0.37c-0.51,0.48-0.94,1-1.21,1.65c-0.2,0.45-0.39,0.91-0.58,1.36c-0.32,0.74-0.62,1.48-0.92,2.22
			c-0.5,1.22-0.98,2.45-1.45,3.68c-1.32,3.48-2.57,7-3.8,10.52c-0.52,1.51,0.18,3.2,1.71,3.78c0.89,0.34,1.91,0.19,2.69-0.33
			c-0.31,0.77-0.62,1.54-0.92,2.32c-2.22,5.6-4.46,11.21-6.61,16.84c-1.98,5.2-3.94,10.41-5.88,15.63
			c-0.14,0.21-0.29,0.42-0.41,0.63c-0.62,0.98-1.14,2.04-1.63,3.09c-0.92,1.98-1.79,3.98-2.63,6c-0.91,2.2-1.81,4.41-2.69,6.62
			c-0.12,0.3-0.24,0.61-0.36,0.91c-3.96,1.55-8.38,1.09-12.35-2.8c-3.96,7.66-13.24,10.8-19.57,16.25
			c7.78,7.73,4.72,23.35-7.53,23.49c-14.53,11.9-46.17,46.51-64.24,46.51C122.61,266.4,122.52,266.39,122.43,266.39z M159.48,168.47
			c0,0-0.01,0.01-0.01,0.01c0.92,0.09,1.82,0.29,2.7,0.59c0.74-1.22,1.51-2.42,2.23-3.62c0.94-1.57,1.88-3.12,2.82-4.69
			C164.66,163.35,162.09,165.94,159.48,168.47z"/>
		<path class="st8" d="M243.58,157.48c-0.03,0.15-0.05,0.29-0.08,0.44c-0.15,0.32-0.29,0.63-0.44,0.95
			C243.23,158.4,243.41,157.94,243.58,157.48z"/>
		<path class="st8" d="M253.83,131.12c0.62-1.54,1.25-3.07,1.9-4.59c0.57-1.33,1.12-2.66,1.74-3.97c0.74-1.57,1.48-3.13,2.22-4.7
			c0.26-0.51,0.52-1.02,0.79-1.52c-0.4,3.16-0.84,6.31-1.31,9.46c-2.32,4.36-4.53,8.78-6.75,13.19
			C252.89,136.36,253.36,133.74,253.83,131.12z"/>
		<path class="st8" d="M300.71,337.28c-16.97-3.28-7.39-22.09-7.54-33.59c0.82-14.19,1.67-28.38,2.49-42.58
			c-9.79-3.45-8.18-14.94-7.52-23.22c0.17-15.65,1.73-31.26,3.84-46.75c-0.04,0.02-0.09,0.04-0.13,0.07
			c-1.51,6.37-1.77,13.46-5.69,18.93c-4.04,5.39-12.47,6.2-17.51,1.76c-4.3,4.49-11.89,4.82-16.49,0.64
			c-1.82,7.17-1.48,16.01-7.75,21.03c-9.7,7.25-21.25-2.16-19.59-13.26c-0.67-0.13-1.32-0.31-1.95-0.55
			c-0.48,16.4,1.74,33.02-0.12,49.31c-5.4,15.52-25.6,8.73-25.09-6.52c-2.45-21.51,0.28-43.06,1.42-64.53
			c1.53-12.61-1.79-37.96,9.63-45.47c3.12-11.95,7.39-23.53,12.04-34.96c3.02-10.92,13.53-18.31,23.24-9.61
			c0.3-0.05,0.6-0.09,0.9-0.11c1.56-0.11,3.06-0.05,4.51,0.28c0.89-2.66,1.84-5.3,2.86-7.91c1.99-5.08,7.61-7.95,12.87-7.19
			c1.67-3.29,3.1-6.81,5.29-9.79c5.73-7.92,19.19-5.78,21.99,3.64c1.31,0.26,2.57,0.73,3.72,1.38c2.9-6.2,10.7-9.95,17.06-6.59
			c6.88-5.82,18.53-2.53,23.3,4.42c3.2,4.96,0.85,10.8-0.56,15.95c-0.85,6.43-2.24,12.74-3.52,19.09
			c4.17,8.88-1.18,19.02-1.57,28.28c-2.85,22.62-7.62,45.02-9,67.84c-1.22,20.98-1.94,42-3.33,62.97
			c-1.01,15.64-1.14,31.39-4.27,46.8C313.33,333.41,307.16,338.3,300.71,337.28z"/>
		<path class="st8" d="M61.92,438.43c-1.32-15.73,2.04-54.85,15.26-64.54c0.34-4.82,1.05-9.61,1.77-14.38
			c-4.04-5.11-2.2-11.69-0.27-17.27c-12.57,0.79-14.23-11.61-13.73-21.38c-0.21-8.57-0.3-17.15-0.3-25.71
			c0.24-26.88,1.12-54.34,10.01-79.96c0.89-2.73,1.89-5.43,2.81-8.16c3.34-8.97,16.84-9.75,21.41-1.41
			c3.73-1.24,8.14-0.48,11.23,1.91c0.11,0.08,0.21,0.16,0.31,0.25c8.94-19.07,32.66-8.61,23.64,9.23c1.89,0.12,3.64,0.45,5.31,1.25
			c7.26-10.3,19.29-34.32,32.89-17.59c9.44-11.12,18.44-23.1,29.8-32.32c8.86-5.81,21.09,4.03,17.5,13.91
			c10.29-7.71,25.07,3.09,19.62,15.17c3.62-3.98,6.87-8.52,11.1-11.86c8.6-7.1,22.3,2.02,18.91,12.67c2.14-2.41,4.77-4.29,8.04-5.19
			c0.23-0.06,0.47-0.12,0.71-0.17c0.09-11.01-3.08-26.23,7.88-33.14c5.55-3.29,13.24-1.36,16.42,4.3
			c4.13,6.09-1.26,11.93-0.65,18.19c0.59-0.18,1.2-0.31,1.8-0.39c2.56-9.46,0.12-23.69,9.17-29.65c6.95-4.43,17.19,0.53,17.99,8.75
			c-0.36,10.98-0.59,22.12-1.9,33.07c-1.53,9.94-4.23,19.71-6.1,29.6c-1.3,12.38-1.24,24.99-3.14,37.36
			c6.13,8.79,2.33,23.09,1.33,33.2c-0.35,8.95-0.57,17.89-0.71,26.85c7.17,5.78,4.52,16.05,5.12,24.12c0.41,6.1,0.72,12.2,0.4,18.32
			c0.86,16.98,0.43,34.03,2.18,50.95c0.26,6.52,0.9,13,1.64,19.47c-4.58-0.41-9.16-0.78-13.74-1.1
			c-11.66-0.82-23.31-1.63-34.98-2.24c-5.23-0.27-10.47-0.66-15.71-0.8c-7.37-0.2-14.73-0.4-22.1-0.6
			c-11.81-0.32-23.62-0.14-35.43-0.12c-11.54,0.03-23.1,0.55-34.64,0.87c-4.34,0.12-8.68,0.4-13.02,0.62
			c-7.06,0.36-14.13,0.71-21.19,1.07c-5.01,0.25-10.02,0.74-15.02,1.12c-5.88,0.44-11.77,0.78-17.65,1.33
			c-11.34,1.07-22.68,2.03-34,3.31c-3.34,0.38-6.69,0.76-10.03,1.14C61.87,438.46,61.9,438.45,61.92,438.43z M201.98,348.84
			c0.3,0.15,0.59,0.32,0.88,0.5c1.82-3.18,3.65-6.36,5.59-9.46c1.85-2.97,3.7-5.95,5.57-8.89
			C209.9,336.86,206.01,342.9,201.98,348.84z"/>
		<path class="st8" d="M113.81,436.7c-0.48,0.03-0.96,0.06-1.44,0.09C112.85,436.76,113.33,436.73,113.81,436.7z"/>
		<path class="st8" d="M200.79,429.02c1.35-9.17,1.93-18.59,4.78-27.45c3.58-9.58,18.55-9.61,22.11,0
			c2.78,7.37-0.08,15.36-0.59,22.94c1.26,1.37,2.13,2.86,2.72,4.44c-7.47-0.03-14.95,0.05-22.42,0.06c-2.2,0.01-4.41,0.03-6.61,0.07
			C200.79,429.06,200.79,429.04,200.79,429.02z"/>
		<path class="st9" d="M182.92,492.94c-1.56-0.84-2.39-2.77-2.15-4.48c0.02-0.11,0.04-0.23,0.06-0.34
			c-15.34,1.05-30.7,2.1-45.88,4.63c-2.71,0.55-6.27,1.57-8.18-1.06c-4.77-0.14-12.86,3.68-15.64-1.66
			c-3.75-0.41-7.55-1.02-11.33-0.59c-0.64,1.71-2.31,2.97-4.22,2.95c-4.75-0.03-9.51-0.21-14.26-0.34c-4.67-0.12-9.35-0.1-14.02,0
			c-5.29-0.55-18.53,2.62-20.91-2.82c-6.87,0.2-16.71,1.31-20.52-5.81c-2.53-1.47-4.59-3.61-5.43-6.52
			c-0.53-1.84-0.66-3.79-0.29-5.66c-7.32-11.13,15.12-20.06,23.23-14.31c0.88-4.87,3.87-25.93,10.01-25
			c2.62-0.04,4.67,2.34,4.53,4.9c0.81-0.45,1.71-0.67,2.67-0.69c1.99-0.04,3.72,1.38,4.3,3.19c6.66-5.14,13.73-9.9,21.32-13.55
			c1.9-0.86,4.32-0.07,5.44,1.65c1.24-0.87,2.49-1.72,3.78-2.5c4.67-2.84,9.39,4.3,4.95,7.49c-1.64,1.19-3.29,2.38-4.94,3.55
			c8.41-3.72,16.99-7.01,25.54-10.4c2.27-0.94,4.95,0.19,5.88,2.46c4.83-1.68,9.75-3.09,14.67-4.49c4.07-1.65,10.54-2.2,10.06,3.99
			c1.83-0.33,3.66-0.65,5.49-0.96c0.56-0.62,1.28-1.09,2.14-1.28c4.96-1.09,10.03-1.76,15.05-2.46c14.34-1.92,28.74-3.48,43.16-4.64
			c5.04,0.25,16.94-3.19,19.45,2.01c7.42,0.19,14.89,0.64,22.26,1.19c4.62,0.97,14.04-0.57,16.83,3.3c0.99-0.03,1.97-0.02,2.96,0.03
			c-2.85-3.97,1.89-8.76,6.1-6.92c8.97,2.32,18.29,4.05,26.51,8.5c-1.12-3.35-2.77-6.99-2.2-10.57c2.44-5.84,8.54-3.19,9.56,2.12
			c6.56-4,8.84,5.68,10.43,10.19c0.81,4.59,5.16,10.7,2.43,15.01c2.89,10.05,3.78,8.83,0.22,18.72c0.81,1.65,0.87,3.61-0.08,5.27
			c-0.48,0.83-1.1,1.54-1.8,2.17c-0.86,3.39-3.86,5.93-6.67,7.79c-0.13,6-8.26,5.41-12.41,7.24c-1.9,6.28-10.52,2.43-15.26,2.67
			c-8.89-0.29-17.83,1.11-26.75,1.14c-13.28,0.62-26.6,0.39-39.83,1.81c-9.52,0.83-19.01,1.77-28.52,2.57
			c-3.95,0.33-7.92,0.68-11.87,1C186.81,493.65,184.75,494.03,182.92,492.94z"/>
	</g>
	<g id="Vector_layer_00000092425111748449878830000004048094310013317519_">
		<path d="M35.47,344.88c-1.14-33.49-4.89-66.27-7.98-99.41c-1.42-34.98-3.78-69.92-5.23-104.88c-1.2-28.61,1.26-59.12,15.58-84.49
			C44.88,44.5,56.4,31.54,71.15,38.7c25.33,8.65,7.75,89.34-21.02,65.32c-8.85-6.46,1.78-60.44,12.22-37.21
			c-2.22,3.55-12.11,37.36,0.59,30.66c9.43-11.23,12.2-29.34,9.15-43.54c-2.53-8.59-14.3-9.4-18.71-1.81
			C25.32,86.56,32,135.41,34.22,176.82c1.97,36.96,2.38,74,7.73,110.69c3.53,52.35,6.29,104.48,9.03,156.8
			c-2.45,0.29-4.91,0.59-7.36,0.88c-0.87,0.1-1.74,0.21-2.6,0.32C39.35,411.95,37.5,378.28,35.47,344.88z"/>
		<path d="M122.28,50.65c-20.59,0.47-41.08-0.36-61.44-3.39c-5.61,6.57-13.01-3.45-6.73-8.39c7.85-4.09,17.33,0.52,25.7,0.65
			c12.22,1.37,24.52,1.1,36.79,1.13c44.09-0.61,88.16-3.07,132.24-4.57c35.52-2.04,70.59-8.41,106.06-10.88
			c6.53-0.01,6.56,10.19-0.22,10.02c-20.11,1.13-40,4.39-59.99,6.76C237.44,48.04,179.76,48.67,122.28,50.65z"/>
		<path d="M105.27,114.77c-12.77-0.59-25.63-1.56-38.18-3.98c-2.74-0.08-5.47,0.35-8.2,0.5c-4.28,0.25-6.69-5.66-3.54-8.54
			c5.25-3.08,12.43-2.08,18.19-0.87c13.71,1.85,27.56,3.23,41.42,2.89c44.28,0.65,88.25-3.88,132.34-7.06
			c33.22-2.39,66.11-3.09,98.73-9.3c16.53-12.7,18.84-35.63,5.21-51.49c-8.96-0.94-5.16-12.34,2.93-9.95
			c4.56,1.64,6.88,6.49,9.26,10.39c10.05,14.55,8.43,33.86-1.19,48.2c-8.32,15.44-24,14.41-39.21,16.36
			c-25.43,3-51.97,4.24-77.34,5.89C198.94,111.52,152.23,115.65,105.27,114.77z"/>
		<path d="M319.04,275.75c0.01-34.81,5.15-69.3,7.85-103.94c1.71-18.43,2.43-36.96,5.5-55.24c1.45-7.39,2.32-28.48,12.96-18.78
			c1.02,1.75,0.83,4.03-0.36,5.6c-1.53,6.37-2.39,12.83-3.39,19.29c-2.59,16.81-3.21,33.82-4.83,50.73
			c-1.77,22.87-4.57,45.63-6.41,68.5c-2.86,54.92-1.39,110.32,2.24,165.14c0.41,5.75,0.94,11.49,1.54,17.23
			c-1.2,0.1-2.41,0.19-3.61,0.29c-2.1,0.16-4.2,0.34-6.3,0.55C319.37,375.5,318.78,325.57,319.04,275.75z"/>
		<path d="M95.86,144.18c-5.65-0.7-5.67-9.18,0-9.91c7.81-1.49,15.14-3.42,22.84-5.24c6.96-1.54,14-2.64,21-4
			c2.68-0.46,5.28,1.65,5.63,4.28c0.51,7.03-8.56,5.86-13.2,7.3c-11.77,1.86-23.18,5.48-34.91,7.57c0-0.01,0-0.02,0-0.02
			C96.77,144.22,96.31,144.23,95.86,144.18z"/>
		<path d="M114.57,175.46c-0.35-10.01-0.58-20.06-2.38-29.96c-0.29-2.54-1.96-4.91-1.25-7.41c1.14-4.48,7.7-4.89,9.43-0.62
			c2.96,9.13,3.34,19,3.91,28.54c-0.41,4.64,2.38,12.52-4.08,13.73C117.57,180.11,114.88,178.18,114.57,175.46z"/>
		<path d="M179.01,185.07c-5.97-4.97-8.91-12.36-12.01-19.26c-3.04-6.2-6.91-11.97-11.08-17.47c-2.99,10.22-8.82,19.31-12.67,29.19
			c-0.16,0.65-0.56,1.3-0.41,1.98c0.51,2.68-1.68,5.28-4.27,5.63c-12.19-0.97-1.86-16.96,0.67-22.96
			c2.47-5.06,4.84-10.13,6.73-15.44c2.02-4.28,0.01-10.67,4.55-13.41c5.23-2.64,8.78,3.29,11.64,6.72
			c4.28,5.34,8.11,11.04,11.52,16.97c3.95,6.62,5.77,14.66,11.45,20.13C190.23,181.2,184.22,189.02,179.01,185.07z"/>
		<path d="M143.83,166.69c-2.32-6.22,5.66-7.99,10.17-8.66c7.11-1.21,14.28-1.85,21.38-3.15c6.46-0.85,7.82,8.91,1.36,9.91
			c-3.58,0.62-7.17,1.2-10.77,1.66c-4.91,0.69-9.91,1.05-14.67,2.51C148.69,170.59,145.04,169.57,143.83,166.69z"/>
		<path d="M203.53,180.96c-13.1-2.86-18.16-17.53-14.11-29.36c2.05-7.55,5.52-16.08,12.81-19.88c9.28-4.38,13.66,10.09,3.32,9.7
			c-7.23,7.52-13.09,28.56,2.2,30.06c5.55,0.72,12.6-7.56,16.3-0.36C227.23,179.48,209.04,182.65,203.53,180.96z"/>
		<path d="M247.76,179.68c-14.5-1.96-23.09-12.13-18.96-26.81c2.34-8.86,6.2-18.85,14.73-23.39c11.5-5.32,14.82,10.09,4.31,9.02
			c-6.19,4.04-12.25,19.17-9.04,26.05c2.65,3.47,7.67,5.37,11.97,5.16c4.55-1.23,9.89-3.44,11.48-8.29
			c1.61-5.11,1.73-15.3-3.04-18.61c-6.19-6.13,3.61-14.35,10.4-3.7c4.99,10.1,5.66,24.18-2.37,32.9
			C262.09,176.72,254.89,180.32,247.76,179.68z"/>
		<path d="M258.31,142.39c-2.05-1.73-4.03-3.64-6.68-4.45c-6-2.52-2.16-11.73,3.89-9.22c3.32,1.31,11.53,5.88,11.3,9.83
			C266.88,142.89,261.55,145,258.31,142.39z"/>
		<path d="M54.9,237.37c-6.53-0.07-6.54-9.93-0.01-10c6.11,1.65,19.63-5.17,20.59,4.15c0.01,3.21-2.99,5.42-6.07,5.01
			C64.6,237.1,59.76,237.77,54.9,237.37z"/>
		<path d="M106.36,255.07c-2.4-0.06-4.79-0.17-7.19-0.38c-4.28-0.38-5.85-6.45-2.38-8.91c5.23-2.64,11.99,0.96,17.4-1.91
			c-4.61-11.37-21.32-5.81-26.9-16.21c-3.74-7.16,4.46-16.82,11.91-16.53c8.24,0.85,7.52,13-1.03,10.51
			c-0.29,0.27-0.57,0.56-0.84,0.85c-0.25,0.31-0.5,0.62-0.74,0.94c7.13,3.27,16.09,2.96,21.75,9.28
			C130.83,244.63,121.72,256.23,106.36,255.07z"/>
		<path d="M162.83,256.25c-5.29-0.92-4.32-7.61-6.86-11.24c-3.34-6.41-8.66-11.47-13.99-16.24c-1.32,7.24-4.5,13.96-6.16,21.11
			c-0.2,2.64-2.26,4.91-5.03,4.9c-11.39-0.9,0.97-20.67,1.28-27.31c3.02-18.92,17.05-7.21,24.55,1.54
			C161.3,233.58,176.64,255.5,162.83,256.25z"/>
		<path d="M133.63,239.73c-0.65-8.57,14.5-6.04,20.09-7.13c4.39-0.07,11.67-2.5,12.71,3.74c0.36,2.59-1.55,5.41-4.27,5.63
			c-5.03,0.42-10.07,0.72-15.1,1.03C142.45,243.09,134.89,246.47,133.63,239.73z"/>
		<path d="M178.67,256.73c-7.56-1.78-7-11.72-8.88-17.77c-0.87-4.08-1.64-8.23-2.96-12.2c-1.11-0.94-1.83-2.36-1.83-3.86
			c0-2.79,2.28-4.92,5-5c8.97-0.19,8.89,22.22,11.9,28.89c5.77-0.1,19.8-6.51,21.49,1.88c0.36,2.61-1.56,5.38-4.27,5.63
			C192.23,254.46,185.53,257.34,178.67,256.73z"/>
		<path d="M219.25,257.99c-3.18-0.38-7.08,0.66-9.64-1.7c-3.14-2.89-0.78-8.76,3.53-8.53c4.94,0.14,10.04,0.78,14.89-0.42
			c-4.71-6.6-17.12-7.81-23.51-13.6c-9.86-6.61-10.09-16.37,0.81-21.98c4.76-3.47,15.97-1.73,13.51,5.91
			c-1.02,2.42-4.1,3.84-6.55,2.66c-1.8-0.94-3.69,1.34-5.05,2.37c7.45,8.59,20.81,8.74,28.15,17.44
			C244.37,253.34,231.08,259.25,219.25,257.99z"/>
		<path d="M269.65,254.68c-7.57-7.02-11.67-16.29-15.54-25.65c-0.87,7.01-3.64,13.56-6.3,20.04c-2.58,5.98-11.68,2.17-9.21-3.89
			c1.82-4.6,3.9-9.13,5-13.96c1.16-4.99,0.93-10.33,2.96-15.1c6.57-10.79,15.02,4.19,17.49,10.55c3.11,8.2,7.1,15.82,13.53,21.91
			C281.51,253.73,273.76,259.79,269.65,254.68z"/>
		<path d="M241.27,241.97c-0.72-2.61,0.86-5.44,3.49-6.15c6.13-1.66,12.44-2.61,18.74-3.39c2.7-0.33,5.26,1.55,5.63,4.28
			c0.58,8.05-11.65,5.63-16.85,7.59C248.45,245.28,242.81,247.24,241.27,241.97z"/>
		<path d="M59.02,302.07c-3.46-2.44-1.91-8.58,2.37-8.91c1.34-0.1,2.66-0.34,3.98-0.6c5.44-0.64,14.65-5.07,19.43-3.15
			c3.73,1.98,3,8.22-1.2,9.14c-3.52,0.75-7.01,1.55-10.5,2.43C68.63,301.71,63.3,304.59,59.02,302.07z"/>
		<path d="M121.76,322.84c-27.91,0.77-30.9-23.38-16.46-42.11c3.59-3.89,9.61-7.15,14.71-4.18c2.46,1.39,4.09,4.59,2.93,7.32
			c-1.21,3.12-5.49,3.99-7.95,1.81c-5.61,3.16-9.68,15.77-7.49,21.69c2.22,4.81,8.02,5.04,12.63,5.38
			c4.77-0.04,10.04,1.13,14.43-1.18C143.83,307.73,149.36,325.39,121.76,322.84z"/>
		<path d="M151.75,320.15c-15.77-5.25-13.94-28.4-4.48-38.78c9.12-10,18.86,5.34,7.14,7c-4.32,5.74-6.83,16.02-1.16,21.61
			c6.04,3.07,12.6-4.38,11.87-10.26c0.01,0.07,0.03,0.14,0.04,0.21c0.01,0.14,0.02,0.28,0.03,0.42c-0.36-3.25-2.79-5.77-4.97-8.02
			c-4.88-5.82,3.89-15.14,12.06-1.04C181.46,304.52,167.25,324.45,151.75,320.15z"/>
		<path d="M186.38,320.92c0.35-8.06-0.5-14.76-1.72-22.38c-0.08-4.7-5.19-10.15-0.74-13.98c12.23-8.03,12.55,29.79,12.46,36.36
			C196.35,327.45,186.35,327.44,186.38,320.92z"/>
		<path d="M216.28,319.9c-6.03-4.63-14.72-4.23-20.14-9.72c-6.68-8.14,2.32-17.15,5.4-24.78c-4.39,1.72-10.38,3.32-12.06,8.23
			c-2.5,6-11.73,2.15-9.22-3.89c3.45-8.98,14.14-13.45,23.05-14.82c8.38-0.52,10.42,9.32,7.02,15.43c-1.72,4.67-5.65,8.4-6.55,13.37
			c6.17,2.83,13.1,4.02,18.6,8.27C227.55,315.93,221.5,323.87,216.28,319.9z"/>
		<path d="M235.33,316.4c-5.51-1.48-7.28-22.03-10.21-28.26c-9.4-3.3,0.4-17.71,6.83-9.1c4.92,9.01,5.94,19.7,9,29.43
			C244.62,312.08,240.01,318.64,235.33,316.4z"/>
		<path d="M254.39,313.16c-12.1-5.21-19.64-16.58-26.37-27.36c-3.29-5.61,5.3-10.68,8.64-5.05c5.86,9.21,12.07,19.41,22.67,23.64
			c1.26-4.38,0.94-9,0.76-13.5c0.01-4.71-3.31-12.73,3.44-14.03c2.63-0.36,5.36,1.56,5.63,4.27c0.53,4.94,1.15,9.9,1.1,14.87
			C270.84,305.71,266.63,319.56,254.39,313.16z"/>
		<path d="M61.06,370.15c-6.52-0.09-6.53-9.95,0-10c8.63-0.1,16.89-3.37,25.45-4.31c2.69-0.42,5.27,1.61,5.63,4.28
			c0.63,6.28-6.83,5.84-11.1,6.78C74.43,368.2,67.87,370.31,61.06,370.15z"/>
		<path d="M103.49,382.66c0.67-9.41,0.32-19.04-2.81-28.02c-0.84-4.09-5.95-8.41-2.71-12.41c12.96-12.17,19.39,38.12,14.05,43.96
			C109.13,389.33,103.27,386.98,103.49,382.66z"/>
		<path d="M142.58,388.24c-7.92-5.98-6.29-17.14-9.39-25.64c-5.94,16.09-16.69,11.28-22.72-1.68c-2.03-3.85-3.94-7.75-5.84-11.67
			c-1.89-3.91,2.66-8.39,6.55-6.55c1.23,0.52,2.09,1.47,2.66,2.66c2.73,5.55,5.26,11.25,8.87,16.3c2.31-4.63,2.97-9.87,4.16-14.86
			c0.39-3.66,4.53-6.14,7.81-4.17c7.36,7.14,9.11,21.77,11.24,31.59c0.49,2.18,0.75,4.77,2.76,6.11
			C153.79,384.38,147.76,392.19,142.58,388.24z"/>
		<path d="M159.16,388.52c-5.06-3.47-4.54-10.83-6.03-16.22c-1.35-5.91-2.92-11.83-5.73-17.23c-11.61,1.66-5.55-17.65,3.7-11.29
			c8.85,8.29,10.62,21.66,13.07,33.01c0.25,2.32,1.33,4.07,2.33,6.09C167.81,386.97,162.78,390.9,159.16,388.52z"/>
		<path d="M147.44,354.44c-3.41-7.7,8.19-9.67,13.28-11.63c3.38-0.83,7-3.08,10.46-1.56c2.54,0.98,3.7,4.1,2.66,6.55
			c-0.88,2.09-2.99,3.2-5.12,3c-3.32,0.88-6.58,2.02-9.82,3.14C154.91,355.41,150.8,359.49,147.44,354.44z"/>
		<path d="M155.32,366.56c-0.66-4.36,3.77-5.72,6.96-6.5c4.49-1.09,9.65-3.07,14.06-0.85c7.3,3.52,2.08,13.91-4.68,9.04
			C166.29,368.29,157.28,374.83,155.32,366.56z"/>
		<path d="M161.77,392.56c-6.41-0.92-5.16-10.63,1.3-9.91c0.36-0.01,0.71-0.09,1.06-0.15c5.72-1.4,11.34-3.17,17.06-4.58
			c2.63-0.68,5.42,0.84,6.15,3.49c0.71,2.6-0.86,5.47-3.49,6.15C176.48,389.02,169.34,392.63,161.77,392.56z"/>
		<path d="M189.84,387.71c-5.65-1.75-3.3-8.01-1.22-11.75c2.49-5.23,4.88-10.5,6.8-15.96c1.95-5.57,2.94-11.4,4.34-17.09
			c3.3-7.14,10.55-2.68,13.38,2.39c4.48,6.17,8.71,12.51,12.82,18.93c2.61,3.72,4.42,8.15,7.59,11.41c3.88,3.72-0.66,10.4-5.57,8.23
			c-4.28-2.45-6.07-7.82-8.85-11.7c-3.83-6.23-7.61-11.84-11.68-17.67c-2.38,10.27-7.05,19.72-11.32,29.27
			C195.57,386.62,192.6,388.5,189.84,387.71z"/>
		<path d="M194.56,370.79c-0.44-3.11,2.1-5.62,5.11-5.77c8.05-1.92,15.98-4.3,23.94-6.57c6.29-1.68,8.93,7.82,2.66,9.64
			c-6.48,1.89-12.98,3.73-19.5,5.46C202.58,374.81,195.64,376.99,194.56,370.79z"/>
		<path d="M229.78,351.29c-4.69-4.06-0.7-9.19,4.34-10.04c9.66-2.77,19.34-5.83,29.33-7.11c6.47-0.79,7.83,8.97,1.36,9.91
			c-1.94,0.23-3.87,0.58-5.79,0.94c-7.71,1.72-15.35,3.82-22.91,6.12C234.34,352.62,231.63,352.76,229.78,351.29z"/>
		<path d="M255.82,382.93c-0.19-8.85-2.87-17.22-6.35-25.27c-1.05-2.71-2.08-5.44-3.28-8.09c-1.7-2.12-2.04-5.25,0.03-7.28
			c1.97-1.97,5.09-1.87,7.07,0c2.28,2.5,3.16,6.02,4.46,9.08c3.99,9.69,7.84,19.59,7.98,30.21
			C266.58,388.06,256.66,389.39,255.82,382.93z"/>
		<path d="M240.04,477.97c-0.1-0.05-0.2-0.1-0.3-0.15c0.05,0.01,0.09,0.03,0.14,0.04c0.23,0.08,0.46,0.15,0.69,0.23
			C240.4,478.05,240.22,478.01,240.04,477.97z"/>
		<path d="M86.04,194.93c-0.73-9.54,23.82-5.1,30.5-6.5c13.76-1.22,27.55-1.81,41.36-1.66c26.05-0.5,51.96-4.23,77.92-6.36
			c13.02-1.84,26.05-3.49,39.23-3.37c11.59-2.23,12.91,8.83,4.91,9.9c-22.75-0.46-45.05,4.44-67.7,5.71
			c-16.21,1.14-32.3,3.73-48.55,4.09c-10.5,0.13-21-0.06-31.49,0.53c-12.55,1.18-25.12,1.53-37.71,1.75
			C91.07,200.87,86.06,199.52,86.04,194.93z"/>
		<path d="M24.44,494.85c-9.04-5.03-12.08-16.66-11.91-26.37c-0.66-16.77,16.69-25.18,21.93-5.92c1.21,4.22,1.2,8.69,1.37,13.04
			c-0.04,5.87-8.91,5.86-9-0.02c-0.28-5.04,0.02-10.66-2.99-14.99c-7.25,8.83,3.5,40.31,13.42,19.94
			c7.07-18.38,3.77-38.95,2.58-58.08c-0.38-2.42,1.49-4.74,3.87-5.05c6.1-0.47,5.33,7.02,5.71,11.16
			c0.9,18.26,3.31,37.68-3.68,55.07C41.69,492.05,34.37,500.14,24.44,494.85z"/>
		<path d="M59.51,499.49c-8.17-0.22-16.26-1.52-24.44-1.16c-4.1,0.18-10.92,0.72-10.41-5.18c0.33-2.42,2.62-4.15,5.03-3.84
			c8.22-0.02,16.44-0.04,24.61,0.96c9.39,0.51,18.79,0.24,28.19,0.02c54.4-1.23,108.89-1.36,163.21-4.85
			c16.05-0.9,32.13-1.1,48.17-2.14c16.62-1.13,34.72-4.99,34.75-25.26c1.4-15.57-4.64-30.6-4.82-46.15
			c-0.79-5.77,8.09-7.02,8.93-1.18c0.7,10.87,2.31,21.69,4.63,32.36c4.73,41.1-17.15,48.92-53.39,49.77
			c-27.49,0.95-54.97,2.48-82.35,3.94C154.25,497.81,106.89,499.22,59.51,499.49z"/>
		<path d="M17.09,456.02c-1.17-7.13,7.98-6.23,12.6-6.16c4.69,0.26,9.39-0.4,14.07-0.03c2.44,0.28,4.17,2.69,3.84,5.08
			c-0.96,5.51-7.5,3.39-11.46,3.94c-3.88,0.19-7.78-0.14-11.66,0.01C21.31,459.6,18.34,459.74,17.09,456.02z"/>
	</g>
</g>
</svg>
