<?xml version="1.0" encoding="utf-8"?>
<!-- Generator: Adobe Illustrator 27.0.1, SVG Export Plug-In . SVG Version: 6.00 Build 0)  -->
<svg version="1.1" xmlns="http://www.w3.org/2000/svg" xmlns:xlink="http://www.w3.org/1999/xlink" x="0px" y="0px"
	 viewBox="0 0 494.57 461.59" style="enable-background:new 0 0 494.57 461.59;" xml:space="preserve">
<style type="text/css">
	.st0{fill:#FFFFFF;}
	.st1{display:none;}
	.st2{display:inline;}
	.st3{fill:#C3340F;}
	.st4{fill:#F1DA48;}
	.st5{fill:#BFBFBF;}
	.st6{fill:#A93C13;}
	.st7{fill:#49AB80;}
	.st8{fill:#FFF5D3;}
	.st9{fill:#FFF6D3;}
</style>
<g id="Vector_layer_00000055693094104202961020000012611521480546505380_">
</g>
<g id="Vector_layer_00000083056692401482731750000002143268079692121760_" class="st1">
</g>
<g id="Layer_group_00000135655894010939323910000007968388131483226006_">
	<g id="Vector_layer_00000060727446154750124540000003288795569096013724_">
	</g>
	<g id="Vector_layer_00000054256212561802303770000002573030991383270322_">
	</g>
</g>
<g id="Layer_group_00000005956713645723523280000017174557720518139319_">
	<g id="Vector_layer_00000118373964828183826810000003105501113294047875_">
	</g>
	<g id="Vector_layer_00000114792692480223708070000006081800964882002587_">
	</g>
</g>
<g id="Layer_group_00000096753676060204885020000003690522438842904248_">
	<g id="Vector_layer_00000021805737131568542680000011445392356473190274_">
	</g>
	<g id="Vector_layer_00000082341159556701053130000003376809865345571507_">
	</g>
</g>
<g id="Layer_group_00000000196813977188246800000001010744972638326171_">
	<g id="Vector_layer_00000159443569616288308350000001272240939845332411_">
		<path class="st7" d="M64.33,301.96c-1.18-0.75-2.18-1.93-2.73-3.26c-5.02,0.34-12.22,2.41-16.46-0.83
			c-6.43,0.53-8.24-6.41-7.91-11.58c-0.33-10.19,0.09-20.42,1.35-30.54c1.37-13.06-2.02-26.6-0.23-39.87
			c-1.24-7.21-1.69-14.51-1.76-21.81c-0.02-3.05,0.81-6.2-1.02-8.91c-1.58-5.37-2.3-11.01-3.52-16.49
			c-0.36-2.51-1.71-5.07-0.52-7.57c0.65-5.19,7.45-7.98,11.37-4.35c6.78-4.08,14.69,1.96,21.42,3.76
			c14.17,1.14,28.54,1.03,42.67-0.01c12.94-0.74,67.95-9.16,73.56,5.1c10.45,0.38,20.9,1.21,31.35,1.2
			c3.89,0.24,8.19-0.98,11.74,1.05c5.48,3.36,3.32,12.2-3.07,12.74c-25.02,0.48-50.1,0.2-75.11,1.48
			c2.24,11.39-37.29,22.88-45.44,33.09c-8.53,6.35-20.39-6.04-1.13-16.68c-10.98,2.97-21.55,7.72-32.78,9.76
			c-0.36,5.05-0.98,10.07-1.35,15.12c11.36-0.88,8.8,12.71,7.56,19.95c0.83,0.61,1.53,1.41,2.01,2.33c0.01,0.01,0.02,0.03,0.02,0.04
			c8.58,1.92,5.21,12.4,5.79,18.74c11,0.75,7.16,13.89,1.87,19.3c0.45,3-1.52,5.4-3.24,7.56C76.33,296.97,71.92,306.36,64.33,301.96
			z"/>
		<path class="st7" d="M411.36,311.42c-28.19-2.95-56.29-6.21-84.66-4.32c-12.51,0.33-27.33-0.69-37.71-7.86
			c-0.1-0.62-0.27-1.23-0.52-1.82c0.02,0.01,0.03,0.01,0.05,0.02c-0.09-0.19-0.19-0.4-0.29-0.59c-0.3-0.84-0.62-1.66-1.06-2.48
			c-0.23-0.42-0.47-0.82-0.73-1.22c-0.37-0.86-0.74-1.73-1.12-2.6c-0.67-1.53-1.51-2.96-2.43-4.34c-0.61-2.62-1.31-5.2-3.11-7.32
			c-1.47-1.73-2.87-3.49-4.26-5.28c-1.57-2.02-3.39-3.82-5-5.8c-1.37-1.91-2.68-3.84-4.63-5.23c-0.84-0.6-1.74-1.11-2.61-1.67
			c-0.22-0.17-0.44-0.35-0.65-0.54c-1.99-1.89-4.12-3.53-6.68-4.62c-2.1-0.89-4.28-1.56-6.47-2.19c-3.11-0.89-6.27-1.62-9.43-2.33
			c-0.63-0.97-1.53-1.79-2.53-2.33c-2.13-1.14-4.67-1.13-7.02-1.09c-2.98,0.04-5.96,0.16-8.91,0.56
			c-5.79,0.77-11.56,2.45-16.98,4.59c-2.78,1.1-5.55,2.32-8.11,3.88c-2.53,1.54-5.07,3.14-7.13,5.31c-1.67,1.76-2.93,3.73-3,6.12
			c-0.83,0.72-1.63,1.46-2.42,2.22c-1.6,1.55-3.31,3.21-4.5,5.1c-0.77,1.22-1.35,2.54-1.46,3.97c-1.18-0.05-2.35-0.15-3.5-0.31
			c-0.05-0.05-0.09-0.11-0.14-0.16c-0.52-0.84-1.07-1.66-1.69-2.46c-0.85-1.08-1.86-2.19-3.13-2.77c-0.08-0.03-0.16-0.06-0.24-0.1
			c-0.93-0.88-1.9-1.71-2.94-2.43c-2.25-1.56-4.55-2.87-7.13-3.82c-1.21-0.44-2.42-0.87-3.64-1.29c-1.3-0.45-2.6-0.94-3.9-1.41
			c-0.25-0.12-0.49-0.23-0.74-0.35c-2.02-0.92-4.12-1.57-6.27-2.12c-1.62-0.41-3.36-0.57-5.1-0.55c-0.61-0.05-1.23-0.09-1.84-0.12
			c-3.22-0.13-6.48,0.03-9.51,1.24c-1.19,0.48-2.31,1.22-3.18,2.17c-0.3,0.09-0.59,0.18-0.88,0.28c-2.48,0.84-4.83,2-7.19,3.12
			c-2.31,1.1-4.61,2.23-6.88,3.41c0.1-0.05,0.2-0.11,0.31-0.16c-0.24,0.12-0.47,0.24-0.7,0.37c0.09-0.04,0.17-0.09,0.26-0.13
			c-0.09,0.05-0.18,0.09-0.27,0.14c0,0,0.01,0,0.01-0.01c-0.49,0.25-0.97,0.51-1.45,0.76c0.01-0.01,0.03-0.02,0.04-0.02
			c0.04-0.02,0.07-0.04,0.11-0.06c-0.04,0.02-0.08,0.04-0.11,0.06c-0.1,0.05-0.2,0.11-0.3,0.16c-0.05,0.03-0.1,0.05-0.15,0.08
			c0.01,0,0.01-0.01,0.02-0.01c-0.08,0.04-0.15,0.08-0.22,0.11c0.07-0.03,0.13-0.07,0.2-0.1c-2.68,1.43-5.41,3.05-7.68,5.06
			c-0.89,0.21-1.79,0.42-2.69,0.62c-6.42,0.84-12.32-1.71-17.59-4.74c-16.99-2.41-26.95-22.39-18.85-37.47
			C43,207.52,81.64,157.37,112.3,182.11c8.71-4.09,18.68-3.68,28.1-3.92c5.67-22.51,28.9-20.68,47.2-17.86
			c28.98,0.03,58.04,5.71,87.03,7.69c16.35-3.7,33.21-2.46,50.02-1.22c9.27,0.69,18.51,1.37,27.66,1.23
			c9.94-1.77,20.3-0.67,30.36-0.51c1.76,0.02,3.57-0.02,5.4-0.05c8.7-0.15,17.81-0.3,25.02,5.02c4.02,0.33,8.2,0.18,12.4,0.03
			c10.31-0.36,20.72-0.73,29.11,6.01c18.81,15.86,5.46,44.46-17.74,45.24c11.21,8.72,14.59,25.64,5.08,37
			c0.38,1.89,0.55,3.86,0.48,5.87c-0.01,0.22-0.02,0.44-0.04,0.65c15.16,18.43-3.06,44.95-24.51,44.95
			C415.71,312.24,413.54,311.98,411.36,311.42z"/>
		<path class="st7" d="M245.91,266.32c0.06,0.03,0.12,0.05,0.18,0.08c0.01,0,0.01,0.01,0.02,0.01
			C246.04,266.38,245.97,266.35,245.91,266.32z"/>
		<path class="st7" d="M414.92,292.79c-1.54-3.95-1.9-8.17-2.68-12.32c-6.7-4.1-10.94-11.13-11.8-18.88
			c-0.19-3.83-0.37-7.63-1.23-11.43c-2.14-13.74,4.61-22.33,14.17-30.99c4.1-37.19,50.33-36.48,52.49,0.84
			c2.13,5.67,0.05,11.39-0.09,17.08c-1.24,10.49-1.94,21.17-4.02,31.49c0.39,10.54,4.91,20.8-1.88,30.49
			C449,316.86,420.53,312.89,414.92,292.79z M422.61,303.91c-2.37-2.24-4.49-4.74-6.06-7.55c0.03,0.07,0.06,0.13,0.09,0.2
			c0-0.01-0.01-0.02-0.01-0.03c0.56,0.9,1.12,1.81,1.68,2.72c-0.01-0.01-0.01-0.01-0.01-0.01c0.67,0.82,1.34,1.65,2.01,2.47
			C421.07,302.45,421.84,303.19,422.61,303.91z"/>
		<path class="st7" d="M450.59,313.81c-7.51-0.48-14.02-5.74-15.8-13.06c-2.3-1.86-4.67-3.95-5.95-6.58
			c-7.04-12.97,5.73-28.13,19.74-23.65c9.01,2.45,13.58,11.12,18.6,18.22C473.71,300.13,463.22,314.69,450.59,313.81z"/>
		<path class="st7" d="M444.88,231.75c-6.1-1.81-9.57-7.06-11.96-12.59c-3.44-6.21-2.39-14.25,2.51-19.35
			c0.7-2.63-0.21-4.96-0.57-7.58c-0.31-3.26,0.12-6.71,1.62-9.64c5.55-13.31,24.46-16.78,31.78-3.13c2.33,4.36,2.44,9.74,0.62,14.3
			c0.26,3.4-0.16,6.63-0.55,9.96c-0.37,8.28-0.47,18.44-7.12,24.41C456.77,231.98,450.51,233.72,444.88,231.75z"/>
	</g>
	<g id="Vector_layer_00000010310034796367468450000008345494598285716128_">
		<path class="st4" d="M145.55,362.64c-6.29-0.23-12.9-0.24-18.01-4.56c-0.78-0.3-1.55-0.64-2.3-1.02
			c-6.39,0.53-12.89-0.1-18.37-3.62c-3.5-2.24-6.22-5.59-7.69-9.4c-18.58-12.91-26.69-43.52-5.45-57.99
			c3.56-3.6,6.85-7.71,11.73-9.74c2.24-3.11,4.84-5.99,7.55-8.49c10.33-9.9,28.82-13.25,39.69-2.52
			c9.48,0.72,16.22,7.49,21.45,14.66c5.36-14.48,19.42-24.63,34.52-26.74c8.19-5.66,17.89-5.49,27.21-5.7
			c9.39-0.46,16.73,6.23,23.74,11.53c9.27,3.13,16.77,10.42,18.98,20.11c2.52,5.86,5.22,12.04,4.01,18.66
			c9.94,9.32,5.98,24.8-2.96,33.39c-5.95,13.13-23.02,23.21-36.18,13.89c-11.47,5.53-28.12,5.84-35.37-6.26
			c-4.96-1.91-8.96-5.7-14.03-7.42c-1.05,11.27-11.67,20.3-22.8,20.78C165.9,361.01,155.05,362.93,145.55,362.64z"/>
	</g>
	<g id="Vector_layer_00000022532893442924655960000004476625282564101004_">
		<path d="M27.38,300.6c-2.35-48.19,1.08-96.78-6.87-144.59c-1-10.2,13.81-10.69,13.96-0.44c5.82,37.68,5.84,75.88,5.58,113.9
			c0.35,10.28,1.24,20.53,1.2,30.82c0.06,3.78-2.99,6.99-6.78,7.08C30.71,307.46,27.44,304.38,27.38,300.6z"/>
		<path d="M329.79,314.11c-13.1-0.44-26.22-0.74-39.33-0.94c0.29-0.95,0.48-1.92,0.61-2.83c0.32-2.35,0.61-4.83,0.01-7.16
			c-0.16-0.61-0.37-1.2-0.65-1.74c-0.02-0.63-0.09-1.27-0.21-1.94c-0.01-0.06-0.02-0.12-0.04-0.18c26.84,0.36,53.67,1.09,80.45,2.68
			c34.54,2.14,69.09,5.94,103.7,5.85c-0.13,0.88-0.15,1.8-0.21,2.63c-0.07,1.14-0.12,2.29-0.12,3.44c-0.01,0.01-0.02,0.02-0.03,0.02
			c-1.64,1.02-3.3,2.02-4.93,3.07c-1.36,0.88-2.72,1.77-4.05,2.7c-0.43,0.15-0.86,0.31-1.28,0.48c-1.11,0.44-2.19,0.91-3.27,1.41
			C416.84,320.22,373.44,314.69,329.79,314.11z"/>
		<path d="M55.17,309.36c-8.38-1.58-27.79-0.27-29.89-10.01c-0.61-3.72,2.03-7.34,5.75-7.93c3.21-0.56,5.56,1.88,8.68,2.02
			c15.12,1.99,30.32,3.18,45.56,3.89c-0.57,0.83-1.14,1.67-1.7,2.52c-1.01,1.56-2.28,3.37-2.45,5.26c-0.52,1.32-1,2.64-1.33,4.03
			c-0.05,0.23-0.1,0.46-0.15,0.69c-0.09,0.27-0.17,0.55-0.25,0.82C71.31,310.3,63.24,309.87,55.17,309.36z"/>
		<path d="M471.17,176.19c-16.28-1.51-32.73-0.06-49.08-1.13c-24.23-0.03-48.35-2.32-72.52-3.64
			c-54.48-2.54-109.03-3.23-163.45-6.85c-52.67-4.16-106.36,1.67-158.4-7.88c-12.7,0.25-10.45-19.09,6.29-13.11
			c41.1,7.71,83.31,3.84,124.9,5.86c79.51,4.82,159.2,5.65,238.68,11.14c25.01,1.41,50.17,0.21,75.11,1.82
			C481.47,163.45,480.32,177.08,471.17,176.19z"/>
		<path d="M462.68,315.63c-5.09-3.66-0.63-39.45-0.94-47.88c0.95-32.07,2.16-64.14,1.99-96.23c-0.68-4.31,0.85-9.38,5.78-10.13
			c11.54-0.65,7.46,14.52,8.13,21.84c-0.72,17.05-0.17,35.55-0.95,52.32c-0.82,20.54-1.61,41.09-2.27,61.64
			c-0.12,3.86-0.39,7.76-0.19,11.63c-0.04,0.57-0.07,1.13-0.1,1.66c-0.05,0.81-0.09,1.62-0.1,2.43c-0.19,0.53-0.45,1.02-0.77,1.48
			c-1.41,0.87-2.82,1.73-4.21,2.62c-0.17,0.11-0.34,0.22-0.52,0.33c-0.45,0.08-0.9,0.13-1.36,0.13
			C465.55,317.48,463.93,316.92,462.68,315.63z"/>
		<path d="M465.77,322.51c-4.43-1.08-8.98-0.3-13.45-0.98c-8.98-1.45-7.24-14.75,1.79-13.74c1.87,0.32,3.77,0.18,5.65,0.2
			c-0.15-3.64-0.69-7.31,0.22-10.9c2.53-8.73,15.49-5.31,13.4,3.54C472.68,308.18,478.31,323.1,465.77,322.51z"/>
	</g>
	<g id="Vector_layer_00000116938941117521812450000007244229505113456513_">
		<path d="M141.68,372.1c-46.76-1.11-94.33-40.55-63.47-88.23c18.51-28.01,63.41-46.61,90.52-20.34
			c15.51,12.94,35.89,30.96,36.61,52.48c1.66,31.82-29.65,56.23-59.84,56.23C144.22,372.23,142.94,372.19,141.68,372.1z
			 M89.69,291.59c-23.49,35.5,13.48,63.34,47.1,66.32c25.76,4.15,57.49-15.04,54.55-43.54c-0.84-7.58-5.17-13.74-10.08-19.4
			c-0.25-0.55-0.58-1.06-0.91-1.56c-0.47-0.7-0.95-1.39-1.48-2.04c-1.06-1.28-2.17-2.53-3.33-3.71c-1.45-1.48-3.02-2.87-4.68-4.15
			c-0.95-1.06-1.92-2.11-2.94-3.1c-1.42-1.37-2.94-2.64-4.58-3.73c-0.18-0.12-0.37-0.24-0.56-0.37c-0.3-0.27-0.59-0.55-0.89-0.82
			c-0.77-0.7-1.58-1.37-2.39-2.03c-0.38-0.31-0.76-0.66-1.17-0.94c-0.36-0.24-0.74-0.44-1.14-0.6c-0.58-0.41-1.19-0.79-1.83-1.08
			c-4.98-4.44-11.25-6.32-17.99-6.32C119.49,264.52,98.37,277.78,89.69,291.59z"/>
	</g>
	<g id="Vector_layer_00000142881445914887737530000018275663708537143743_">
		<path d="M217.75,357.12c-11.85-2.21-22.41-8.48-31.74-15.87c-0.35-0.25-0.7-0.5-1.05-0.76c0.35-0.33,0.67-0.69,0.96-1.08
			c0.14-0.19,0.28-0.38,0.41-0.58c1.33-1.55,2.32-3.39,2.99-5.34c0.85-1.49,1.7-3.1,1.98-4.7c0.05-0.29,0.09-0.58,0.11-0.86
			c0.29,0.23,0.58,0.46,0.88,0.69c12.66,10.98,28.94,17.8,45.88,16.29c12.71-1.82,26.84-4.57,35.91-14.39
			c20.14-24.98,5.1-58.94-20.66-72.99c-27.41-19.96-66.11-2.29-74.42,27.18c-1.25-1.56-2.67-3.01-4.35-4.07
			c-2.34-1.47-5.2-2.17-7.9-1.76c0.66-2.12,1.35-4.17,2.01-6.11c13.36-31.9,55.93-47.93,86.32-30.36
			c9.29,5.32,18.26,11.58,25.57,19.46c20.53,21.9,23.17,60.19,0.31,81.39c-13.01,10.36-30.13,15.55-46.94,15.55
			C228.53,358.8,223.04,358.24,217.75,357.12z"/>
	</g>
</g>
<g id="Layer_group_00000086664090508187033660000015622036831865322421_">
	<g id="Vector_layer_00000133507980477791719550000014485879647521063059_">
	</g>
	<g id="Vector_layer_00000092425111748449878830000004048094310013317519_">
	</g>
</g>
</svg>
