<?xml version="1.0" encoding="utf-8"?>
<!-- Generator: Adobe Illustrator 27.0.1, SVG Export Plug-In . SVG Version: 6.00 Build 0)  -->
<svg version="1.1" xmlns="http://www.w3.org/2000/svg" xmlns:xlink="http://www.w3.org/1999/xlink" x="0px" y="0px"
	 viewBox="0 0 504 352" style="enable-background:new 0 0 504 352;" xml:space="preserve">
<style type="text/css">
	.st0{fill:#333333;}
	.st1{fill:#603813;}
</style>
<g id="Layer_2">
	<g>
		<g>
			<path class="st0" d="M60.4,253.25c-17.13,4.01-24.2-15.74-23.28-29.13c-2.11,1.61-4.22,3.21-6.33,4.82
				c20.25,4.4,40.89,6.71,61.62,6.84c-0.44-3.27-0.89-6.55-1.33-9.82c-15.88,2.61-32.03,2.08-48.05,1.56
				c-3.74-0.12-6.3,4.36-4.32,7.52c0.97,1.56,1.95,3.11,2.92,4.67c2.28-2.28,4.56-4.56,6.84-6.84c-3.17-1.84-6.33-3.69-9.5-5.53
				c-4.91-2.86-10.07,3.79-6.06,7.85c10.31,10.45,22.65,18.2,36.45,23.16c0.44-3.27,0.89-6.55,1.33-9.82
				c-6.78-0.49-13.2-2.16-19.46-4.79c-0.89,3.21-1.77,6.43-2.66,9.64c4.49,0.96,8.79,2.32,12.94,4.3c1.28-3.05,2.57-6.09,3.85-9.14
				c-9.62-3.43-18.65-8.02-27.18-13.62c-0.84,3.11-1.68,6.21-2.52,9.32c22.6,3.03,45.39,3.58,68.1,1.65c6.52-0.55,6.33-9.22,0-10
				c-13.15-1.62-26.29-3.23-39.44-4.85c0,3.33,0,6.67,0,10c7.86,0.79,15.32,3.17,22.26,6.92c0.84-3.11,1.68-6.21,2.52-9.32
				c-5.16,0.38-10.31,0.76-15.47,1.14c-5.45,0.4-7,8.22-1.33,9.82c9.49,2.67,18.97,5.35,28.46,8.02c0.44-3.27,0.89-6.55,1.33-9.82
				c-14.09,0.62-28.19,0.86-42.3,0.7c0,3.33,0,6.67,0,10c6.44-0.19,12.89-0.38,19.33-0.57c4.51-0.13,7.39-7.25,2.52-9.32
				c-5.79-2.46-11.62-4.44-17.78-5.78c-0.44,3.27-0.89,6.55-1.33,9.82c7.76-0.86,15.06,0.38,21.94,4.11c0.4-3.05,0.8-6.09,1.19-9.14
				c-7.29,1.6-14.41,3.69-21.4,6.3c-4.7,1.76-4.76,7.9,0,9.64c36.53,13.34,75.9,1.5,113.15,10.11c0.44-3.27,0.89-6.55,1.33-9.82
				c-33,0.64-65.75-3.67-97.47-12.82c-0.44,3.27-0.89,6.55-1.33,9.82c32.98-4.28,66.25-4.35,99.45-4.32c0-3.33,0-6.67,0-10
				c-25.22,2.19-50.49,3.64-75.79,4.33c0,3.33,0,6.67,0,10c28.44-1.3,56.9-0.49,85.22,2.43c0-3.33,0-6.67,0-10
				c-12.73,0.96-25.48,1.38-38.24,1.24c0,3.33,0,6.67,0,10c20.14-0.97,40.5-1.88,60.2,3.26c0-3.21,0-6.43,0-9.64
				c-12,2.36-23.97,4.84-35.91,7.45c-5.78,1.26-4.04,9.45,1.33,9.82c20.05,1.37,41.4,2.41,61.03-2.8
				c15.95-4.23,31.82-16.7,30.25-34.87c-0.2-2.29-1.43-4.12-3.67-4.82c-27.99-8.73-57.28-11.53-86.43-8.66
				c-14.68,1.44-29.17,2.84-43.95,2.47c-15.53-0.39-31-1.97-46.44-3.54c-5.26-0.54-6.34,6.86-2.52,9.32
				c10.67,6.86,22.56,11.38,35.11,13.25c0.44-3.27,0.89-6.55,1.33-9.82c-9.81-0.75-19.63-1.49-29.44-2.24
				c-4.78-0.36-7.05,7.32-2.52,9.32c12.68,5.58,25.85,8.85,39.68,9.72c0-3.33,0-6.67,0-10c-12.25-0.1-24.51-0.19-36.76-0.29
				c0,3.33,0,6.67,0,10c34.99-0.17,69.97-1.03,104.93-2.59c5.36-0.24,7.12-8.67,1.33-9.82c-28.35-5.65-57.25-6.54-86.07-7.25
				c-6.48-0.16-6.37,9.58,0,10c35.94,2.36,71.96,2.75,107.94,1.16c5.31-0.23,7.18-8.96,1.33-9.82c-21.41-3.15-42.95-3.9-64.52-1.94
				c-5.16,0.47-7.31,8.8-1.33,9.82c28.57,4.89,57.51,5.75,86.42,6.43c0-3.33,0-6.67,0-10c-6.83-0.1-13.23-1.41-19.59-3.86
				c-0.44,3.27-0.89,6.55-1.33,9.82c6.06-0.24,12.12-0.48,18.18-0.72c6.49-0.26,6.37-9.5,0-10c-6.73-0.53-13.45-1.06-20.18-1.6
				c0,3.33,0,6.67,0,10c5.67,0,11.34,0.16,17,0.55c1.45,0.1,15.02,0.35,15.39,1.89c0.37,1.56-8.97,8.25-10.28,9.28
				c-4.02,3.16-8.31,6.02-12.81,8.46c-8.3,4.51-18.21,7.93-27.79,7.15c-0.35-0.03-2.84-0.58-2.18,0.42
				c-0.3-0.46,0.39-2.41,0.36-2.99c-0.1-1.96-0.98-3.69-2.25-5.12c-3.17-3.56-9.04-5.49-13.18-7.63c-0.84,3.11-1.68,6.21-2.52,9.32
				c19.38-2.39,38.86-3.42,58.38-3.07c0-3.33,0-6.67,0-10c-20.44-0.32-40.68-2.73-60.62-7.26c0,3.21,0,6.43,0,9.64
				c18.97-2.58,38.01-4.65,57.09-6.26c-0.44-3.27-0.89-6.55-1.33-9.82c-10.62,2.39-21.31,4.34-32.09,5.83
				c-6.01,0.83-3.79,9.29,1.33,9.82c14.53,1.51,29.11,2.04,43.72,1.59c0-3.33,0-6.67,0-10c-7.3,0.46-14.43,1.71-21.42,3.9
				c-4.47,1.4-5.04,8.54,0,9.64c12.86,2.82,25.66,1.21,37.44-4.67c4.3-2.14,2.38-7.65-1.19-9.14c-4.51-1.88-9.18-3.44-14-4.32
				c-4.91-0.9-7.19,2.64-10.72,5.51c-7.52,6.09-16.19,10.77-25.29,14.01c1.28,3.05,2.57,6.09,3.85,9.14
				c5.94-2.81,12.26-4.45,18.82-4.92c-0.84-3.11-1.68-6.21-2.52-9.32c-8.9,3.8-18.49,6.2-28.14,6.92
				c-3.11,0.23-22.69,1.97-23.2-3.11c-1.22,1.61-2.45,3.21-3.67,4.82c11.47-1.65,22.94-3.3,34.41-4.94c4.19-0.6,4.9-7.39,1.19-9.14
				c-14.4-6.82-29.96-8.66-45.65-10.22c0,3.33,0,6.67,0,10c8.8-0.57,17.44-0.03,26.07,1.79c0.44-3.27,0.89-6.55,1.33-9.82
				c-30.41,3.15-60.9-0.22-89.87-9.99c-6.11-2.06-8.73,7.59-2.66,9.64c29.71,10.02,61.34,13.58,92.53,10.34
				c5.17-0.54,7.29-8.56,1.33-9.82c-9.48-2-19.06-2.77-28.73-2.15c-6.5,0.42-6.36,9.37,0,10c13.8,1.37,27.91,2.85,40.6,8.86
				c0.4-3.05,0.8-6.09,1.19-9.14c-11.47,1.65-22.94,3.3-34.41,4.94c-1.97,0.28-3.87,2.85-3.67,4.82
				c1.25,12.61,16.03,13.34,25.95,13.37c14,0.04,27.59-3.06,40.43-8.54c4.57-1.95,2.23-9.66-2.52-9.32
				c-8.43,0.61-16.23,2.68-23.86,6.29c-5.08,2.4-1.49,11.04,3.85,9.14c12.96-4.61,24.62-11.62,34.71-20.97
				c-1.62,0.43-3.24,0.86-4.86,1.29c5.12,1,10.03,2.48,14.85,4.48c-0.4-3.05-0.8-6.09-1.19-9.14c-9.26,4.62-19.63,5.87-29.73,3.66
				c0,3.21,0,6.43,0,9.64c6.15-1.93,12.33-3.14,18.76-3.54c6.37-0.4,6.48-10.2,0-10c-14.6,0.45-29.18-0.08-43.72-1.59
				c0.44,3.27,0.89,6.55,1.33,9.82c10.78-1.49,21.48-3.43,32.09-5.83c5.41-1.22,4.35-10.3-1.33-9.82
				c-19.97,1.69-39.89,3.91-59.75,6.62c-4.98,0.68-4.55,8.61,0,9.64c20.78,4.72,41.97,7.28,63.28,7.61c6.44,0.1,6.44-9.88,0-10
				c-19.52-0.35-39,0.67-58.38,3.07c-4.43,0.55-7.41,6.78-2.52,9.32c1.6,0.83,3.21,1.67,4.81,2.5c1.28,0.66,4.55,1.65,5.37,2.82
				c0.68,0.97-0.15,4.59,1.33,6.7c3.28,4.68,9.7,4.89,14.86,4.67c13.47-0.56,26.29-6.14,37.23-13.78
				c6.93-4.83,27.03-17.47,17.35-27.7c-3.88-4.1-10.43-4.14-15.63-4.67c-8.15-0.83-16.34-1.19-24.53-1.19c-6.51,0-6.34,9.5,0,10
				c6.73,0.53,13.45,1.06,20.18,1.6c0-3.33,0-6.67,0-10c-6.06,0.24-12.12,0.48-18.18,0.72c-5.86,0.23-6.5,7.84-1.33,9.82
				c7.16,2.75,14.59,4.1,22.25,4.22c6.44,0.1,6.43-9.85,0-10c-28-0.66-56.1-1.33-83.76-6.07c-0.44,3.27-0.89,6.55-1.33,9.82
				c20.61-1.87,41.37-1.44,61.86,1.58c0.44-3.27,0.89-6.55,1.33-9.82c-35.98,1.59-72.01,1.21-107.94-1.16c0,3.33,0,6.67,0,10
				c27.91,0.69,55.94,1.42,83.41,6.9c0.44-3.27,0.89-6.55,1.33-9.82c-34.96,1.56-69.94,2.42-104.93,2.59c-6.44,0.03-6.44,9.95,0,10
				c12.25,0.1,24.51,0.19,36.76,0.29c6.48,0.05,6.38-9.6,0-10c-11.95-0.75-23.67-3.53-34.64-8.35c-0.84,3.11-1.68,6.21-2.52,9.32
				c9.81,0.75,19.63,1.49,29.44,2.24c5.54,0.42,6.93-8.99,1.33-9.82c-11.78-1.76-22.7-5.8-32.72-12.24
				c-0.84,3.11-1.68,6.21-2.52,9.32c14.8,1.51,29.62,3.02,44.5,3.49c14.79,0.46,29.31-0.73,44-2.23
				c29.02-2.97,57.76-0.59,85.66,8.12c-1.22-1.61-2.45-3.21-3.67-4.82c1.44,16.65-15.56,24.19-29.3,26.62
				c-17.08,3.01-34.77,2.23-51.98,1.06c0.44,3.27,0.89,6.55,1.33,9.82c11.94-2.61,23.91-5.09,35.91-7.45c4.94-0.97,4.58-8.45,0-9.64
				c-20.57-5.37-41.81-4.63-62.85-3.61c-6.4,0.31-6.48,9.93,0,10c12.77,0.14,25.51-0.28,38.24-1.24c6.49-0.49,6.37-9.34,0-10
				c-28.32-2.91-56.78-3.72-85.22-2.43c-6.4,0.29-6.46,10.18,0,10c25.3-0.69,50.58-2.14,75.79-4.33c6.31-0.55,6.54-10,0-10
				c-33.2-0.02-66.47,0.04-99.45,4.32c-5.26,0.68-7.18,8.13-1.33,9.82c32.51,9.38,66.3,13.83,100.12,13.18
				c5.49-0.11,6.98-8.52,1.33-9.82c-37.22-8.6-76.81,3.17-113.15-10.11c0,3.21,0,6.43,0,9.64c6.99-2.61,14.11-4.71,21.4-6.3
				c4.19-0.92,4.88-7.14,1.19-9.14c-8.33-4.52-17.55-6.52-26.99-5.48c-5.16,0.57-7.31,8.52-1.33,9.82
				c5.26,1.14,10.43,2.66,15.39,4.77c0.84-3.11,1.68-6.21,2.52-9.32c-6.44,0.19-12.89,0.38-19.33,0.57c-6.42,0.19-6.46,9.93,0,10
				c14.11,0.16,28.21-0.07,42.3-0.7c5.54-0.25,6.9-8.25,1.33-9.82c-9.49-2.67-18.97-5.35-28.46-8.02c-0.44,3.27-0.89,6.55-1.33,9.82
				c5.16-0.38,10.31-0.76,15.47-1.14c4.65-0.34,7.18-6.8,2.52-9.32c-8.56-4.63-17.63-7.32-27.3-8.28c-6.45-0.64-6.27,9.23,0,10
				c13.15,1.62,26.29,3.23,39.44,4.85c0-3.33,0-6.67,0-10c-22.72,1.93-45.51,1.38-68.1-1.65c-5.32-0.71-6.22,6.89-2.52,9.32
				c9.25,6.08,19.15,10.91,29.57,14.63c5.29,1.88,8.98-6.7,3.85-9.14c-4.93-2.35-9.98-4.16-15.33-5.31
				c-6.46-1.38-8.47,7.2-2.66,9.64c7.1,2.98,14.45,4.6,22.12,5.14c5.94,0.42,6.34-8.02,1.33-9.82
				c-12.17-4.37-22.97-11.4-32.04-20.59c-2.02,2.62-4.04,5.24-6.06,7.85c3.17,1.84,6.33,3.69,9.5,5.53
				c4.23,2.46,9.53-2.54,6.84-6.84c-0.97-1.56-1.95-3.11-2.92-4.67c-1.44,2.51-2.88,5.02-4.32,7.52
				c16.98,0.55,33.89,0.85,50.71-1.92c5.67-0.93,4.16-9.79-1.33-9.82c-19.86-0.12-39.55-2.26-58.96-6.48
				c-3.33-0.72-6.1,1.47-6.33,4.82c-0.73,10.58,1.56,21.62,8.68,29.78c6.75,7.74,17.27,11.33,27.26,8.99
				C69.32,261.43,66.67,251.78,60.4,253.25L60.4,253.25z"/>
		</g>
	</g>
	<g>
		<g>
			<path class="st0" d="M117.01,263.95c11.74,0,23.48,0,35.21,0c6.43,0,6.45-10,0-10c-11.74,0-23.48,0-35.21,0
				C110.57,253.95,110.56,263.95,117.01,263.95L117.01,263.95z"/>
		</g>
	</g>
</g>
<g id="Layer_3">
	<g>
		<g>
			<path class="st1" d="M96.71,201.21c-15.32-2.59-30.63,4.02-45.76,0.76c1.16,2.05,2.33,4.1,3.49,6.15
				c2.3-6.2,8.57-12.14,13.14-16.76c5.16-5.22,11.09-9.64,18.47-10.96c7.8-1.39,15.97-1.54,23.85-2.62
				c8.53-1.18,17.06-1.35,25.66-1.28c8.54,0.08,17.08,0.14,25.62,0.28c7.87,0.12,15.51,0.84,22.66,4.38
				c6.6,3.26,11.78,8.69,18.64,11.48c7.27,2.96,15.22,3.24,22.97,3.4c-0.84-3.11-1.68-6.21-2.52-9.32
				c-6.09,4.17-11.26,11.91-7.69,19.43c2.95,6.19,11.06,9.39,16.98,5.35c-2.02-0.26-4.04-0.52-6.06-0.78
				c0.04,0.04,0.08,0.08,0.12,0.12c0.74-2.79,1.47-5.57,2.21-8.36c-0.14,0.04-0.27,0.09-0.41,0.13c1.88,0.77,3.76,1.53,5.65,2.3
				c-0.05-0.09-0.1-0.18-0.15-0.27c-0.6,2.28-1.2,4.56-1.79,6.84c0.24-0.13,0.49-0.26,0.73-0.39c-1.28,0.17-2.57,0.34-3.85,0.5
				c3.13,0.76,5.93,1.33,9.18,1.33c1.09,0,8.86-0.67,8.63,1.79c-0.27,2.76-21.21-0.36-23.59-0.61c-16.72-1.72-33.28-2.97-50.1-2.87
				c-33.21,0.2-66.28-5.56-99.47-4.25c-4.53,0.18-9.04,0.58-13.55,1.03c-0.73,0.07-1.46,0.19-2.2,0.21
				c-0.23,0.01-2.99-0.15-2.22,0.35c0.51,0.33,2.54-2.38,3.45-3.39c5.34-5.9,11.54-15.74,19.58-17.97c-1.88-2.45-3.76-4.9-5.65-7.34
				c-4.98,7.86-10.32,15.46-16.09,22.76c2.62,2.02,5.24,4.04,7.85,6.06c5.62-8.79,12.2-16.74,19.74-23.96
				c-1.18,0.49-2.36,0.98-3.54,1.46c10.42,1.2,20.84,2.39,31.25,3.59c0-3.33,0-6.67,0-10c-12.99,0.08-25.95,0.36-38.73,2.91
				c0.89,3.21,1.77,6.43,2.66,9.64c16.49-3.38,32.73-7.78,48.67-13.17c5.04-1.7,4.6-10.27-1.33-9.82c-7.86,0.59-15.52,2-23.04,4.38
				c-5.1,1.62-4.54,10.38,1.33,9.82c10.36-0.99,20.73-1.98,31.09-2.97c-0.44-3.27-0.89-6.55-1.33-9.82
				c-19.32,3.56-38.45,8.02-57.36,13.38c-5.24,1.48-4.46,10.3,1.33,9.82c8.2-0.68,16.37-0.47,24.49,0.86c0-3.21,0-6.43,0-9.64
				c-7.54,1.66-15.08,3.31-22.62,4.97c-5.72,1.26-4.1,9.54,1.33,9.82c6.68,0.35,13.35,0.43,20.03,0.24c0-3.33,0-6.67,0-10
				c-13.91,0.74-27.67,2.91-41.12,6.54c-5.35,1.44-4.4,10.05,1.33,9.82c8.91-0.35,17.81-0.71,26.72-1.06
				c8.46-0.34,17.14-1.19,25.52,0.45c0.44-3.27,0.89-6.55,1.33-9.82c-3.69,0.02-7.38,0.03-11.07,0.05c-6.5,0.03-6.36,9.54,0,10
				c30.72,2.24,61.44,4.49,92.15,6.73c0-3.33,0-6.67,0-10c-31.85,0.23-63.7,0.45-95.55,0.68c-5.41,0.04-7.08,9.04-1.33,9.82
				c16.93,2.3,33.93,3.56,51.02,3.63c6.59,0.02,6.24-9.3,0-10c-5.29-0.6-10.58-1.19-15.86-1.79c0.44,3.27,0.89,6.55,1.33,9.82
				c19.07-2.81,38.85-1.96,58.08-2.14c9.54-0.09,19.07-0.14,28.61-0.17c7.51-0.02,18.12-1.63,24.19,3.79
				c1.18-2.85,2.36-5.69,3.54-8.54c-15.88,1.51-31.67-1.68-47.53-2.14c-16.26-0.48-32.58-0.06-48.85,0.01
				c0.44,3.27,0.89,6.55,1.33,9.82c12.41-1.99,24.82-3.97,37.23-5.96c10.05-1.61,20.01-2.79,28.08-9.54
				c2.59-2.17,1.47-6.25-1.01-7.85c-6.3-4.07-13.8-2.07-20.79-3.5c-7.69-1.57-14.44-5.44-19.91-11.02
				c-0.74,2.79-1.47,5.57-2.21,8.36c4.12-1.36,8.32-0.61,11.78,2.11c1.6,1.26,3.04,3.01,3.81,4.92c0.79,1.97-0.35,2.93,2.45,1.37
				c2.52-1.4,1.51-1.29-0.51-2.61c-8.67-5.67-18.97-7.28-29.06-5.41c-3.77,0.7-4.72,5.88-2.21,8.36c5.87,5.78,13.62,8.78,21.87,8.07
				c2.88-0.25,6.12-3.05,4.82-6.33c-2.73-6.87-12.75-9.15-15.97-1.15c-3.01,7.48,4.76,14.53,11.96,11.18
				c8.08-3.76,5.36-13.91-0.08-18.63c-5.53-4.8-15.13-5.89-18.9-12.44c-1,2.45-1.99,4.9-2.99,7.34c2.37-0.69,4.53-0.98,6.99-0.56
				c0.44-3.27,0.89-6.55,1.33-9.82c-14.64-1.13-29.69-2.18-44.07,1.58c-11.32,2.96-23.29,9.66-24.06,22.6c-0.16,2.65,2.42,5.07,5,5
				c20.59-0.58,41.18-1.16,61.77-1.74c-1.61-2.11-3.21-4.22-4.82-6.33c-0.3,1.22-0.59,2.44-0.89,3.66c1.61-1.22,3.21-2.45,4.82-3.67
				c-7.97,0.1-15.93,0.2-23.9,0.3c-4.64,0.06-17.56,2.42-18.98-3.88c-1.16,2.05-2.33,4.1-3.49,6.15c12.5-5.1,25.47-8.6,38.83-10.49
				c5.56-0.78,4.27-10.18-1.33-9.82c-11.05,0.7-22,2.26-32.8,4.7c-4.58,1.03-4.96,8.9,0,9.64c10.55,1.58,21.13,2.44,31.8,2.43
				c6.44-0.01,6.44-9.88,0-10c-5.66-0.1-11.12,0.83-16.38,2.94c-5.93,2.38-3.77,10.83,2.66,9.64c12.11-2.24,24.23-4.47,36.34-6.71
				c5.73-1.06,4.09-9.63-1.33-9.82c-25.82-0.92-51.23,4.15-76.39,9.32c-6.3,1.29-3.63,10.93,2.66,9.64
				c24.33-5,48.77-9.85,73.73-8.96c-0.44-3.27-0.89-6.55-1.33-9.82c-12.11,2.24-24.23,4.47-36.34,6.71
				c0.89,3.21,1.77,6.43,2.66,9.64c4.49-1.8,8.88-2.68,13.72-2.59c0-3.33,0-6.67,0-10c-9.76,0.02-19.48-0.62-29.14-2.07
				c0,3.21,0,6.43,0,9.64c9.94-2.25,19.97-3.7,30.14-4.34c-0.44-3.27-0.89-6.55-1.33-9.82c-13.37,1.88-26.34,5.39-38.83,10.49
				c-2.6,1.06-4.15,3.24-3.49,6.15c2.04,9.04,11.12,11.35,19.24,11.33c11.09-0.03,22.19-0.27,33.28-0.41
				c2.14-0.03,4.3-1.53,4.82-3.67c0.3-1.22,0.59-2.44,0.89-3.66c0.75-3.07-1.48-6.42-4.82-6.33c-20.59,0.58-41.18,1.16-61.77,1.74
				c1.67,1.67,3.33,3.33,5,5c0.6-10.12,15.9-13.22,23.67-14.38c11.37-1.69,23.06-0.68,34.46,0.2c5.55,0.43,6.91-8.88,1.33-9.82
				c-4.25-0.72-8.15-0.65-12.3,0.56c-3.11,0.91-4.62,4.51-2.99,7.35c2.49,4.32,6.27,7.09,10.66,9.3c2.15,1.08,4.37,2.01,6.49,3.15
				c1.12,0.61,2.33,1.21,3.31,2.02c0.32,0.28,0.64,0.56,0.96,0.83c1.23,0.87,1.41,1.99,0.55,3.36c1.61-2.11,3.21-4.22,4.82-6.33
				c-5.72,0.49-10.67-1.08-14.8-5.14c-0.74,2.79-1.47,5.57-2.21,8.36c8.52-1.58,15.49,0.97,22.62,5.3
				c6.44,3.91,13.21,0.9,12.31-7.18c-1.46-13.2-16.45-21.84-28.72-17.78c-3.55,1.17-4.93,5.57-2.21,8.36
				c5.52,5.63,12.17,9.86,19.67,12.34c3.47,1.15,7.1,1.83,10.74,2.15c4.05,0.35,8.75-0.7,12.31,1.6c-0.34-2.62-0.67-5.24-1.01-7.85
				c-7.17,5.99-18.77,6.18-27.58,7.59c-11.1,1.78-22.21,3.55-33.31,5.33c-5.65,0.9-4.18,9.84,1.33,9.82
				c16.27-0.07,32.58-0.5,48.85-0.01c15.86,0.48,31.65,3.66,47.53,2.14c3.95-0.38,7.05-5.4,3.54-8.54
				c-6.37-5.68-14.36-6.67-22.61-6.73c-11.1-0.08-22.21,0.05-33.31,0.14c-21.48,0.18-43.38-0.6-64.68,2.53
				c-6.04,0.89-3.76,9.25,1.33,9.82c5.29,0.6,10.58,1.19,15.86,1.79c0-3.33,0-6.67,0-10c-16.17-0.06-32.33-1.1-48.36-3.27
				c-0.44,3.27-0.89,6.55-1.33,9.82c31.85-0.23,63.7-0.45,95.55-0.68c6.5-0.05,6.36-9.54,0-10c-30.72-2.24-61.44-4.49-92.15-6.73
				c0,3.33,0,6.67,0,10c3.69-0.02,7.38-0.03,11.07-0.05c5.47-0.02,7.01-8.71,1.33-9.82c-8.71-1.7-17.38-1.23-26.19-0.88
				c-9.57,0.38-19.13,0.76-28.7,1.14c0.44,3.27,0.89,6.55,1.33,9.82c12.61-3.4,25.41-5.48,38.46-6.18c6.38-0.34,6.47-10.18,0-10
				c-6.68,0.18-13.36,0.1-20.03-0.24c0.44,3.27,0.89,6.55,1.33,9.82c7.54-1.66,15.08-3.31,22.62-4.97c4.63-1.02,4.91-8.84,0-9.64
				c-9.04-1.48-18.01-1.97-27.15-1.22c0.44,3.27,0.89,6.55,1.33,9.82c18.91-5.35,38.03-9.82,57.36-13.38
				c5.48-1.01,4.3-10.36-1.33-9.82c-10.36,0.99-20.73,1.98-31.09,2.97c0.44,3.27,0.89,6.55,1.33,9.82c6.67-2.12,13.4-3.5,20.38-4.02
				c-0.44-3.27-0.89-6.55-1.33-9.82c-15.95,5.39-32.18,9.79-48.67,13.17c-6.31,1.29-3.63,10.9,2.66,9.64
				c11.89-2.37,24-2.48,36.08-2.55c6.59-0.04,6.24-9.28,0-10c-6.51-0.75-13.02-1.49-19.53-2.24c-5.02-0.58-11.77-2.98-15.87,0.71
				c-8.06,7.26-14.87,16.29-20.69,25.4c-3,4.69,4.29,10.56,7.85,6.06c6.3-7.97,12.21-16.2,17.65-24.78
				c2.36-3.73-1.54-8.48-5.65-7.35c-9.57,2.66-15.68,11.36-22.04,18.39c-4.89,5.4-13.21,13.84-4.33,20.17
				c3.13,2.23,6.74,2.24,10.41,1.89c5.81-0.56,11.59-1.02,17.43-1.14c11.34-0.23,22.68,0.41,33.99,1.26
				c22.59,1.7,44.9,3.08,67.56,3.08c11.5,0,22.93,0.76,34.38,1.9c5.53,0.55,11.06,1.15,16.59,1.69c5.33,0.52,11.36,1.78,16.67,0.68
				c8.31-1.72,13.88-11.28,7.08-18.17c-3.19-3.24-7.68-4.34-12.08-4.45c-2.85-0.07-5.44,0.14-8.25-0.39
				c-2.61-0.49-3.95-0.93-6.4,0.39c-2.41,1.3-3.08,4.55-1.79,6.84c0.05,0.09,0.1,0.18,0.15,0.27c1.05,1.87,3.57,2.95,5.65,2.3
				c0.14-0.04,0.27-0.09,0.41-0.13c3.56-1.12,4.93-5.62,2.21-8.36c-0.04-0.04-0.08-0.08-0.12-0.12c-1.47-1.48-4.25-2.02-6.06-0.78
				c-1.36,0.93-2.83-0.11-3.07-1.71c-0.34-2.34,2.18-4.65,3.86-5.8c4.01-2.74,2.65-9.21-2.52-9.32c-9.1-0.18-17.38-0.7-25.1-5.96
				c-6.57-4.47-12.67-8.87-20.43-11.1c-8.59-2.48-17.65-2.18-26.49-2.28c-9.24-0.1-18.51-0.38-27.76-0.17
				c-8.82,0.2-17.4,1.66-26.14,2.66c-8.59,0.99-17.01,0.71-24.98,4.55c-6.5,3.14-11.97,8.15-16.78,13.45
				c-4.96,5.46-10.38,11.28-12.98,18.28c-0.9,2.44,1.02,5.62,3.49,6.15c15.37,3.31,30.48-3.34,45.76-0.76
				C100.34,211.92,103.05,202.28,96.71,201.21L96.71,201.21z"/>
		</g>
	</g>
	<g>
		<g>
			<path class="st1" d="M46.76,207.76c6.43,0,6.45-10,0-10C40.33,197.76,40.32,207.76,46.76,207.76L46.76,207.76z"/>
		</g>
	</g>
</g>
<g id="Layer_1">
	<g>
		<g>
			<path d="M19.45,220.12c-0.44,15.96,4.3,38.95,20.05,46.86c8,4.02,17.57,4.71,26.29,6.04c10.15,1.55,20.32,2.93,30.51,4.13
				c21.45,2.54,42.99,4.32,64.57,5.41c20.17,1.02,40.97,2.55,61.12,0.66c17.15-1.61,34.11-7.18,45.08-21.17
				c4.69-5.98,7.89-13.03,8.59-20.65c0.31-3.37,0.41-7.48-1.17-10.58c-1.94-3.8-5.96-4.82-9.79-5.79c-19.81-5-40.38-5.9-60.72-6.04
				c-21.24-0.15-42.46-0.07-63.7-0.68c-22.06-0.63-44.17-2.76-66.22-2.75c-7.47,0-16.6,0.57-23.26-3.45
				c-3.46-2.08-9.55-10.77-1.95-10.74c3.18,0.01,5.77-3.21,4.82-6.33c-0.45-1.48-0.51-3.01-0.96-4.49
				c-1.61,2.11-3.21,4.22-4.82,6.33c3.44-0.37,7.06-0.66,10.06-2.56c1.42-0.9,2.69-2.13,3.51-3.62c1.01-1.82,0.32-4.9,1.23-6.34
				c-0.14-0.06-0.28-0.12-0.42-0.19c0.72-0.09,1.43-0.2,2.14-0.31c0.86-0.18,1.63-0.38,2.45-0.71c1.9-0.75,3.51-1.93,4.99-3.33
				c2.59-2.44,4.65-7.09,8.23-8.21c3.68-1.16,8.58,1.45,12.19,2.11c4.52,0.83,8.59,0.45,12.67-1.73c2.49-1.33,4.27-2.77,7.18-3.01
				c2.22-0.18,4.47,0.11,6.69,0.22c4.74,0.24,9.28-0.1,13.3-2.84c-2.28-0.6-4.56-1.2-6.84-1.79c1.22,1.87,1.84,3.55,2.22,5.74
				c0.48,2.82,3.72,3.94,6.15,3.49c7.51-1.38,12.75-6.63,20.69-5.75c8.46,0.94,16.54,0.82,24.94-0.71
				c-2.11-1.61-4.22-3.21-6.33-4.82c-0.26,2.08-0.53,4.16-0.79,6.24c-0.44,3.5,3.53,5.35,6.33,4.82c1.58-0.3,6.78-1.74,6.57,1.38
				c-0.25,3.56,3.38,5.29,6.33,4.82c3.34-0.52,6.68-1.05,10.01-1.57c-1.88-0.77-3.76-1.53-5.65-2.3c1.42,3.18,2,6.46,2.04,9.93
				c0.03,2.64,2.26,5.08,5,5c6.21-0.18,10.97-3.33,17.24-1.48c5.36,1.58,10.23,3.74,15.91,3.78c-0.84-3.11-1.68-6.21-2.52-9.32
				c-6.85,4.53-11.64,11.12-13.39,19.18c-0.58,2.67,0.78,5.36,3.49,6.15c10.35,3.01,19.97-3.49,30.09-1.5
				c-1.16-1.16-2.33-2.33-3.49-3.49c1.21,7.17,2.02,14.37,2.49,21.63c0.41,6.39,10.41,6.44,10,0c-0.52-8.15-1.49-16.24-2.85-24.29
				c-0.27-1.57-1.95-3.19-3.49-3.49c-5.02-0.98-9.77-0.54-14.75,0.45c-5.14,1.02-10.15,2.57-15.34,1.06
				c1.16,2.05,2.33,4.1,3.49,6.15c1.2-5.53,4.03-10.06,8.8-13.21c4.05-2.68,2.62-9.28-2.52-9.32c-5.67-0.04-10.68-3.05-16.15-4.17
				c-2.38-0.49-4.77-0.67-7.18-0.37c-3.36,0.42-6.45,2.14-9.84,2.24c1.67,1.67,3.33,3.33,5,5c-0.07-5.33-1.25-10.13-3.41-14.98
				c-0.96-2.16-3.62-2.62-5.65-2.3c-3.34,0.52-6.68,1.05-10.01,1.57c2.11,1.61,4.22,3.21,6.33,4.82
				c0.76-11.02-11.08-12.55-19.22-11.03c2.11,1.61,4.22,3.21,6.33,4.82c0.26-2.08,0.53-4.16,0.79-6.24
				c0.44-3.51-3.53-5.33-6.33-4.82c-4.47,0.81-8.97,1.19-13.51,1.09c-4.01-0.08-7.99-1.03-11.98-1.06
				c-7.5-0.06-13.04,5.12-20.13,6.42c2.05,1.16,4.1,2.33,6.15,3.49c-0.51-2.97-1.58-5.61-3.22-8.13c-1.4-2.14-4.52-3.38-6.84-1.79
				c-3.76,2.56-8.46,1.29-12.73,1.23c-4.21-0.06-8.06,0.7-11.74,2.78c-4.8,2.72-7.18,2.57-12.47,1.16
				c-3.92-1.05-8.02-2.01-12.06-1.06c-3.57,0.84-6.42,3.01-8.82,5.72c-2.63,2.97-4.14,5.93-8.21,6.77
				c-3.95,0.82-7.06,2.46-8.07,6.65c-0.28,1.15,0.22,4.15-0.5,4.98c-0.72,0.84-3.51,0.8-4.59,0.91c-3.1,0.34-5.85,2.94-4.82,6.33
				c0.45,1.48,0.51,3.01,0.96,4.49c1.61-2.11,3.21-4.22,4.82-6.33c-13.82-0.06-16.79,13.76-9.49,23.59
				c8.42,11.34,24.69,10.58,37.31,10.59c18.86,0.01,37.8,1.92,56.67,2.54c20.68,0.68,41.36,0.87,62.06,0.87
				c20.1,0,40.42,0.14,60.18,4.22c2.47,0.51,4.96,1.02,7.39,1.72c2.18,0.62,2.77,0.58,2.83,2.89c0.11,4.16-0.88,8.28-2.71,12.01
				c-3.44,7.01-9.3,12.65-16.06,16.44c-16.31,9.15-36.71,7.79-54.75,7.43c-20.29-0.41-40.57-1.4-60.8-3.03
				c-23.37-1.88-46.67-4.61-69.82-8.33c-9.76-1.57-19.63-2.49-25.07-11.8c-5.34-9.14-7.43-19.9-7.14-30.38
				C29.63,213.69,19.63,213.69,19.45,220.12L19.45,220.12z"/>
		</g>
	</g>
	<g>
		<g>
			<path d="M266.93,236.9c61.41-1.87,122.57-9.55,182.54-22.9c-1.28-3.05-2.57-6.09-3.85-9.14c-20.48,13.09-45.2,14.78-68.77,16.89
				c-27.36,2.45-54.72,4.9-82.08,7.36c-3.83,0.34-6.16,3.97-4.32,7.52c6.91,13.33,22.86,16.91,36.65,14.94
				c8.94-1.28,17.42-4.41,26.18-6.49c8.88-2.1,17.95-3.24,27-4.35c18.28-2.24,36.47-5.03,54.45-9.04c7-1.56,16.57-2.67,20.6-9.54
				c3.09-5.26,1.75-12.02-3.46-15.26c-2.76-1.72-6.5-0.05-7.35,2.99c-1.15,4.12-9.46,4.76-12.84,5.45
				c-6.02,1.22-12.1,2.04-18.21,2.7c-11.7,1.27-23.44,2.06-35.09,3.77c-11.56,1.7-22.95,4.36-34.28,7.19
				c-11.31,2.82-24.33,8.15-36.1,5.93c-6.29-1.19-8.98,8.45-2.66,9.64c13.1,2.47,26.05-2.07,38.66-5.23
				c13.64-3.43,27.35-6.71,41.32-8.45c13.54-1.69,27.19-2.4,40.69-4.44c9.62-1.45,25.01-2.58,28.16-13.89
				c-2.45,1-4.9,1.99-7.34,2.99c2.08,1.29-3.8,3.82-4.34,4c-3.05,1.05-6.35,1.6-9.49,2.31c-7.09,1.6-14.22,3.02-21.37,4.29
				c-13.98,2.48-28.06,4.06-42.12,5.97c-13.64,1.86-26.39,6.02-39.78,8.89c-10.87,2.32-24.85,1.75-30.63-9.41
				c-1.44,2.51-2.88,5.02-4.32,7.52c28.69-2.57,57.37-5.14,86.06-7.71c24.04-2.16,49-4.58,69.84-17.9
				c4.81-3.08,1.72-10.38-3.85-9.14c-59.12,13.16-119.34,20.7-179.88,22.54C260.51,227.1,260.49,237.1,266.93,236.9L266.93,236.9z"
				/>
		</g>
	</g>
	<g>
		<g>
			<path d="M30.11,211.67c-2.79-0.52-5.51-0.47-7.73,1.56c-1.42,1.29-2.18,3.12-2.46,4.98c-0.21,1.38-0.23,2.6,0.5,3.85
				c0.61,1.04,1.8,2.03,2.99,2.3c1.28,0.29,2.72,0.23,3.85-0.5c1.02-0.66,2.11-1.73,2.3-2.99c0.09-0.6,0.2-1.18,0.42-1.75
				c-0.17,0.4-0.34,0.8-0.5,1.19c0.09-0.2,0.19-0.38,0.31-0.57c-0.26,0.34-0.52,0.67-0.78,1.01c0.14-0.18,0.27-0.32,0.44-0.46
				c-0.34,0.26-0.67,0.52-1.01,0.78c0.12-0.09,0.26-0.17,0.4-0.24c-0.4,0.17-0.8,0.34-1.19,0.5c0.24-0.09,0.45-0.14,0.71-0.18
				c-0.44,0.06-0.89,0.12-1.33,0.18c0.34-0.02,0.67-0.01,1.01,0.03c-0.44-0.06-0.89-0.12-1.33-0.18c0.25,0.04,0.5,0.08,0.75,0.12
				c1.34,0.25,2.64,0.21,3.85-0.5c1.04-0.61,2.03-1.8,2.3-2.99C34.16,215.37,32.86,212.18,30.11,211.67L30.11,211.67z"/>
		</g>
	</g>
	<g>
		<g>
			<path d="M59.89,214.98c-5.74,0.32-11.36,0.03-17-1.07c-5.05-0.98-10-2.12-15.18-1.85c-6.4,0.33-6.44,10.34,0,10
				c5.51-0.29,10.67,1.29,16.07,2.13c5.35,0.83,10.7,1.09,16.11,0.79C66.29,224.62,66.33,214.62,59.89,214.98L59.89,214.98z"/>
		</g>
	</g>
	<g>
		<g>
			<path d="M275.28,242.83c8.37,0.55,16.64-0.18,24.82-2.04c6.27-1.43,3.62-11.07-2.66-9.64c-7.33,1.67-14.66,2.18-22.16,1.68
				C268.85,232.41,268.88,242.41,275.28,242.83L275.28,242.83z"/>
		</g>
	</g>
	<g>
		<g>
			<path d="M93.57,191.94c2.31,4.09,6.2,5.39,10.62,6.07c2.82,0.43,5.61,0.88,8.38,1.56c1.53,0.38,3.06,0.79,4.56,1.29
				c0.6,0.2,1.2,0.4,1.8,0.6c1.99,1.21,2.25,0.88,0.8-0.98c0.09,6.43,10.09,6.45,10,0c-0.08-5.81-5.13-7.72-9.94-9.26
				c-3.01-0.96-6.09-1.73-9.19-2.28c-1.83-0.32-7.34-0.19-8.39-2.05C99.05,181.29,90.4,186.32,93.57,191.94L93.57,191.94z"/>
		</g>
	</g>
	<g>
		<g>
			<path d="M172.08,169.72c-3.1,6.36-3.76,13.53-1.12,20.18c0.99,2.5,3.35,4.28,6.15,3.49c2.38-0.67,4.5-3.62,3.49-6.15
				c-1.64-4.12-1.87-8.42,0.11-12.47C183.52,169,174.9,163.93,172.08,169.72L172.08,169.72z"/>
		</g>
	</g>
	<g>
		<g>
			<path d="M198.85,211.15c-2.41,0.14-4.81,0.28-7.22,0.42c-1.3,0.08-2.71,0.34-4.01,0.24c1.44,0.11,2.04,1.19,0.61-0.71
				c-0.98-1.31-2.41-2.18-3.94-2.73c-0.56-0.21-1.12-0.34-1.7-0.49c-0.44-0.08-0.87-0.18-1.31-0.28c-0.69-0.21-0.58-0.09,0.33,0.37
				c-2.56-5.89-11.18-0.8-8.63,5.05c0.91,2.09,2.74,3.29,4.84,3.99c0.91,0.3,2.17,0.26,2.99,0.72c-1.14-0.64,1.16,1.94,1,1.76
				c3.78,4.23,12.14,1.95,17.04,1.67C205.25,220.78,205.29,210.77,198.85,211.15L198.85,211.15z"/>
		</g>
	</g>
	<g>
		<g>
			<path d="M139.11,192.47c0.27-0.88,0.48-1.18,1.13-1.84c-2.79-0.74-5.57-1.47-8.36-2.21c2.18,7.82,9.96,12.21,17.79,10.72
				c2.65-0.5,4.17-3.7,3.49-6.15c-0.76-2.78-3.49-4-6.15-3.49c-2.49,0.47-4.85-1.45-5.49-3.74c-1.01-3.61-5.7-4.88-8.36-2.21
				c-1.78,1.79-2.97,3.84-3.7,6.25C127.58,195.98,137.23,198.62,139.11,192.47L139.11,192.47z"/>
		</g>
	</g>
	<g>
		<g>
			<path d="M67.45,208.47c-2.77,1.1-3.23,2.07-1.37,2.9c0.72,0.52,1.48,0.99,2.26,1.41c1.35,0.73,2.79,1.34,4.23,1.86
				c3.14,1.14,6.49,1.56,9.82,1.53c6.43-0.06,6.45-10.06,0-10c-2.7,0.02-5.32-0.34-7.82-1.43c-2.21-0.96-3.95-2.67-6.13-3.64
				c-4.42-1.96-9.24,0.03-10.64,4.7C55.96,211.99,65.61,214.63,67.45,208.47L67.45,208.47z"/>
		</g>
	</g>
	<g>
		<g>
			<path d="M91.44,175.9c3.69-0.1,7.32,0.85,10.23,3.22c2.09,1.7,5.02,2.05,7.07,0c1.76-1.76,2.11-5.36,0-7.07
				c-4.98-4.05-10.82-6.32-17.3-6.15C85.01,166.07,84.99,176.07,91.44,175.9L91.44,175.9z"/>
		</g>
	</g>
</g>
</svg>
