<?xml version="1.0" encoding="utf-8"?>
<!-- Generator: Adobe Illustrator 27.0.1, SVG Export Plug-In . SVG Version: 6.00 Build 0)  -->
<svg version="1.1" xmlns="http://www.w3.org/2000/svg" xmlns:xlink="http://www.w3.org/1999/xlink" x="0px" y="0px"
	 viewBox="0 0 477.88 493.01" style="enable-background:new 0 0 477.88 493.01;" xml:space="preserve">
<style type="text/css">
	.st0{fill:#9BCFF2;}
	.st1{fill:#A7A7A7;}
	.st2{fill:#C6F39B;}
	.st3{fill:#F39BBB;}
	.st4{fill:#FFFAED;}
	.st5{display:none;opacity:0.29;}
</style>
<g id="Background_xA0_Image_00000124870404764290463340000002963931164462852275_">
</g>
<g id="Vector_layer_00000005973728831623485810000001289691098129854392_">
</g>
<g id="Vector_layer_00000177469854475475843860000018183812635369351046_">
</g>
<g id="Layer_group_00000109736871727029988510000001676939430405462422_">
	<g id="Vector_layer_00000140728648879170454870000007435575154227282868_">
	</g>
	<g id="Vector_layer_00000005984611883626821010000015424822696376713624_">
	</g>
	<g id="Vector_layer_00000144325997340186157810000015377130536390903475_">
	</g>
</g>
<g id="Layer_group_00000147204302403083504730000002142985624027523465_">
	<g id="Vector_layer_00000154407383037357660830000004976351752272992689_">
		<path class="st2" d="M58.26,484.61c-11.42-1.24-23.13-0.05-34.4-2.26c-0.66-0.2-1.29-0.43-1.87-0.69c0,0-0.01,0-0.01,0
			c-5.18-1.14-9.69-5.31-9.54-11.54c4.03-40.39,6.34-80.54,5.3-121.16c1.06-21.07,0.18-42.14-0.84-63.2
			c-1.01-24.99-0.08-50.21-2.86-75.01c6.54-17.54,23.95-29.21,35.19-43.91C67.8,145.34,87.26,124.52,107.9,105
			c29.65-26.88,59.12-54.17,91.94-77.2c10.86-5.39,19.42-18.38,32.11-18.27c8.3,1.26,12.3,9.76,19.05,13.82
			c27.1,16.95,52.34,36.43,78.02,55.37c33.03,21.88,64.31,46.67,92.85,74.2c12.63,13.93,28.99,24.54,39.8,40.02
			c6.68,25.74,2.57,53.72,4.78,80.23c4.54,55.72,6.7,111.96,1.92,167.76c-1.91,6.39-0.43,15.07-1,22.35
			c1.63,6.78-2.1,14.98-11.36,15.09c-26.22,0.22-52.42,2.29-78.64,1.02c-26.48-1.69-52.96-5.22-79.52-2.75
			c-56.82,1.23-113.54,5.69-170.33,6.68c-14.96,1.32-29.93,2.41-44.9,2.41C74.5,485.71,66.39,485.39,58.26,484.61z"/>
	</g>
	<g id="Vector_layer_00000015329665512077020640000004219974875747210398_">
		<path class="st4" d="M338.66,365.24c0.56,9.61,1.92,19.18,1.46,28.82c-0.23,4.66-0.59,9.32-0.58,13.98
			c0,9.68,2.01,19.51,0.38,29.12c-1.06,8.31-0.32,16.77-0.77,25.12c-0.39,3.51,1.09,8.94-3.37,10.18c-1.78,3.93-5.4,4.11-8.75,2.43
			c-3.48-0.09-6.88,0.86-10.35,1c-6.54-0.11-13.05-1.1-19.62-0.79c-28.62,0.4-57.2,2.58-85.85,1.43c-17.06-0.54-34.1,1.88-51.13,0.8
			c-0.54,0.05-1.05,0.07-1.53,0.04c-0.48,2.12-1.93,3.89-4.42,3.86c-2.14,0-4.27-1.68-4.46-3.89c-0.58-8.33-0.82-16.66-0.91-25.01
			c0.17-3.17-0.48-6.6,0.66-9.6c-1.04-24.89-0.69-49.84-1.96-74.7c-1.01-1.32-1.26-2.96-1.33-4.64c-3.84-1.13-4.25-7.38-0.04-8.61
			c1.38-1.99,4.24-3.03,6.47-1.17c0.3,0.26,0.57,0.51,0.83,0.76c0.98-0.02,1.96-0.04,2.95-0.07c1.84-3.05,5.82-2.07,8.81-2.27
			c7.46,0.01,15.93,0,22.98-0.52c26.88-2.49,53.93-1.57,80.88-1.24c13.32,0.07,26.37-1.3,39.5-1.03c4.71,0.03,9.45,0.22,14.16-0.07
			c1.97-0.11,3.93-0.53,5.88-0.76c1.2-0.75,2.72-0.92,4.22-0.11c5.07-0.91,6.76,4.32,4.54,7.23
			C338,358.01,338.49,361.2,338.66,365.24z"/>
	</g>
	<g id="Vector_layer_00000077291590835250103760000009716553445736595375_">
		<path d="M14.38,482.89c-6.19-0.58-3.91-8.02-4.29-12.25c-1.15-8.82,0.46-17.71,0.19-26.57c-1.25-21.28-0.6-42.62,0.08-63.91
			c0.89-35.71-0.03-71.42-0.24-107.09c-0.04-19.84,1.23-39.75,0.23-59.57c-3.28-4.15,1.36-12.08,6.55-8.05
			c4.72,6.23,2.27,20.99,2.7,28.88c-0.95,35.97,0.27,71.82,0,107.79c0.55,30.16-1.48,60.3-0.91,90.46
			c0.89,10.86,0.34,21.71-0.07,32.59c-0.03,5.03,3.2,17.72-4.22,17.72C14.4,482.89,14.39,482.89,14.38,482.89z"/>
		<path d="M13.25,213.9c-2.48-0.09-4.38-2.21-4.32-4.67c0.55-3.64,3.87-5.56,6.01-8.22c11.49-14.02,23.14-27.95,35.46-41.26
			c5.23-6.01,11.25-11.22,16.68-17.04c8.7-10.14,16.86-20.79,26.62-29.97c22.01-19.12,44.3-37.8,67.04-55.86
			c8.84-7.92,18.53-14.76,27.92-22c11.08-9.19,22.52-17.87,34.33-26.08c3.15-3,9.81-4.58,10.69,1.26c0.23,2.44-1.51,4.48-3.72,4.87
			c-2.27,1.41-4.34,3.2-6.62,4.64c-9.2,6.37-18.26,13.54-26.92,20.55c-11.54,8.94-23.14,17.73-34.32,27.11
			c-8.36,7.32-17.98,14.27-26.39,21.35c-10.86,9.48-21.86,18.79-32.88,28.09c-9.54,8.39-17.64,18.25-25.6,28.1
			c-10.39,11.71-22.25,22.16-32,34.36c-5.7,6.96-12.1,13.29-17.49,20.52c-2.49,3.22-5.06,6.4-7.95,9.28
			c-1.93,1.89-3.29,4.98-6.35,4.98C13.38,213.91,13.32,213.9,13.25,213.9z"/>
		<path d="M461.98,200.52c-2.27-0.03-4.21-1.83-4.43-4.06c-5.58-6.94-13.07-12.04-18.65-19c-10.75-11.19-20.64-23.21-32.39-33.41
			c-9.4-8.46-19.79-15.68-29.51-23.75c-12.73-10.23-25.28-20.67-38.61-30.12c-16.14-11.05-31.73-23-48.33-33.3
			c-9.07-5.96-17.39-12.96-26.23-19.23c-8.41-5.64-16.48-11.75-24.76-17.58c-3.23-2.88-6.66-5.44-10.5-7.44
			c-4.95-2.97-0.59-10.73,4.57-7.75c1.47,1.09,3.21,1.62,4.7,2.68c8.32,6.86,17.33,12.75,25.93,19.26
			c10.13,6.46,19.26,14.3,29.11,21.15c30.98,20.13,60.87,41.46,89.32,64.96c18.21,14.42,37.03,28.36,51.95,46.37
			c6.14,6.25,11.91,12.95,17.92,19.04c4.51,4.79,14.2,10.99,14.46,17.73c-0.04,2.44-2.06,4.45-4.5,4.45
			C462.01,200.52,461.99,200.52,461.98,200.52z"/>
		<path d="M465.13,480.57c-4.43-0.71-3.78-5.28-3.79-8.66c-0.43-9.34,1.21-18.23,0.81-27.36c-0.2-16.12,0.68-32.2,0.65-48.32
			c1.18-13.18,2.79-26.29,2.88-39.57c1.54-27.6-2.95-55.01-3.88-82.54c-1.85-23.26-2.27-46.56-2.55-69.89
			c-0.14-2.62-0.32-5.27-0.7-7.86c-0.43-1.5-0.43-3.13,0.69-4.41c2.23-2.79,7.03-1.87,7.86,1.66c-0.02-0.07-0.04-0.13-0.06-0.2
			c1.66,7.05,1.09,14.43,1.32,21.62c0.07,8.69,0.55,17.36,0.68,26.05c0.8,26.93,2.96,53.86,5.2,80.71
			c1.25,18.14,0.52,36.29-0.38,54.42c-1.07,11.34-2.9,22.62-2,34.05c-1.44,18.38,0.09,36.84-1.54,55.21
			c-0.9,5.04,2.81,15.09-5.04,15.09C465.23,480.57,465.18,480.57,465.13,480.57z"/>
		<path d="M467.1,193.61c0.02,0.06,0.03,0.13,0.04,0.19C467.13,193.74,467.12,193.67,467.1,193.61z"/>
		<path d="M80.79,484.54c-21.52-0.41-43.05-0.7-64.56-1.37c-5.62-0.62-4.99-9.58,1.02-8.95c19.11,0.49,38.24,0.89,57.36,1.14
			c14.27,0.44,28.49,1.88,42.8,1.56c8.11,0.01,16.2-0.5,24.29-1.01c8.01-0.5,16.03-1.01,24.07-1c59.76-0.09,119.51-0.25,179.23-2.59
			c14.59,0.05,29.15,0.93,43.69,2.02c14.45,0.77,28.92-0.18,43.36-0.72c11.68-1.32,23.61-0.98,35.25-0.71
			c2.27,0.94,3.42,3.56,2.5,5.86c-1.43,3.55-7.37,3.31-12.21,3.07c-1.82-0.09-3.5-0.18-4.71-0.07c-8.74-0.12-17.46,0.42-26.19,0.95
			c-9.13,0.55-18.26,1.12-27.42,0.93c-23.8-0.76-47.55-3.32-71.39-1.9c-50.34,2.34-100.75,1.85-151.13,2.1
			c-11.13-0.27-22.22,0.37-33.32,1c-9.81,0.56-19.63,1.12-29.46,1.06c-0.61,0.01-1.23,0.01-1.84,0.01
			C101.66,485.92,91.23,485.22,80.79,484.54z"/>
		<path d="M142.91,481.29c-3.47-13.96-2.27-28.39-2.21-42.62c-0.82-29.2-0.82-58.44-2.65-87.61c0.86-7.04,10.35-4.69,9.13,2
			c1.65,34.72,2.68,69.51,2.22,104.26c0.12,7.35,0.48,14.71,2.27,21.88c0.81,3.31-1.94,5.44-4.6,5.44
			C145.23,484.64,143.44,483.63,142.91,481.29z"/>
		<path d="M336.12,478.61c-2.71-25.72-0.28-51.46,0.31-77.21c-0.15-12.82,0.27-25.65-1.27-38.41c0.06-4.38-2.16-9.45,0.27-13.41
			c2.61-3.32,8.63-1.31,8.38,3.04c-0.69,9.46,2,19.18,1.54,28.79c0.43,21.14-0.73,42.23-1.46,63.34c-0.52,11.01,0.4,22,1.2,32.98
			c0.32,3.1-2.16,4.81-4.6,4.81C338.4,482.54,336.36,481.3,336.12,478.61z"/>
		<path d="M102.81,345.94c11.7-0.44,23.5-0.61,35.23-1.07c12.9,0.21,25.77-0.5,38.65-1.22c12.23-0.68,24.47-1.36,36.75-1.24
			c10.62-0.32,21.25-0.07,31.88,0.19c10.05,0.24,20.11,0.48,30.17,0.24c13.8-0.39,27.53-1.96,41.34-2.05
			c18.61-0.51,37.42,0.43,55.91,0.82c5.57,1.04,4,9.96-1.67,8.83c-1.54-0.54-3.16-0.03-4.75-0.02c-18.74-0.11-38.28-1.46-56.9-0.43
			c-18.8,0.97-37.6,2.54-56.45,1.82c-32.56-1.24-65.14-0.17-97.62,2.04c-17.95-0.03-36.23,0.4-53.93,1.34
			C96.44,353.55,97.91,346.5,102.81,345.94z"/>
		<path d="M97.89,351.5c-9.07-7.53,15.69-19.07,20.74-22.99c4.07-3.07,8.14-6.08,12.6-8.53c4.22-4.01,10.47,2.61,6.17,6.55
			c-6.25,3.91-12.84,9.06-19.07,12.68c-3.93,2.48-7.79,5.11-11.42,8.02c-2.11,1.74-4.05,5.01-6.76,5.01
			C99.45,352.23,98.7,352.01,97.89,351.5z"/>
		<path d="M368.89,349.13c-12.16-6.25-21.62-17.11-33.69-23.47c-5.2-1.21-5.99-8.68-0.16-9.42c6.21,1.04,11.6,6.43,16.42,9.45
			c7.48,4.54,13.23,11.57,21.2,15.26c4.63,2.09,2.32,8.64-1.83,8.64C370.21,349.59,369.56,349.45,368.89,349.13z"/>
		<path d="M240.74,473.88c-1.53-25.28-1.43-50.63-1.68-75.96c-1.26-16-0.41-32.02-0.91-48.01c-0.07-7.13,9.97-6.09,9.07,0.91
			c0.04,30.44,0.96,60.88,1.45,91.31c-0.14,10.29,0.41,20.61,1.03,30.87c0.29,3.13-2.14,4.85-4.55,4.85
			C243.09,477.84,241.05,476.59,240.74,473.88z"/>
		<path d="M170,258.26c-6.11-12.77-13.05-25.16-18.04-38.43c-2.85-6.82-4.86-14.14-9.17-20.23c-1.41-0.65-2.43-2.02-2.64-3.66
			c-0.68-3.08,2.14-6.09,5.27-5.48c3.87,1.11,5.71,5.46,7.67,8.65c6.52,14.02,11.12,28.87,18.76,42.39
			c1.99,4.17,3.95,8.36,6.08,12.45c1.9,3.48-1.21,6.62-4.24,6.62C172.26,260.58,170.86,259.9,170,258.26z"/>
		<path d="M194.75,261.07c-6.75-0.25-13.51-0.18-20.24-0.67c-1.82,0.66-4.03-0.01-5.19-1.61c-2.06-2.78-0.08-6.67,3.15-7.29
			c6.07,0,12.17,0.24,18.27,0.48c6.76,0.27,13.52,0.54,20.27,0.47c18.99-1.7,38.02-1.94,57.06-2.86c6.71-0.08,13.4,0.45,20.09,0.98
			c7.11,0.56,14.23,1.12,21.38,0.96c5.78,0.16,5.51,9.25-0.34,9c-13.48,0.26-26.83-1.85-40.25-1.98
			c-10.54,0.62-21.07,0.97-31.63,1.08c-10.83,0.65-21.64,1.83-32.47,1.83C201.49,261.46,198.12,261.35,194.75,261.07z"/>
		<path d="M305.4,262.32c-8.13-2.57,7.74-24.67,9.88-29.88c5-9.73,8.92-19.97,12.5-30.29c1.24-3.27,2.16-6.69,3.62-9.86
			c3.8-5.58,11.35,0.9,7.34,5.84c-5.68,16.5-11.64,33.02-20.82,47.94c-2.35,4.61-4.62,9.25-6.55,14.04c-0.65,1.66-2.39,2.6-4.12,2.6
			C306.61,262.71,305.98,262.58,305.4,262.32z"/>
		<path d="M172.54,198.78c-4.86-0.1-9.71,0.04-14.57,0.05c-4.42,0.01-8.77-0.52-13.16-1c-6.38,2.89-9.39-7.68-2.51-8.91
			c14.23,0.9,28.59,1.13,42.91,0.87c9.58-0.38,19.12-1.32,28.7-1.74c6.89-0.25,13.78,0.03,20.66,0.31
			c6.65,0.27,13.31,0.54,19.97,0.34c26.44-0.66,53.09-1.02,79.39,0.7c5.52,1.72,2.9,10.41-2.68,8.6c-11,0.16-22.04-0.73-33.08-0.91
			c-27.53,0.27-55.03,0.9-82.55-0.09c-12.51,0.51-24.99,1.9-37.52,1.9C176.27,198.88,174.41,198.85,172.54,198.78z"/>
		<path d="M190.41,194.96c-2.57,0.71-5.38-1.22-5.61-3.92c-0.16-4.26,4.52-6.34,7-9.18c9.53-13.3,21.22-25,32.37-36.95
			c3.31-4.6,10.71,0.09,7.61,4.97c-1.18,1.72-2.7,3.24-4.06,4.81c-9.62,10.95-18.51,22.62-28.88,32.89
			c-2.02,2.64-3.54,7.52-7.27,7.52C191.21,195.1,190.83,195.06,190.41,194.96z"/>
		<path d="M280.62,191.62c-9.5-13.54-19.08-27.01-29.87-39.58c-3.42-5.15,4.06-10,7.64-5.01c10.5,12.62,20.13,25.85,29.52,39.31
			c2.49,3.39-0.67,7.13-3.89,7.14C282.79,193.48,281.56,192.94,280.62,191.62z"/>
		<path d="M188.26,243.7c-0.82-10.12-1.98-20.18-4.12-30.13c-2.7-6.98,7.33-11.16,9.04-3.54c0.87,10.85,3.67,21.75,4.04,32.79
			c0.29,2.44-1.64,4.68-4.04,4.92c-0.15,0.02-0.3,0.02-0.45,0.02C190.47,247.77,188.52,246,188.26,243.7z"/>
		<path d="M204.11,242.34c-0.6-7.96-0.97-15.95-1.64-23.91c-0.2-2.63-0.74-5.23-0.93-7.85c0-4.76,7.12-5.91,8.7-1.45
			c1.59,7.98,1.66,16.2,2.25,24.31c-0.12,3.69,1.73,8.02-0.43,11.32c-0.84,1.11-2.09,1.6-3.36,1.6
			C206.48,246.36,204.22,244.82,204.11,242.34z"/>
		<path d="M221.89,241.61c-1.07-5.66,0.36-11.39,0.21-17.09c-0.19-4.7-1.02-9.36-1.68-14c0.07-5.09,7.77-5.84,8.88-0.87
			c2.56,9.83,1.3,19.91,1.36,29.87c0.81,3.34-1.94,5.44-4.59,5.44C224.21,244.97,222.42,243.95,221.89,241.61z"/>
		<path d="M241.1,242.37c-0.49-7.7-0.18-15.44-1.19-23.11c-0.05-3.56-1.63-7.62,0.09-10.93c1.5-2.3,4.52-2.73,6.67-1.09
			c1.66,1.4,2.7,3.86,1.67,5.91c1.2,9.42,1.38,18.87,1.72,28.34c0.35,3.12-2.14,4.82-4.59,4.82
			C243.37,246.3,241.3,245.05,241.1,242.37z"/>
		<path d="M260.24,234.05c-0.16-3.89-0.7-7.75-1.1-11.62c-0.01-4.73-1.79-9.43-1.15-14.04c1.16-4.01,7.05-4.15,8.5-0.28
			c1.39,8.25,1.96,16.74,2.72,25.1c-0.3,4.36,1.91,12.36-4.64,12.52C258.63,245.27,260.51,238.13,260.24,234.05z"/>
		<path d="M277.29,238.07c-0.31-4.72-0.77-9.43-1.12-14.16c-0.19-4.42-1.35-8.89-0.88-13.3c0.99-3.72,6.52-4.25,8.26-0.82
			c1.29,5.23,1.14,10.88,1.82,16.25c-0.48,5.47,4.62,18.9-3.75,19.43C277.66,245.33,276.99,241.26,277.29,238.07z"/>
		<path d="M293.52,237.74c-0.43-6.09-0.63-12.19-1.34-18.25c-0.24-2.07-0.57-4.14-0.78-6.22c-0.62-5.79,8.44-6.69,8.96-0.88
			c0.98,7.17,1.6,14.39,1.92,21.62c0.26,4.15,2.06,11.41-4.2,11.51C293.85,245.36,293.64,240.98,293.52,237.74z"/>
	</g>
</g>
<g id="Vector_layer_00000165917260051087326750000011753170554602969984_">
</g>
<g id="Vector_layer_00000092424609386496587430000005810044175188326027_">
</g>
<g id="Vector_layer_00000039855718083956251080000013584067631049210530_">
</g>
<g id="Image_layer_xA0_Image_00000143592000901432146030000004511106831553555085_" class="st5">
</g>
</svg>
