<?xml version="1.0" encoding="utf-8"?>
<!-- Generator: Adobe Illustrator 27.0.1, SVG Export Plug-In . SVG Version: 6.00 Build 0)  -->
<svg version="1.1" xmlns="http://www.w3.org/2000/svg" xmlns:xlink="http://www.w3.org/1999/xlink" x="0px" y="0px"
	 viewBox="0 0 477.88 493.01" style="enable-background:new 0 0 477.88 493.01;" xml:space="preserve">
<style type="text/css">
	.st0{fill:#9BCFF2;}
	.st1{fill:#A7A7A7;}
	.st2{fill:#C6F39B;}
	.st3{fill:#F39BBB;}
	.st4{fill:#FFFAED;}
	.st5{display:none;opacity:0.29;}
</style>
<g id="Background_xA0_Image_00000124870404764290463340000002963931164462852275_">
</g>
<g id="Vector_layer_00000005973728831623485810000001289691098129854392_">
</g>
<g id="Vector_layer_00000177469854475475843860000018183812635369351046_">
</g>
<g id="Layer_group_00000109736871727029988510000001676939430405462422_">
	<g id="Vector_layer_00000140728648879170454870000007435575154227282868_">
		<path class="st3" d="M102.6,448.11c0.32,0,0.64,0,0.96,0c-0.18-0.12-0.36-0.25-0.53-0.38
			C102.88,447.86,102.74,447.99,102.6,448.11z M408.15,427.44c-0.07-0.08-0.15-0.16-0.22-0.23c-0.01,0.09-0.02,0.19-0.04,0.29
			C407.98,427.48,408.06,427.46,408.15,427.44z M459.9,254.31c1.1,50.96,0.14,101.89-3.59,152.73c-0.17,13.02-1.71,26.38-2.77,39.26
			c-0.17,10.45-2.17,26.27-16.49,22.87c-1.52-0.45-2.79-1.03-3.84-1.73c-40.54,0.66-80.81,1.9-121.35,2.02
			c-73.33,0.99-146.68,1.64-220.02,2.67c-18.19-0.93-37.23,1.81-55.02-2.44c-8.55-2.02-11.2-13.16-6.06-19.34
			c0.25-6.23,0.22-12.5-0.12-18.7c-2.89-29.91-5.6-59.88-7.2-89.89c-0.51-25.01-0.37-50.02-0.49-75.04
			c0.04-30.04-4.65-60.72,1.15-90.42c11.39-48.02,54.21-97.24,95.18-123.53c43.99-29.09,105.43-33.51,156.71-27.57
			c40.39,5.31,115.69,32,141.2,64.07c6.73,8.41,13.03,17.27,18.08,26.77c4.38,9.49,6.42,19.85,9.8,29.7
			c4.09,15.06,9.74,29.8,11.74,45.35C459.01,212.09,460.24,233.2,459.9,254.31z"/>
		<path class="st3" d="M442.84,465.6c-0.41-0.35-0.83-0.69-1.26-1.01c-0.03-0.02-0.05-0.04-0.08-0.05
			c-9.88-0.89-3.79-14.91,5.98-6.81c5.12-1.93,8.61,5.47,6.48,9.48C450.84,471.77,445.71,468.88,442.84,465.6z"/>
	</g>
	<g id="Vector_layer_00000005984611883626821010000015424822696376713624_">
		<path class="st4" d="M273.05,192.3c0.03-0.05,0.06-0.1,0.09-0.15c-0.04,0.03-0.07,0.05-0.1,0.07
			C273.05,192.25,273.05,192.27,273.05,192.3z M398.84,196.19c0.57,5.06,2.29,10.01,2.16,15.12c-0.15,4.74-0.64,9.61-2.3,14.08
			c-2.01,3.96-4.09,8.04-6.32,11.93c0.5,2.95-2.24,4.94-4.08,6.78c-2.16,1.66-3.45,4.07-5.19,6.14c1.06,5.78-8.36,8.06-12.09,10.96
			c-0.25,5.6-7.59,5.23-11.46,7.18c-6.25,2.18-12.4,4.71-18.88,6.16c-4.53,4.82-25.94,5.68-33.11,5.95
			c-5-0.35-10.85,0.21-15.09-2.85c-1.88-0.05-3.42-1.3-4.1-2.89c-9.94-2.46-18.4-8.6-26.43-14.77c-4.09-3.39-8.8-5.84-12.56-9.64
			c-5.5-5.16-10.14-11.21-14.55-17.32c-5.85-1.8-6.26-20.75-6.66-26.39c0.47-2.95-1.29-6.12,0.18-8.84c0-2.55,0.27-6.21,1.74-8.34
			c-4.24-7.98,3.33-17.93,8.05-24.2c3.07-5.55,6.64-10.81,11.02-15.4c5.14-11.54,15.63-19.43,26.11-25.87
			c6.8-3.27,16.25-10.49,23.9-7.02c1.67-0.34,3.63-0.2,5.21,0.54c3.29-6.09,18.71-2.66,24.29-2.54c7.47,1.01,14.08,4.78,20.53,8.44
			c11.3,5.44,22.13,12.55,30.16,22.3c3.36,4.84,6.69,9.75,9.75,14.75c2.62,6.38,4.11,13.16,6.25,19.71
			C397.53,185.23,398.32,190.73,398.84,196.19z"/>
		<path class="st4" d="M202.1,405c0.77,6.01,2.02,12.89-0.89,18.5c-3.56,3.93-14.7,2-20,2.86c-25.08,3.18-50.25,4.97-75.53,4.57
			c-4.45-0.47-8.84-1.02-13.33-0.57c-5.64-0.27-11.3-0.9-16.97-0.45c-3.58,0.38-8.32,0.19-9.54-3.95c-0.85-2.71-0.36-5.63-0.11-8.42
			c0.08-4.65-0.86-9.26-0.5-13.92c0.14-11.52-1.32-23.01-2.36-34.47c-2.31-11.19-1.52-22.71-3.34-34
			c-0.33-5.19-0.81-10.63,0.46-15.7c1.35-3.6,6.96-3.61,8.28,0.02c13.29-0.69,26.64,0.34,39.94,0.51
			c11.39-1.05,22.75-0.17,34.12-0.37c13.46,0.01,26.85-2.75,40.33-0.83c5.14,0.43,16.7-2.94,14.45,6.13
			c3.04,7.66,2.19,16.18,2.6,24.25c1.1,12.91,1.58,25.92,1.84,38.87C201.37,393.69,201.41,399.36,202.1,405z"/>
	</g>
	<g id="Vector_layer_00000144325997340186157810000015377130536390903475_">
		<path d="M23.66,456.82c-0.25-12.01-0.2-24.02-0.04-36.04c1.38-31.35-0.78-62.88-3.25-94.02c-4.5-42.17-1.44-84.69-2.57-127
			c1.74,0.38,3.5,0.65,5.26,0.87c1.27,0.15,2.55,0.31,3.83,0.41c0.42,15.15-0.25,30.33,0.03,45.49
			c-2.14,59.02,8.38,117.58,5.65,176.51c-0.12,11.28-0.15,22.57,0.08,33.85c0.11,3.98,1.44,10.5-4.3,10.73
			C22.66,467.39,23.98,460.79,23.66,456.82z"/>
		<path d="M451.18,463.35c-2.26-91.68,7.59-183.63,0.62-275.04c-0.76-6.11,8.69-6.96,9.03-0.63c5.47,67.03,0.4,134.54-0.17,201.72
			c-0.25,18.16-1.24,36.31-0.8,54.48c-0.47,7.11,1.15,14.55-0.18,21.49C457.78,469.45,451.06,468.02,451.18,463.35z"/>
		<path d="M451.88,198.11c0.3-11.86-4.09-23.05-7.27-34.28c-3.88-16-10.13-31.21-16.63-46.27c-18.57-31.81-46.97-58.4-81.32-72.12
			c-18.68-6.68-38.3-10.54-57.63-14.15c-12.58-3.27-25.25-6.12-38.22-7.21c-12.36-0.91-24.38,2.73-36.56,4.24
			c-12.08,1.97-24.23,3.61-36.12,6.59c-31.03,6.56-59.34,22.18-84.51,40.98c-0.57-0.96-1.19-1.89-1.86-2.77
			c-1.11-1.45-2.3-2.88-3.65-4.13c10.93-8.86,22.9-16.43,35.43-22.85c24.05-13.6,50.75-20.99,77.98-24.92
			c13.72-1.84,27.29-4.94,41.08-6.23c17.59-0.52,34.79,4.15,51.73,8.3c55.03,7.99,96.81,27.22,130.35,72.96
			c14.59,18.27,21.68,41.14,28.1,63.29c3.5,12.66,8.47,25.22,8.12,38.57c-0.04,2.89-2.3,4.36-4.55,4.36
			C454.11,202.47,451.9,201.03,451.88,198.11z"/>
		<path d="M60.69,99.79c0.23,0.25,0.45,0.51,0.67,0.76c0.2,0.24,0.41,0.48,0.62,0.72C61.55,100.78,61.12,100.29,60.69,99.79z"/>
		<path d="M18.42,206.93c-0.61-4.75-0.54-9.52,0.37-14.23c0.92-7.27,0.39-14.64,1.99-21.84c0.62-5.14,3.39-9.62,5.37-14.31
			c1.32-3.53,2.55-7.09,4.07-10.55c6.21-17.18,16.51-32.57,28.44-46.35c11.19-14.92,24.73-27.83,39.89-38.61
			c2-1.5,4.22-3.59,6.92-2.98c2.18,0.55,3.78,2.43,3.62,4.75c-0.14,1.99-1.61,3.65-3.5,4.17c-1.64,1.15-3.16,2.47-4.75,3.68
			c-13.14,9.15-24.54,20.92-34.31,33.48c-9.21,11.2-18.42,22.72-24.02,36.19c-4.8,9.65-7.99,20.06-12.47,29.88
			c-2.07,8.84-1.19,18.08-2.82,26.94c-0.44,3.07-0.15,6.15,0.19,9.21C27.75,212.16,18.87,212.84,18.42,206.93z"/>
		<path d="M224.12,475.16c-39.77,0.25-79.46-2.19-119.22-2.68c-22.43-0.16-44.88,0.36-67.27-0.79c-2.64-0.16-5.27-0.42-7.92-0.37
			c-1.45,0.86-3.36,0.9-4.82-0.1c-3.52-2.38-2.08-8.19,2.19-8.68c9.12-0.66,18.36,0.91,27.53,0.87c22.89-0.13,45.81-0.03,68.69,0.54
			c33.16,0.2,66.26,2.69,99.43,2.2c22.55,0.23,45.06-1.65,67.6-1.97c17.67,0.45,35.72,1.35,53.28,0.72
			c17.19,0.01,34.33-1.74,51.53-1.7c18.17,1.42,36.37,1.99,54.59,2.19c3.82-0.27,9.06-1.76,9.74,3.64c0.2,5.35-6.1,5.23-9.98,5.35
			c-7.18-0.05-14.36-0.28-21.54-0.45c-12.12,0.17-24.15-1.5-36.25-1.75c-19.55,0.6-39.18,1.86-58.7,1.92
			c-14.43,0.19-28.85-0.64-43.27-0.92C267.85,473.56,246,475.26,224.12,475.16z"/>
		<path d="M453.98,474.13c-3.72-1.05-3.47-5.22-2.97-8.28c-0.05-3.93-0.02-10.51,5.56-9.84c5.3,1.07,3.29,6.24,3.44,10.05
			c-0.28,1.69-0.09,3.33-0.46,5C458.84,473.41,456.3,474.81,453.98,474.13z"/>
		<path d="M232,467.48c-2.5-7.42-2.04-15.27-2.14-22.99c-0.7-15.53,0.56-31.05,1.38-46.57c0.48-9.2,1.03-18.41,0.99-27.62
			c0.42-9.81-1.39-19.76-0.17-29.49c1.63-5.52,10.15-3.25,8.66,2.42c-0.08,14.02,1.13,28.07,0.15,42.1
			c-0.75,16.55-1.93,33.09-2.32,49.64c0.93,10.02-0.9,20.39,2.13,30.11C242.19,470.7,233.67,473.17,232,467.48z"/>
		<path d="M249.9,345.87c-3.59,0.17-7.17-1.21-10.68-0.85c-5.65,1.48-8.07-7.07-2.39-8.68c3.75-1.14,7.55,0.21,11.32,0.44
			c18.08,0.27,35-1.39,52.82-2.11c15.21-0.94,30.44-0.39,45.66-0.72c2.45-0.08,4.5,2.11,4.5,4.5c0,2.51-2.05,4.42-4.5,4.5
			c-7.69,0.35-15.37-0.01-23.06,0.07C298.96,343.15,274.38,345.72,249.9,345.87z"/>
		<path d="M348.16,459.46c-3.39-22.48-4.37-45.1-4.07-67.81c0.55-18.52-1.44-37.32,0.48-55.71c2.5-5.4,10.28-2.11,8.47,3.51
			c-0.33,28.73-0.06,57.49,0.52,86.22c0.7,10.91,2.2,21.74,3.52,32.58C357.8,464.01,349.01,465.31,348.16,459.46z"/>
		<path d="M253.95,415.39c-14.51-1.86-1.3-24.93,5.84-13.26C266.74,405.73,260.57,416.44,253.95,415.39z"/>
		<path d="M348.33,467.12c-0.01-5.1-0.18-10.22-0.64-15.28c-1.26-6.41,7.5-9.05,8.98-2.41c0.31,5.88,0.66,11.79,0.65,17.69
			C357.26,472.99,348.4,473,348.33,467.12z"/>
		<path d="M85.28,436.25c-12.07-0.05-29.62-1.3-27.07-17.74c-0.07-9.27,0.78-18.53,0.17-27.8c-1-7.96-1.13-15.95-1.38-23.95
			c-0.56-7.68-1.76-15.31-1.89-23.03c-0.22-7.57-0.9-15.11-0.84-22.69c0-2.34,1.86-4.31,4.17-4.49c0.38-2.08,2.24-3.77,4.43-3.73
			c4.44,0.09,8.92,0.02,13.35-0.25c9.52-0.6,19.13-0.23,28.63,0.55c18.19,0.15,36.4-0.78,54.59-0.34
			c10.46-0.94,20.97-0.66,31.44-1.27c2.77,0.08,5.5-1.43,8.22-0.75c3.75,1.15,3.97,5.63,4.29,8.91c0.7,7.92,1.09,15.87,1.55,23.8
			c0.63,17.28,2.86,34.42,2.12,51.72c0.63,43.82-1.87,34.49-40.53,36.53C139.42,432.96,112.49,437.09,85.28,436.25z M95.39,427.22
			c33.03-0.24,65.81-6,98.93-4.99c6.08,1.52,2.86-22.08,3.76-26.63c0.47-12.4-0.37-24.72-1.27-37.08c-1-12.79-1.1-25.57-2.39-38.31
			c-27.44,1.81-54.93,1.26-82.42,1.98c-7.65,0.25-15.25-0.98-22.91-0.8c-8.62-0.45-17.2,0.68-25.82,0.44
			c0.48,23.22,2.72,46.35,4.14,69.51c0.64,10.51-0.55,21.01-0.18,31.52C69.54,428.95,89.37,426.73,95.39,427.22z"/>
		<path d="M131.51,423.58c-1.16-5.63-0.34-11.43-0.79-17.13c-1.28-10.82-1.68-21.7-2.5-32.56c-0.11-17.56-1.62-35.01-2.89-52.5
			c0.06-5.84,8.93-5.9,9,0c0.25,9.98,2.07,19.85,2.27,29.83c0.22,11.68,0.51,23.32,1.5,34.95c0.77,11.68,1.82,23.32,2.09,35.01
			C141.66,426.84,133.12,429.25,131.51,423.58z"/>
		<path d="M76.12,381.71c-4.14-0.26-8.71,0.33-12.51-1.61c-4.9-2.95-0.77-10.52,4.38-7.86c22.68,1.92,45.32-2.86,68.04-2.06
			c9.61-0.34,19.15,0.87,28.75,0.81c8.22-0.27,16.17-0.46,24.35-0.08c3.43-0.29,7.17-1.15,10.4,0.26c5.61,1.63,3.31,10.19-2.39,8.68
			c-3.01-1.15-6.29,0.36-9.44,0.11c-8.15-0.68-16.25,0.03-24.41,0.05c-17.4-0.74-35.08-1.43-52.43-0.09
			C99.3,380.79,87.73,381.89,76.12,381.71z"/>
		<path d="M313.24,287.45c-56.94-0.03-108.23-59.19-85.96-115.14c15.6-39.59,60.43-78.59,104.74-60.71
			c7.18-0.57,13.93,3.77,19.82,7.44c29.19,13.99,48.38,42.52,53.94,74.06C417.14,251.13,366.18,286.63,313.24,287.45z
			 M313.65,278.47c46.98-1.17,93.4-31.29,83.34-83.47c-4.17-23.34-16.24-45.11-35.18-59.55c-6.54-4.6-13.86-7.95-20.57-12.32
			c-2.39,3.98-6.73,2.23-8.96-0.86c-2.22-1.89-4.98-2.93-7.69-3.88c-25.42-7.98-52.6,6.47-69.08,25.51
			c-17.23,19.44-28.86,44.48-22.91,70.8C240.93,250.96,276.67,278.31,313.65,278.47z"/>
		<path d="M313.28,280.28c-7.96-55.17-7.56-111.48-9.53-166.96c0.06-5.81,8.93-5.93,9,0c0,2.44,0.09,4.87,0.24,7.3
			c1.25,34.37,1.4,68.77,3.56,103.11c1.01,18.54,3.39,36.92,5.65,55.34C322.95,284.82,314.18,286.14,313.28,280.28z"/>
		<path d="M229.99,213.46c-1.39-0.09-2.75-0.1-4.14,0.06c-5.49-0.02-6.06-8.31-0.53-8.97c9.97,0.09,19.94,0.53,29.88-1.01
			c45.37-3.84,90.64-9.42,136.17-10.99c11.39-1.27,10.78,11.28,1.61,9.02c-35.84,0.96-71.57,4.85-107.25,8.27
			C267.16,210.87,248.61,214.72,229.99,213.46z"/>
	</g>
</g>
<g id="Layer_group_00000147204302403083504730000002142985624027523465_">
	<g id="Vector_layer_00000154407383037357660830000004976351752272992689_">
	</g>
	<g id="Vector_layer_00000015329665512077020640000004219974875747210398_">
	</g>
	<g id="Vector_layer_00000077291590835250103760000009716553445736595375_">
	</g>
</g>
<g id="Vector_layer_00000165917260051087326750000011753170554602969984_">
</g>
<g id="Vector_layer_00000092424609386496587430000005810044175188326027_">
</g>
<g id="Vector_layer_00000039855718083956251080000013584067631049210530_">
</g>
<g id="Image_layer_xA0_Image_00000143592000901432146030000004511106831553555085_" class="st5">
</g>
</svg>
