<?xml version="1.0" encoding="utf-8"?>
<!-- Generator: Adobe Illustrator 27.0.1, SVG Export Plug-In . SVG Version: 6.00 Build 0)  -->
<svg version="1.1" xmlns="http://www.w3.org/2000/svg" xmlns:xlink="http://www.w3.org/1999/xlink" x="0px" y="0px"
	 viewBox="0 0 797.21 550.05" style="enable-background:new 0 0 797.21 550.05;" xml:space="preserve">
<style type="text/css">
	.st0{fill:#C6F39B;}
	.st1{fill:#FFFBEF;}
	.st2{fill:#989898;}
	.st3{fill:#464646;}
	.st4{fill:#D0D0D0;}
	.st5{fill:#815E3F;}
</style>
<g id="Background_xA0_Image_00000134937618189341510900000015959939387084543146_">
</g>
<g id="Vector_layer_00000112618304402090071030000006514811340663101363_">
</g>
<g id="Vector_layer_00000048473056952808540380000011320247114047126153_">
</g>
<g id="Layer_group_00000065075053446498530510000002537821633721071499_">
	<g id="Vector_layer_00000072986937047860993200000002812667959087577756_">
	</g>
	<g id="Vector_layer_00000041270790859901216030000010058469211095654333_">
	</g>
</g>
<g id="Layer_group_00000131355402648430388500000018189211281559141513_">
	<g id="Vector_layer_00000037672746607587125550000010722016805013201064_">
		<path class="st2" d="M471.31,445.02c-0.2-0.02-0.41-0.04-0.61-0.06c-0.14-0.04-0.28-0.08-0.43-0.12c-0.34-0.3-0.75-0.52-1.2-0.66
			c-1.05-0.3-2.18-0.32-3.26-0.4c-0.16-0.01-0.32-0.02-0.47-0.04c-0.73-0.14-1.47-0.27-2.21-0.38c-1.72-0.26-3.43-0.5-5.15-0.67
			c-1.75-0.18-3.5-0.41-5.26-0.5c-2.13-0.11-4.26-0.22-6.39-0.33c-0.64-0.03-1.3,0-1.94,0c-1.18,0-2.36,0.01-3.54,0.01
			c-1.7,0.01-3.39,0.1-5.09,0.18c-2.73,0.12-5.45,0.3-8.17,0.46c-0.25-0.18-0.51-0.33-0.77-0.46c-0.74-0.36-1.43-0.73-2.24-0.91
			c-0.62-0.16-1.26-0.29-1.89-0.38c-0.44-0.07-0.88-0.16-1.32-0.22c-0.99-0.14-1.98-0.28-2.98-0.41c-1.95-0.24-3.9-0.46-5.86-0.61
			c-4.33-0.31-8.66-0.54-13-0.56c-5.16-0.03-10.32,0.16-15.48,0.3c-2.22,0.06-4.45,0.12-6.67,0.17c-1.56,0-3.13,0-4.7,0.02
			c-0.78-0.86-1.76-1.54-2.9-1.94c-1.65-0.58-3.26-0.63-4.98-0.69c-1.02-0.04-2.04-0.07-3.06-0.09c-0.48-0.01-0.97-0.03-1.46-0.04
			c-1.52-1.65-3.76-2.57-6.09-2.44c-1.63,0.09-3.25,0.24-4.89,0.32c-1.47,0.07-2.95,0.13-4.41,0.21c-3.04,0.17-6.09,0.34-9.12,0.53
			c-3.09,0.2-6.18,0.38-9.26,0.69c-0.65,0.07-1.3,0.13-1.95,0.2c-4.22,0.32-8.42,0.79-12.61,1.39c-2.07,0.3-4.15,0.58-6.2,0.98
			c-1.28,0.25-2.54,0.52-3.78,0.91c-0.42,0.13-0.82,0.29-1.2,0.48c-2.13,0.05-4.25,0.13-6.38,0.23c-3.54-0.09-7.07-0.14-10.61-0.19
			c-4.11-0.05-8.22-0.1-12.33-0.19c-1.41-0.1-2.81-0.2-4.22-0.29c-1.29-0.09-2.57-0.17-3.85-0.24c0.99-15.54,1.86-31.21-1.6-46.53
			c-0.15-2.4,1.48-3.95,3.39-4.43c-0.02-1.84,0.15-3.71-0.04-5.46c-0.13-7.03-0.21-14.05-0.31-21.09
			c0.46-10.41-1.97-21.51,0.32-31.6c0.05-7.78-0.41-15.56-0.58-23.34c-3.99-5.16-1.93-13.25-2.63-19.45
			c0.58-5.04-1.65-15.25,2.36-18.56c-0.05-3.41,0.1-6.84,0.04-10.26c-0.24-0.4-0.43-0.84-0.54-1.3c-4.47-0.53-5.71-7.02-1.38-8.75
			c0.66-0.25,1.33-0.39,2.01-0.48c0.69-1.92,2.03-3.37,4.34-3.42c1.64,0,2.73,0.67,3.44,1.67c1.39-3.31,7.58-3.16,12.88-3.02
			c2.53,0.07,4.86,0.14,6.36-0.17c17.27-0.36,34.57-0.74,51.82,0.01c3.21-1.4,6.88-1.08,10.51-0.76c1.99,0.18,3.97,0.35,5.86,0.24
			c17.32,0.6,34.8,2.47,52.07,1.55c0,0,0-0.01,0-0.01c2.96,0.14,5.94,0.19,8.91,0.2c3.35-1.54,7.21-1.16,11.02-0.79
			c1.98,0.2,3.95,0.39,5.82,0.32c11.75,0.7,23.54,1,35.1,2.78c3.57-4.07,9.01-0.25,8.14,4.61c-0.31,5.87,0.87,12.1-0.48,17.81
			c1.49,15.95-1.39,31.4-2.77,47.16c3.26,10.68,1.05,22.52,1.72,33.61c-0.07,7.55,0.09,15.11,0.04,22.66
			c-0.1,2.2-0.13,4.41-0.12,6.61c-0.02,0.73-0.05,1.46-0.07,2.19c-1.69,9.02-1.21,18.21-1.55,27.4c-0.65,9.04,0.2,18.1-0.09,27.14
			c-0.12,1.03-0.57,1.88-1.21,2.54c1.91,2.13,1.27,5.42-0.52,7.2C474.22,445.33,472.76,445.18,471.31,445.02z"/>
		<path class="st2" d="M452.75,187.48c0.3,8.04,3.93,16.09,1.74,24.11c-2.69,5.86-9.21,0.9-14.13,2.59
			c-11.86-0.92-23.86,1.85-35.8-0.05c-7.84-0.46-15.7-0.41-23.56-0.46c-3.66-0.4-8.44,1.31-11.31-1.54
			c-12.84,2.54-25.89,0.53-38.8,0.39c-9.37,1.05-19.44,2.73-28.12-2.06c-7.93,3.47-7.45-7.71-7.69-12.65
			c-0.59-10.25-0.28-20.54-0.05-30.8c-2.81-5.96-3.18-12.73-5.03-19c-2.65-7.76-3.23-16.26-1.23-24.24
			c1.39-5.06,6.88-4.33,10.87-3.21c3.38,0.66,6.85,0.59,10.27,0.39c11.81-1.36,23.57,1.09,35.43-0.11
			c24.09-2.02,48.35,0.52,72.46,1.04c9.81,1.1,19.71-1.2,29.44-0.01c6.07,2.12,3.1,9.87,3.02,14.64
			c-0.03,8.76-0.35,17.52,0.09,26.28C451.14,171.06,452.83,179.17,452.75,187.48z"/>
		<path class="st3" d="M697.62,339.36c1.31,6.86-6.85,8.12-11.52,5.35c-11.72-2.18-23.91,1.16-35.84,0.05
			c-30.8-0.43-61.21,4.16-91.91,5.28c-21.98-0.11-43.5,5.66-65.5,4.69c-8.73,0.66-12.1-3.99-11.75-12.31
			c-0.69-9.06-0.42-18.09,0.19-27.14c-0.15-6.57,0.85-13.61-1.18-19.88c-1.63-5.02,5.47-8.75,8.33-4.09
			c15.57-6.07,33.4-4.41,49.96-6.18c31.01-2.48,62.08-3.62,93.2-4.16c11.78-0.39,23.55-0.76,35.29-1.96
			c6.58,0.69,27.95-6.89,27.59,3.3c-0.95,12.93-1.52,26.14,1.05,38.91C696.14,327.28,696.5,333.37,697.62,339.36z"/>
		<path class="st4" d="M481.49,435.65c0.09-3.88-1.67-8.55,0.53-11.99c-0.66-14.69-2.86-29.7-2.93-44.55
			c-0.01-2.21,0.02-4.41,0.12-6.61c0.21-4.84,0.7-9.65,1.62-14.42c1.71-2.52,3.94-2.73,5.72-1.73c0.11-0.03,0.23-0.06,0.35-0.09
			c1.88-2,5.31-1.71,7.48-0.37c3.43,0.39,6.89,0.41,10.29,1c2.98-1.07,6.26-0.85,9.51-0.63c1.88,0.13,3.76,0.25,5.57,0.13
			c1.75-0.92,3.74-0.85,5.73-0.78c1.17,0.04,2.34,0.09,3.46-0.07c4.28-0.34,8.54-0.92,12.81-1.37c19.78-2.28,39.66-2.66,59.53-3.21
			c5.3,0,10.61-0.6,15.91-1.21c8.63-0.98,17.25-1.97,25.84-0.32c3.9-2.55,9.85-1.96,15.43-1.39c2.79,0.29,5.5,0.58,7.81,0.48
			c6.3,0.53,12.62,0.73,18.93,1.33c2.78,0.29,5.8-0.27,8.38,0.99c1.31,0.76,2.07,2.08,2.21,3.47c1.67,3.83,0.5,8.7,1.13,12.78
			c0.96,7.14,2.87,14.98,1.76,22.11c-0.18,6.12,2.15,12.05,2.04,18.2c0.23,5.68-1.61,11.12-2.14,16.72
			c-0.84,5.94,5.93,12.23,1.24,17.53c-0.94,0.7-1.91,1.29-2.91,1.79c-0.14-0.03-0.28-0.06-0.42-0.09c-0.42-0.3-0.91-0.52-1.43-0.62
			c0-0.01,0-0.02,0-0.02c-1.46-0.2-2.93-0.24-4.39-0.29c-1.32-0.04-2.63-0.06-3.95-0.05c-0.87,0-1.73,0.01-2.6,0.02
			c-1.52-0.01-3.04-0.01-4.57,0c-4.52,0.05-9.05,0.2-13.57,0.47c-0.5,0.03-0.99,0.06-1.48,0.09c-0.61-0.71-1.46-1.2-2.41-1.41
			c-2.94-0.64-6.05-0.49-9.05-0.54c-1.75-0.03-3.52,0.08-5.27,0.15c-0.41-0.01-0.82-0.03-1.23-0.04c-1.98-0.06-3.98,0.05-5.97,0.09
			c-1.59,0.03-3.18,0.18-4.77,0.3c-0.52,0.04-1.05,0.08-1.57,0.12c-1.41,0.04-2.84,0.07-4.24,0.18c-2.02,0.16-4.04,0.33-6.06,0.5
			c-0.92,0.07-1.84,0.18-2.76,0.3c-1.15-0.01-2.3,0-3.46,0.02c-7.02,0.1-14.01,0.6-21,1.2c-0.65,0.05-1.31,0.11-1.96,0.16
			c-4.47-0.08-8.94-0.16-13.39-0.45c-17.35-0.86-34.56-1.41-51.92-0.07c-6.64,1.08-13.35,0.73-20.04,0.39
			c-7.5-0.39-14.98-0.77-22.34,0.85c-0.04,0-0.08,0-0.11,0C482.27,444.69,481.53,439.34,481.49,435.65z"/>
		<path class="st4" d="M250.64,438.4c-1.25-0.18-2.5-0.36-3.76-0.52c-2.18-0.27-4.38-0.54-6.57-0.71c-4.5-0.38-9.01-0.79-13.53-0.93
			c-4.95-0.15-9.88-0.25-14.82-0.09c-2.58,0.09-5.14,0.23-7.72,0.4c-1.24,0.09-2.48,0.25-3.71,0.39c-1.22,0.14-2.43,0.27-3.56,0.64
			c-0.71-0.05-1.42-0.09-2.13-0.1c-2.02-0.04-4.06-0.14-6.08-0.09c-2.07,0.05-4.16,0.01-6.23,0.15c-1.09,0.07-2.18,0.15-3.27,0.22
			c-1.06,0.07-2.15,0.09-3.21,0.22c-0.17,0.02-0.33,0.04-0.5,0.06c-0.66-0.11-1.31-0.2-1.96-0.3c-0.92-0.14-1.83-0.24-2.75-0.34
			c-1.14-0.12-2.28-0.3-3.42-0.36c-1.09-0.06-2.18-0.12-3.27-0.19c-0.81-0.05-1.64-0.14-2.45-0.14c-2.2,0.01-4.4,0.02-6.6,0.03
			c-2.31,0.01-4.64,0.24-6.94,0.38c-1.97,0.11-3.93,0.37-5.89,0.57c-1.98,0.2-3.94,0.54-5.91,0.84c-0.29,0.04-0.58,0.09-0.88,0.13
			c-1.21-0.02-2.42-0.02-3.63-0.01c-2.78,0.03-5.55,0.08-8.34,0.17c-1.12,0.04-2.25,0.1-3.37,0.17c-0.48,0.03-0.96,0.05-1.44,0.08
			c-1.85-3.27-1.47-8.46-2.05-11.82c-0.35-6.88-1.38-13.68-1.87-20.54c-0.38-4.97-0.16-9.94,0.3-14.9
			c-0.96-6.57-1.5-13.2-1.53-19.85c-0.29-12.23,0.57-24.51-1.54-36.62c-0.45-10.36-1.78-20.64-2.54-30.99
			c0.39-4.09-3.08-9.55,1.19-12.31c0.61-0.37,1.27-0.56,1.92-0.6c0.75-1.4,2.2-2.43,3.95-2.41c13.39,2.56,26.88-0.27,40.36-0.98
			c16.97-1.45,34.11-2.96,51.12-1.43c2.14-1.51,4.89-1.4,7.38-1.73c6.38-0.44,12.81-0.35,19.16,0.38
			c7.14-0.31,14.11-1.53,20.96-3.38c8.02-0.01,4.04,15.72,4.63,21.05c-0.24,16.64-0.61,33.29,0.44,49.91
			c1.97,18.45,0.31,37.14-0.88,55.5c0.04,7.59,1.32,15.15,1.24,22.79c-0.08,2.55,0.64,5.49,0.11,8.03
			c-0.49-0.03-0.98-0.05-1.46-0.08c-1.28-0.06-2.56-0.18-3.84-0.02c-0.39,0.05-0.76,0.15-1.11,0.29
			C253.43,438.75,252,438.6,250.64,438.4z"/>
	</g>
	<g id="Vector_layer_00000095298411199270951320000008837306121481988241_">
		<path d="M478.76,447.17c-9.18-1.58-3.26-29.65-4.37-37.24c-0.65-15.87-0.96-31.62,0.64-47.41c2.14-22.92,1.33-45.85,1.09-68.82
			c-0.56-15.54,2.08-31.04,1.43-46.56c-35.76-1.5-71.58-2.25-107.36-3.21c-34.71,0.54-69.31,3.6-104.02,4
			c0.71,48.57-0.7,97.23,0.77,145.9c0.15,13.56-1.35,27.05-1.14,40.61c-0.42,2.88,2.07,5.5,0.2,8.2c-1.34,2-4.24,2.66-6.24,1.25
			c-7.08-7.89-0.15-39.86-1.82-52.1c-2.41-40.14,1.58-80.38-1.32-120.4c2.97-35.14-9.54-32.37,29.66-33.14
			c32.6-0.17,65.12-4.3,97.77-3.14c19.55,0.7,39.1,1.54,58.66,1.88c12.52,0.41,25.08,0.14,37.54,1.42
			c8.26,1.1,6.24,11.68,6.37,17.71c-2.32,26.73-1.07,53.47-1.13,80.25c-0.45,19.74-3.39,39.39-2.57,59.16
			c0.59,11.94,0.48,23.83-0.42,35.74C482.48,436.44,486.72,446.51,478.76,447.17z"/>
		<path d="M514.51,291.36c-7.12-0.21-14.24,0.11-21.36-0.01c-4.9-0.55-14.98,1.42-14.41-6.06c0.46-2.43,2.85-4.01,5.27-3.57
			c14.61,1.38,28.92,0.26,43.3,0.92c54.51-4.22,109.04-10.99,163.79-10.06c5.76,0.25,5.38,9.33-0.48,8.99
			c-3.29-0.13-6.59-0.14-9.88-0.1c-17.29,0.33-34.54,0.74-51.79,2.01C590.68,283.9,552.8,292.46,514.51,291.36z"/>
		<path d="M503.14,358.44c-6.95-0.14-13.91-0.43-20.81-1.32c-2.41-0.45-4.04-2.86-3.57-5.27c1.88-6.5,10.17-2.25,14.98-2.75
			c23,1.4,45.83-2.9,68.74-4.32c28.57-2.17,57.21-3.66,85.87-3.72c14.42,0.22,29-0.17,43.23,2.51c5.43-1.95,8.56,6.61,3,8.49
			C631.05,346.31,566.77,354.41,503.14,358.44z"/>
		<path d="M117.37,292.36c-2.96-0.21-5.94-0.57-8.91-0.58c-3.89-0.01-5.75-5.43-2.74-7.86c3.39-2.38,8.04-0.47,11.9-0.56
			c6.33,0.63,12.68,0.57,19-0.22c22.09-0.6,44.12-1.93,66.17-3.73c13.46-0.54,26.87-1.95,40.35-2.01
			c6.35,0.58,12.35-2.01,18.54-2.16c2.41,0.44,4.04,2.87,3.57,5.27c-0.03,4.66-14.01,5.43-17.8,5.8
			c-14.04,0.01-28.02,1.27-42.03,1.99c-20.74,1.06-41.49,3.8-62.25,3.35C134.58,292.37,125.99,293.38,117.37,292.36z"/>
		<path d="M110.29,441.27c-3.82-20.96-3.05-42.51-3.97-63.75c-2-28.85-0.31-57.95-3.55-86.71c-4-8.31,9.08-10.97,9.18,0.16
			c2.97,33.83,1.79,67.93,3.92,101.81c0.45,15.54,0.33,31.3,3.23,46.6C120.36,445.02,111.5,447.03,110.29,441.27z"/>
		<path d="M287.85,212.53c-2.39-13.83-0.97-27.94-1.89-41.89c0.02-17.16-1.98-34.33-2.18-51.4c2.32-6.91,10.27-3.16,9.13,3.41
			c1.04,24.41,2.68,48.79,2.51,73.23c0.03,4.94,0.46,9.88,1.24,14.76C297.9,216.3,289.03,218.27,287.85,212.53z"/>
		<path d="M455.6,222.13c-19.58-2.53-39.3-1.14-58.95-1.82c-8.18-0.53-16.36-1.31-24.57-1.21c-11.86,0.05-23.67,1.4-35.53,1.51
			c-15.17-1.09-30.53-1.65-45.47-4.6c-8.93,0.2-6.63-12.38,4.78-8.26c13.33,2.35,27.01,2.74,40.5,3.89c19-0.58,38-2.67,56.98-0.54
			c20.93,1.28,41.89-0.7,62.75,2.06C461.84,213.43,461.43,222.52,455.6,222.13z"/>
		<path d="M451.41,220.82c-2.05-33.71-1.48-67.81-5.33-101.32c0.43-3.43,4.85-5.21,7.43-2.8c2.1,1.93,1.75,5.13,2.28,7.71
			c2.4,22.61,1.92,45.42,3.53,68.09c0.67,7.01,0.12,14.06,0.65,21.07c0,3.22,1.42,7.07-0.69,9.86
			C456.9,226.38,451.51,224.69,451.41,220.82z"/>
		<path d="M445.91,124.65c-39.67-1.77-79.34,1.11-118.92-1.5c-13.44-1.02-27.06,1.01-40.37-1.44c-6.87-2.45-3.87-11.44,5.67-8.18
			c19.01,0.6,38.02,0.45,57.01,1.87c13.03-0.04,26.04-0.71,39.08-0.37c19.81,0.41,39.7-0.37,59.46,0.82
			C455.12,116.25,452.9,126.82,445.91,124.65z"/>
		<path d="M342.07,238.55c0.4-5.23-4.42-18.93,3.02-19.77c7.84-0.15,4.36,13.8,5.95,19.05
			C351.58,243.62,342.53,244.38,342.07,238.55z"/>
		<path d="M399.8,240.23c-7.16-1.18-3.23-10.64-3.95-15.62c-0.31-3.9-1.38-9.78,4.36-9.77c6,0.61,4.35,8.24,4.61,12.5
			C404.24,231.76,406.44,240.13,399.8,240.23z"/>
		<path d="M340.32,233.51c0.11-5.78-2.32-12.25-0.16-17.71c1.55-2.36,5.04-2.81,7.03-0.77c-0.15-0.12-0.3-0.23-0.45-0.35
			c-0.08-0.04-0.16-0.08-0.24-0.12c2.05,1.12,2.79,3.69,1.84,5.74c0.31,4.16,0.61,8.32,0.96,12.47
			C349.81,238.59,340.75,239.34,340.32,233.51z"/>
		<path d="M151.76,443.88c-11.04-0.09-22.07-0.71-33.06-1.82c-1.87,0.7-4.22,0.38-5.54-1.27c-3.86-6.18,3.74-8.76,8.79-7.51
			c7.19,0.76,14.41,1.27,21.64,1.47c22.69,1.24,45.23-2.13,67.91-1.67c15.2,0.89,30.6-1.37,45.67,1.13
			c3.32,0.07,6.89-0.68,7.81,3.64c0.4,2.39-1.27,4.81-3.69,5.19c-3.03,0.66-6.04,0.01-9.03-0.57c-6.69-0.62-13.46-0.31-20.17-0.37
			c-11.4,0.59-22.81-0.35-34.22-0.01C182.49,442.87,167.16,444.4,151.76,443.88z"/>
		<path d="M478.49,446.95c-39.45-4.17-79.28-5.13-118.91-7.47c-26.64-0.3-53.18,2.28-79.8,2.64c-7.02-0.03-15.36,1.77-21.49-2.37
			c-4-3.68,1.22-10.2,5.66-6.98c39.14,1.98,78.5-5.12,117.7-1.07c24.68,1.28,49.37,2.1,74,4.3c6.13,0.26,13.2,0.29,19,1.55
			c3.58,0.44,7.9,0.25,8.16,4.73C482.91,444.62,480.94,446.98,478.49,446.95z"/>
		<path d="M519.96,446.7c-10.32,0.01-20.59-0.75-30.86-1.77c-2.63-0.22-5.26-0.58-7.89-0.77c-1.59,0.68-3.55,0.41-4.88-0.81
			c-1.82-1.68-1.89-4.54-0.25-6.36c3.25-3.91,11.03-0.63,15.6-0.88c14.25,1.58,28.6,1.9,42.92,1.32
			c18.82-0.44,37.63-0.79,56.46-1.12c13.66-0.5,27.22-2.41,40.89-2.72c14.38-0.91,28.65,1.02,42.99,1.53
			c5.99,0.23,11.94-1.01,17.92-0.53c4.38-0.02,12.29-1.98,12.2,4.67c-0.21,2.37-2.45,4.4-4.88,4.08c-6.61,0.19-13.21,0.05-19.8,0.71
			c-10.38,0.39-21.62-1.06-31.8-1.59c-18.17-0.63-36.24,1.6-54.34,2.72C569.47,445.66,544.72,446.31,519.96,446.7z"/>
	</g>
</g>
<g id="Layer_group_00000096058913521997189220000010580560221960568712_">
	<g id="Vector_layer_00000178191317357749217960000016035475514982449556_">
	</g>
	<g id="Vector_layer_00000132067257228953946110000000642159826575402171_">
	</g>
	<g id="Vector_layer_00000048463572810016972350000001083216490233039275_">
	</g>
</g>
<g id="Vector_layer_00000108267665479584482080000015805445339260554686_">
</g>
</svg>
