<?xml version="1.0" encoding="utf-8"?>
<!-- Generator: Adobe Illustrator 27.0.1, SVG Export Plug-In . SVG Version: 6.00 Build 0)  -->
<svg version="1.1" xmlns="http://www.w3.org/2000/svg" xmlns:xlink="http://www.w3.org/1999/xlink" x="0px" y="0px"
	 viewBox="0 0 367.71 550.05" style="enable-background:new 0 0 367.71 550.05;" xml:space="preserve">
<style type="text/css">
	.st0{fill:#C6F39B;}
	.st1{fill:#FFFBEF;}
	.st2{fill:#989898;}
	.st3{fill:#464646;}
	.st4{fill:#D0D0D0;}
	.st5{fill:#815E3F;}
</style>
<g id="Background_xA0_Image_00000134937618189341510900000015959939387084543146_">
</g>
<g id="Vector_layer_00000112618304402090071030000006514811340663101363_">
</g>
<g id="Vector_layer_00000048473056952808540380000011320247114047126153_">
</g>
<g id="Layer_group_00000065075053446498530510000002537821633721071499_">
	<g id="Vector_layer_00000072986937047860993200000002812667959087577756_">
		<path class="st1" d="M0,449.04V73.76c-1.46-0.13-2.92-0.29-4.38-0.46c-0.27,0.23-0.55,0.41-0.83,0.56
			c-0.04,1.16-0.61,2.34-1.95,3.31c-12.65,38.07-21.61,77.35-23.12,117.55c-1.85,40.62-3.55,81.76,0.62,122.18
			c0.48,16.98,5.24,33.23,8.84,49.71c4.53,23.83,7.2,48.07,8.41,72.29c0.36,3.43,0.98,6.84,1.77,10.2c0.77-0.23,1.66-0.23,2.62,0.07
			C-5.34,448.95-2.67,448.95,0,449.04z M237.58,73.15c2.92,8.25-2.4,16.96-0.86,25.53c0.01,6.14-0.1,12.3-0.66,18.42
			c-0.78,6.32-2.78,12.46-3.29,18.83c-0.05,1.29-0.14,2.58-0.27,3.86c0.86,2.23,0.55,4.91,0.77,7.27
			c0.25,7.19,0.34,14.39,0.39,21.59c0.85,15.95-3.19,31.6-2.83,47.55c-0.72,13.61,0.12,27.18,0.68,40.78
			c-0.07,8.96-0.77,17.9-0.75,26.87c0.02,26.26-0.73,52.47-2.13,78.68c0,1.55-0.65,2.7-1.6,3.43c0.1,0.72,0.21,1.39,0.34,1.99
			c2.72,18.17,2.78,36.54,4.64,54.78c-0.55,8.31,2.64,16.22,2.25,24.5c0.06,7.28-7.99,10.28-14.14,8.58
			c-10.68-2.44-21.36-0.45-32.15-0.71c-7.99-0.48-14.92,0.06-22.46,0.52c-9.96-1.13-19.66,0.89-29.58,0.27
			c-5.82-0.49-11.58-1.59-17.41-2.02c-15.7-1.21-31.42,0.23-47.13-0.07c-11.44,1.18-22.84,2.52-34.36,2.73
			c-10.04,1.33-20.16,2.56-30.31,1.98c-2.21-0.43-4.46-0.48-6.71-0.45c-3.26,0.05-6.53,0.3-9.71-0.17
			c-1.29,1.71-3.62,2.64-5.78,1.24c-7.26-8.09-5.48-23.49-6.56-33.88c-2.22-18.67-3.61-37.48-7.39-55.92
			c-9.94-37.3-12.4-76.07-11.68-114.57c0.49-29.51,0.98-59.06,4.21-88.42c2.96-32.94,12.32-64.88,22.74-96.05
			c0.6-0.76,1.29-1.24,2.02-1.51c0.09-0.99,0.55-1.98,1.48-2.82c2.92-2.48,6.88-1.77,10.67-1.31c1.38,0.17,2.73,0.3,4,0.23
			c18.18,1.75,36.52-0.27,54.62,2.8c8.37,0.5,16.75-0.03,25.13,0.04c5.88,0.32,11.71,1.09,17.61,0.93
			c9.89,0.38,19.64-1.52,29.49-1.79c9.87,0.04,19.66-0.14,29.3-0.59c12.96-0.27,25.88,0.95,38.8,1.6
			c10.05,0.41,20.06,0.88,29.97,2.7C232.03,70.66,235.75,69.95,237.58,73.15z"/>
	</g>
	<g id="Vector_layer_00000041270790859901216030000010058469211095654333_">
		<path d="M220.28,72.78c-16.82-0.64-33.53-2.74-50.39-2.25c-18.4-0.56-36.72-3.25-55.17-1.89c-15.92,1.54-31.8,4.08-47.8,1.75
			c-21.1-0.4-42.2-1.29-63.27-2.26c-0.02-0.01-0.04-0.01-0.07-0.02c-1.72-0.48-3.51-0.64-5.29-0.59c-0.58,0.01-1.16,0.15-1.69,0.39
			c-4.77-0.52-7.95-6.05-2.57-9.01C5.39,58.97,17.1,59.91,28.62,60c18.34,1.29,36.71,1.16,55.04,2.43
			c21.52-1.56,42.99-4.73,64.63-2.28c16.54,2.04,33.21,0.9,49.8,2.1c14.33,1.69,28.76,1.8,43.16,1.39c2.45-0.02,4.5,2.06,4.5,4.5
			c0,2.46-2.05,4.48-4.5,4.5c-5.05,0.08-10.11,0.21-15.16,0.21C224.15,72.84,222.21,72.82,220.28,72.78z"/>
		<path d="M232.28,453.1c-1.41-34.37-5.36-68.65-5-103.08c0.73-48.24,0.06-96.57,3.52-144.72c1.05-23.92-0.27-47.91,1.12-71.85
			c0.35-17.72,4.15-35.16,4.12-52.9c0.18-4.23-0.17-8.44,0.03-12.65c0.34-3.55,5.2-5.22,7.64-2.57c2.25,2.5,1.13,6.31,1.37,9.38
			c-0.46,30.9-5.9,61.5-5.03,92.51c0.95,24.95-1.15,49.77-2.24,74.67c-0.94,38.19-1.3,76.4-1.54,114.61
			c-0.16,24.35,2.54,48.58,3.6,72.88c0.58,5.66,0.86,11.34,1,17.02c0.26,4.11,1.86,10.89-4.09,11.2
			C234.3,457.6,232.32,455.54,232.28,453.1z"/>
		<path d="M-5.58,458.84c-0.34-5.82,6.48-5.19,10.51-5.29c7.11-0.18,14.22,0.16,21.33-0.19c28.1-2.06,56.26-2.45,84.42-2.38
			c28.74-0.54,57.43,1.58,86.16,1.03c10.13-0.55,20.26-0.28,30.39-0.36c4.77,0.58,12.3-4.12,14.4,2.22
			c1.57,9.84-21.82,6.04-27.91,6.74c-28.63,1.42-57.2-0.68-85.83-0.53c-26.86-0.16-53.71-0.25-80.55,0.99
			c-15.06,1.16-30.12,1.58-45.22,1.56C-1.04,463.18-5.16,462.8-5.58,458.84z"/>
		<path d="M-1.45,463.88c-1.98-0.16-3.86-0.32-5.33-0.16c-58.98-2.19-52.97-52.91-55.43-97.05c-4.48-39.3-5.15-78.72-1.12-118.11
			c1.18-39.08,4.07-78.12,4.06-117.23c-1.43-23.39,6.04-46.06,26.68-58.97c5.92-5.48,32.14-16.55,34.57-5.07
			c0,0.16,0,0.31-0.01,0.46c-1.22-0.2-2.46-0.27-3.69-0.24c-0.82,0.02-1.62,0.29-2.31,0.72c-1.03-0.12-2.07-0.24-3.11-0.31
			c-2.35-0.17-5.12-0.14-6.87,1.68c-0.51,0.54-0.91,1.16-1.15,1.83c-0.24,0.31-0.44,0.66-0.6,1.05c-0.14,0.34-0.23,0.71-0.27,1.08
			c-16.41,5.35-31.29,22.54-33.21,38.72c-2.05,46.75-2.73,93.63-5.38,140.38c-3.2,34.77-3.57,69,0.63,103.59
			c4.51,28.89-4.27,64.05,15.95,87.95c12.25,9.57,29.03,11.31,44.11,10.52c2.45-0.11,4.5,2.13,4.5,4.5
			c-0.6,4.04-3.95,4.89-7.76,4.89C1.42,464.11-0.04,463.99-1.45,463.88z"/>
	</g>
</g>
<g id="Layer_group_00000131355402648430388500000018189211281559141513_">
	<g id="Vector_layer_00000037672746607587125550000010722016805013201064_">
	</g>
	<g id="Vector_layer_00000095298411199270951320000008837306121481988241_">
	</g>
</g>
<g id="Layer_group_00000096058913521997189220000010580560221960568712_">
	<g id="Vector_layer_00000178191317357749217960000016035475514982449556_">
	</g>
	<g id="Vector_layer_00000132067257228953946110000000642159826575402171_">
	</g>
	<g id="Vector_layer_00000048463572810016972350000001083216490233039275_">
	</g>
</g>
<g id="Vector_layer_00000108267665479584482080000015805445339260554686_">
</g>
</svg>
